<svg id="Layer_1" data-name="Layer 1" xmlns="http://www.w3.org/2000/svg" viewBox="0 0 57.57 57.57"><defs><style>.cls-1{fill:#391951;}.cls-2{fill:#fff;}</style></defs><title>citizen q</title><circle class="cls-1" cx="28.79" cy="28.79" r="28.79"/><path class="cls-2" d="M16.68 34.73H41V18.48H16.68zm4.46-2.37l3.13-4.88 3.13 4.88zm7.11 0l1.67-2.6 1.67 2.6zm-9.43-11.74h20v12h-4.55l-4.36-6.79-2.09 3.26-3.55-5.54L18.82 32z"/><path class="cls-2" d="M35 27.22a2.64 2.64 0 1 0-2.64-2.64A2.64 2.64 0 0 0 35 27.22zm0-3.59a.95.95 0 1 1-.95.95.95.95 0 0 1 .95-.95z"/><path class="cls-2" d="M45.73 16a2.43 2.43 0 0 0-2.43-2.43H14.41A2.43 2.43 0 0 0 12 16v25.44a2.43 2.43 0 0 0 2.43 2.43h31.4L45.73 16zm-2.11 25.63H14.41a.2.2 0 0 1-.2-.2V16a.2.2 0 0 1 .2-.19H43.3a.2.2 0 0 1 .2.19s.06 23.16.12 25.63z"/></svg>