<svg width="44" height="63" viewBox="0 0 44 63" xmlns="http://www.w3.org/2000/svg"><title>Page 1</title><g fill="none" fill-rule="evenodd"><path d="M43.443 62.788l-20.98-22.7s-7.984-.16-11.01-.354C3.193 39.2-.237 33.62.013 25.884c0 0 .07-10.96.365-16.08C.814 2.248 4.536-.415 12.122.052 17.94.408 25.34 1.52 28.962 2.287c4.713.996 7.912 3.216 9.572 9.623.82 3.155 2.535 12.463 3.284 16.6.844 4.646.512 9.602-5.814 10.75l7.44 23.528z" fill="#FBBF34"/><path d="M19.966 27.372c2.818.08 5.243-2.344 5.247-5.21.004-2.823-2.318-5.238-5.226-5.247-2.842-.01-5.247 2.343-5.247 5.246 0 2.85 2.413 5.28 5.226 5.212m-.012 3.147c-2.805 0-5.61-.004-8.416 0-1.385.002-2.625-1.14-2.884-2.357-.034-.162-.032-.324-.032-.485 0-3.677 0-7.353-.002-11.03 0-.896.41-1.584 1.058-2.15.592-.517 1.292-.743 2.08-.73.745.015 1.49 0 2.237.008.193.002.294-.066.36-.247.167-.466.32-.94.535-1.383.42-.873 1.118-1.38 2.11-1.386 1.97-.01 3.943.027 5.914-.016.86-.018 1.964.704 2.248 1.607.13.416.302.817.45 1.227.057.16.17.198.326.197.827-.004 1.654-.004 2.48 0 1.35.003 2.67 1.12 2.892 2.455.03.187.023.382.023.574 0 3.566-.037 7.132.02 10.696.02 1.407-1.162 2.713-2.348 2.952-.235.046-.466.067-.7.067h-8.35" fill="#4E2967"/><path d="M19.978 18.688c1.898-.006 3.482 1.525 3.47 3.46-.01 1.97-1.536 3.473-3.462 3.477-1.943.004-3.465-1.5-3.483-3.458-.018-1.975 1.59-3.487 3.475-3.48" fill="#4E2967"/></g></svg>
