<svg width="100" height="60" viewBox="0 0 165 99" xmlns="http://www.w3.org/2000/svg" xmlns:xlink="http://www.w3.org/1999/xlink"><title>Page 1</title><defs><path id="a" d="M28.82 46H.423V.488h28.4z"/></defs><g fill="none" fill-rule="evenodd"><path d="M37.268 0h127.608v98.226H0V0h37.268v53.753H0V0h37.268"/><path d="M37.164 53.753c-.242-.25-.49-.495-.725-.75-1.59-1.72-3.177-3.445-4.766-5.167-2.297-2.49-4.593-4.98-6.893-7.468-1.56-1.688-3.178-3.33-4.67-5.078-.615-.72-1.293-.89-2.133-.885-2.372.015-4.74-.11-7.11-.19-1.857-.06-3.692-.302-5.4-1.105-2.55-1.2-4.13-3.22-4.892-5.9-.53-1.865-.636-3.77-.546-5.703.078-1.706.007-3.418.046-5.126.062-2.665.136-5.33.255-7.994.065-1.443.32-2.86.89-4.205C2.07 2.178 3.583.95 5.664.407 7.193.008 8.746-.058 10.325.04c3.737.234 7.443.71 11.136 1.297 1.673.267 3.347.533 4.974 1.03 2.89.88 4.81 2.78 5.936 5.55.78 1.926 1.157 3.953 1.57 5.972.76 3.705 1.452 7.425 2.107 11.15.218 1.24.3 2.493.1 3.75-.408 2.56-1.915 4.106-4.385 4.763-.86.23-.814.087-.53.987 1.97 6.22 3.938 12.44 5.904 18.658.05.16.088.32.132.48l-.104.075" fill="#FFBF00"/><g transform="translate(33 52.226)"><mask id="b" fill="#fff"><use xlink:href="#a"/></mask><path d="M16.76 2.356c-.676-.008-1.142.096-1.594.267-1.19.453-2.067 1.305-2.84 2.273-1.5 1.876-2.49 4.026-3.288 6.27-1.128 3.168-1.843 6.424-2.024 9.79-.048.903 0 1.807.246 2.684.214.763.673 1.272 1.507 1.416.885.154 1.68-.048 2.434-.486.615-.36 1.15-.818 1.628-1.343 2.133-2.34 3.48-5.134 4.503-8.082.95-2.732 1.76-5.512 2.65-8.265.143-.44.19-.863.132-1.323-.223-1.797-1.756-3.196-3.352-3.2m4.354 1.292c.343-.58.686-1.125.994-1.69.165-.304.386-.438.725-.493 1.853-.302 3.7-.63 5.55-.945.475-.08.506-.045.36.417-1.103 3.515-2.21 7.03-3.313 10.545L17.885 35.53c-1.057 3.368-2.12 6.734-3.17 10.103-.08.257-.215.367-.485.367-2.033-.006-4.067-.008-6.1 0-.425.002-.367-.213-.278-.493.763-2.393 1.522-4.79 2.282-7.185l4.878-15.382c.03-.09.052-.183.09-.312-.19.1-.227.257-.306.38-1.512 2.347-3.61 3.796-6.435 3.887-3.17.103-5.912-1.58-7.223-4.65-.73-1.712-.82-3.502-.628-5.322.392-3.73 1.835-7.03 4.187-9.926 2.594-3.195 5.862-5.31 9.977-5.978C15.677.855 16.7.735 17.704.942c1.504.31 2.693 1.068 3.287 2.567.015.035.053.06.124.14" fill="#F4F4F4" mask="url(#b)"/></g><path d="M77.644 28.131c.682-.93 1.29-1.895 1.995-2.796 1.334-1.706 2.816-3.252 4.83-4.16 1.796-.81 3.663-1.067 5.567-.436 1.81.6 2.676 1.982 2.93 3.8.27 1.915-.1 3.768-.635 5.593-.698 2.383-1.783 4.606-2.82 6.85-.59 1.282-1.222 2.55-1.488 3.954-.102.533-.098 1.067.04 1.595.253.97.973 1.417 1.972 1.31 1.553-.17 2.523-1.16 3.382-2.32.285-.386.543-.792.793-1.202.13-.207.265-.262.488-.165 1.22.528 1.223.282.522 1.416-1.753 2.833-4.25 4.583-7.603 4.92-2.045.204-3.856-.33-5.05-2.166-.725-1.11-.798-2.35-.602-3.63.297-1.95 1.057-3.744 1.83-5.534.87-2.02 1.82-4.015 2.304-6.18.214-.965.35-1.936.26-2.936-.167-1.835-1.16-1.992-2.507-1.748-1.206.22-2.11.983-2.91 1.863-1.754 1.927-2.97 4.215-4.33 6.412-1.123 1.816-1.536 3.872-2.187 5.85-.778 2.36-1.493 4.74-2.22 7.117-.11.36-.29.485-.663.482-1.92-.017-3.84-.006-5.762-.008-.543 0-.564-.03-.4-.556 1.286-4.123 2.575-8.247 3.86-12.372l7.563-24.264c.122-.39.232-.786.372-1.17.14-.378-.01-.477-.368-.47-.875.018-1.75.018-2.626.02-.478.002-.513-.05-.39-.518.033-.123.08-.242.113-.365.114-.417.336-.595.813-.607 2.427-.066 4.853-.138 7.28-.157.72-.005 1.44-.053 2.158-.067.467-.01.513.056.38.483-1.63 5.244-3.264 10.49-4.895 15.733-.667 2.142-1.33 4.284-1.996 6.425M80.178 71.25c-.81 1.264-1.62 2.52-2.57 3.68-1.157 1.408-2.427 2.694-4.12 3.448-1.96.87-3.962 1.017-5.95.105-1.618-.743-2.438-2.096-2.643-3.824-.258-2.168.264-4.237.897-6.28.79-2.557 1.963-4.962 2.986-7.425.395-.953.774-1.91.96-2.934.096-.518.098-1.036-.012-1.553-.162-.764-.723-1.106-1.484-.9-.598.16-1.043.55-1.438 1-.466.536-.87 1.117-1.178 1.754-.142.293-.316.367-.604.238-.14-.064-.292-.105-.438-.16-.61-.226-.615-.23-.3-.824 1.225-2.305 2.973-3.963 5.62-4.488.867-.172 1.738-.187 2.61-.024 2.168.405 3.46 1.99 3.496 4.297.024 1.565-.387 3.044-.93 4.493-.672 1.786-1.522 3.496-2.242 5.26-.798 1.956-1.476 3.944-1.398 6.103.01.3.058.59.14.875.225.773.716 1.128 1.518 1.165 1.195.057 2.166-.437 3.03-1.198.947-.838 1.72-1.828 2.432-2.87 1.213-1.772 2.293-3.627 3.318-5.513.462-.85.64-1.808.93-2.72.937-2.948 1.846-5.903 2.767-8.854.2-.636.205-.618.887-.65 1.93-.094 3.86-.2 5.79-.308.4-.023.455.025.332.42-.967 3.1-1.937 6.2-2.907 9.297l-3.65 11.64c-.065.203-.102.41-.107.623-.017.655.203.986.84 1.13 1.34.298 2.448-.142 3.354-1.134.583-.64 1.05-1.367 1.458-2.128.175-.325.376-.43.707-.258.036.02.08.028.12.04.947.315.948.316.446 1.163-1.002 1.69-2.245 3.162-3.998 4.11-1.958 1.057-4.014 1.437-6.15.562-1.684-.69-2.54-2.028-2.81-3.792-.184-1.213.036-2.385.29-3.57M126.168 60.782c.7-1.082 1.405-2.153 2.207-3.157 1.437-1.798 3.064-3.366 5.282-4.17 1.38-.502 2.796-.656 4.25-.352 2.24.47 3.41 2.092 3.625 4.237.248 2.498-.43 4.84-1.277 7.147-.824 2.243-1.95 4.355-2.884 6.55-.462 1.092-.94 2.186-.852 3.42.016.224.025.448.087.67.255.918.97 1.367 1.924 1.27 1.428-.144 2.397-.984 3.215-2.058.35-.46.67-.947.974-1.438.146-.236.284-.307.547-.19 1.118.5 1.204.234.484 1.408-1.583 2.588-3.837 4.254-6.847 4.825-1.096.208-2.19.202-3.267-.142-2.22-.71-3.49-2.787-3.2-5.106.28-2.237 1.154-4.268 2.037-6.302.754-1.735 1.54-3.458 2.03-5.295.288-1.084.437-2.18.405-3.307-.048-1.66-.894-2.323-2.527-1.955-1.324.298-2.276 1.148-3.13 2.13-1.604 1.845-2.75 3.995-4.027 6.06-1.024 1.653-1.478 3.502-2.06 5.31-.827 2.583-1.628 5.173-2.427 7.763-.104.34-.27.47-.63.467-1.936-.014-3.87-.005-5.806-.008-.517-.002-.547-.046-.392-.537 1.93-6.083 3.87-12.164 5.786-18.252.286-.906.716-1.79.632-2.788-.055-.646-.4-1.177-.93-1.274-.597-.11-1.18-.06-1.707.3-.43.293-.748.684-1.044 1.1-.306.426-.542.894-.76 1.368-.12.26-.266.33-.53.216-.246-.106-.5-.194-.757-.272-.264-.08-.282-.225-.172-.45 1.455-2.96 4.19-5.035 7.508-5.016 2.504.014 4.317 1.755 4.524 4.252.1 1.214-.07 2.387-.292 3.576M64.238 21.957c-.593 0-1.187.013-1.78-.005-.302-.01-.456.094-.55.39-1.128 3.61-2.268 7.22-3.404 10.828-.895 2.842-1.786 5.683-2.682 8.524-.08.257-.15.514-.172.784-.08.926.49 1.45 1.418 1.377 1.41-.107 2.413-.863 3.25-1.92.388-.486.74-1 1.034-1.546.15-.282.324-.34.615-.212 1.137.505 1.207.192.483 1.43-1.167 1.997-2.743 3.547-4.95 4.362-1.248.46-2.543.693-3.868.5-2.294-.332-3.762-1.955-4.008-4.27-.153-1.437.088-2.812.518-4.167 1.648-5.194 3.304-10.386 4.958-15.578.154-.484.148-.496-.364-.497-1.102-.003-2.203-.01-3.304.004-.34.005-.41-.124-.356-.433.198-1.103.303-1.2 1.41-1.2.92 0 1.837-.018 2.755.01.4.01.57-.138.684-.514.713-2.38 1.458-4.75 2.17-7.13.12-.405.323-.577.737-.59 1.947-.05 3.893-.12 5.84-.176.514-.016.547.037.39.53l-2.16 6.735c-.08.256-.148.516-.24.768-.107.296.01.373.292.37 1.073-.008 2.147-.003 3.22-.003.127 0 .254.006.38.003.287-.007.386.133.316.4-.074.287-.153.573-.23.858-.076.273-.253.377-.536.37-.62-.013-1.243-.004-1.864-.003M162.265 54.504c-.593 0-1.187.013-1.78-.006-.313-.01-.48.082-.58.402-1.2 3.842-2.413 7.68-3.622 11.517l-2.49 7.92c-.073.23-.138.458-.148.702-.042.966.513 1.448 1.48 1.36 1.427-.126 2.423-.916 3.252-1.995.37-.482.713-.984 1.005-1.517.13-.235.28-.296.514-.183.076.036.157.062.235.095.93.39.977.193.426 1.163-1.496 2.636-3.616 4.46-6.69 4.98-1.435.246-2.85.24-4.135-.583-1.374-.877-1.958-2.214-2.116-3.774-.14-1.37.107-2.696.523-4 1.648-5.165 3.29-10.332 4.934-15.5.185-.576.177-.582-.437-.582-1.045 0-2.09.002-3.136-.003-.442 0-.49-.07-.4-.504.012-.055.025-.11.04-.165.233-.92.275-.953 1.23-.953.918 0 1.837-.027 2.754.01.478.02.69-.126.828-.598.69-2.344 1.44-4.67 2.128-7.014.142-.483.4-.613.84-.623.846-.02 1.693-.018 2.54-.073 1.097-.07 2.2-.066 3.3-.112.362-.016.444.088.33.438-.795 2.46-1.575 4.922-2.362 7.384-.188.587-.19.587.446.587 1.087 0 2.175.008 3.262-.003.373-.004.5.112.42.504-.22 1.1-.234 1.125-1.358 1.125h-1.23M107.5 32.448c1.292-.002 2.56-.172 3.784-.6 1.363-.477 2.475-1.292 3.05-2.636.797-1.866.91-3.828.535-5.81-.143-.755-.652-1.208-1.418-1.328-.637-.1-1.266-.046-1.874.184-1.13.425-1.88 1.277-2.48 2.274-1.41 2.353-2.082 4.987-2.853 7.584-.077.26.056.332.28.332h.974zm6.123-12.043c1.257.032 2.812.282 4.264 1.05 3.26 1.72 3.945 5.874 1.4 8.546-1.525 1.602-3.46 2.46-5.533 3.053-2.42.695-4.9.952-7.41.924-.41-.005-.6.123-.72.517-.643 2.136-1.03 4.31-1.03 6.543 0 .62.063 1.24.214 1.847.36 1.445 1.237 2.136 2.72 2.186 2.523.084 4.705-.78 6.63-2.36.785-.646 1.555-1.312 2.21-2.095.197-.234.36-.283.566-.01.655.882.83.59-.02 1.503-1.534 1.643-3.28 2.99-5.422 3.742-2.185.766-4.418.963-6.658.286-3.35-1.013-5.314-3.353-6.12-6.69-.655-2.704-.32-5.372.594-7.957 1.52-4.303 4.224-7.63 8.328-9.73 1.79-.915 3.724-1.355 5.987-1.355zM102.593 79.094c-2.046-.063-3.61-.596-4.587-2.243-.61-1.028-.785-2.162-.696-3.345.19-2.53 1.178-4.81 2.21-7.076.85-1.863 1.8-3.68 2.5-5.608.39-1.067.696-2.153.664-3.302-.008-.28-.042-.566-.108-.838-.274-1.13-1.395-1.213-2.094-.856-.97.496-1.64 1.328-2.22 2.224-.477.737-.463.746-1.32.46-.094-.03-.186-.068-.282-.092-.273-.065-.278-.21-.167-.437.76-1.544 1.826-2.824 3.298-3.724 1.785-1.09 3.716-1.588 5.798-1.148 1.928.407 3.324 2.076 3.49 4.044.123 1.432-.154 2.81-.557 4.168-.624 2.107-1.576 4.08-2.53 6.05-.77 1.587-1.594 3.154-2.136 4.84-.29.908-.484 1.826-.29 2.79.2.987.938 1.494 1.945 1.397 1.287-.125 2.242-.784 3.03-1.746.44-.535.838-1.103 1.17-1.712.154-.285.333-.34.614-.2.202.1.414.183.627.255.26.088.33.224.188.475-1.94 3.42-4.81 5.38-8.545 5.626" fill="#F4F4F4"/></g><style xmlns="http://www.w3.org/1999/xhtml" charset="utf-8" type="text/css" class="firebugResetStyles">/* See license.txt for terms of usage */
/** reset styling **/
.firebugResetStyles {
    z-index: 2147483646 !important;
    top: 0 !important;
    left: 0 !important;
    display: block !important;
    border: 0 none !important;
    margin: 0 !important;
    padding: 0 !important;
    outline: 0 !important;
    min-width: 0 !important;
    max-width: none !important;
    min-height: 0 !important;
    max-height: none !important;
    position: fixed !important;
    transform: rotate(0deg) !important;
    transform-origin: 50% 50% !important;
    border-radius: 0 !important;
    box-shadow: none !important;
    background: transparent none !important;
    pointer-events: none !important;
    white-space: normal !important;
}
style.firebugResetStyles {
    display: none !important;
}

.firebugBlockBackgroundColor {
    background-color: transparent !important;
}

.firebugResetStyles:before, .firebugResetStyles:after {
    content: "" !important;
}
/**actual styling to be modified by firebug theme**/
.firebugCanvas {
    display: none !important;
}

/* * * * * * * * * * * * * * * * * * * * * * * * * * * * * * * * * * * * * * * * * * * * * * * * */
.firebugLayoutBox {
    width: auto !important;
    position: static !important;
}

.firebugLayoutBoxOffset {
    opacity: 0.8 !important;
    position: fixed !important;
}

.firebugLayoutLine {
    opacity: 0.4 !important;
    background-color: #000000 !important;
}

.firebugLayoutLineLeft, .firebugLayoutLineRight {
    width: 1px !important;
    height: 100% !important;
}

.firebugLayoutLineTop, .firebugLayoutLineBottom {
    width: 100% !important;
    height: 1px !important;
}

.firebugLayoutLineTop {
    margin-top: -1px !important;
    border-top: 1px solid #999999 !important;
}

.firebugLayoutLineRight {
    border-right: 1px solid #999999 !important;
}

.firebugLayoutLineBottom {
    border-bottom: 1px solid #999999 !important;
}

.firebugLayoutLineLeft {
    margin-left: -1px !important;
    border-left: 1px solid #999999 !important;
}

/* * * * * * * * * * * * * * * * * * * * * * * * * * * * * * * * * * * * * * * * * * * * * * * * */
.firebugLayoutBoxParent {
    border-top: 0 none !important;
    border-right: 1px dashed #E00 !important;
    border-bottom: 1px dashed #E00 !important;
    border-left: 0 none !important;
    position: fixed !important;
    width: auto !important;
}

.firebugRuler{
    position: absolute !important;
}

.firebugRulerH {
    top: -15px !important;
    left: 0 !important;
    width: 100% !important;
    height: 14px !important;
    background: url("data:image/png,%89PNG%0D%0A%1A%0A%00%00%00%0DIHDR%00%00%13%88%00%00%00%0E%08%02%00%00%00L%25a%0A%00%00%00%04gAMA%00%00%D6%D8%D4OX2%00%00%00%19tEXtSoftware%00Adobe%20ImageReadyq%C9e%3C%00%00%04%F8IDATx%DA%EC%DD%D1n%E2%3A%00E%D1%80%F8%FF%EF%E2%AF2%95%D0D4%0E%C1%14%B0%8Fa-%E9%3E%CC%9C%87n%B9%81%A6W0%1C%A6i%9A%E7y%0As8%1CT%A9R%A5J%95*U%AAT%A9R%A5J%95*U%AAT%A9R%A5J%95*U%AAT%A9R%A5J%95*U%AAT%A9R%A5J%95*U%AAT%A9R%A5J%95*U%AAT%A9R%A5J%95*U%AATE9%FE%FCw%3E%9F%AF%2B%2F%BA%97%FDT%1D~K(%5C%9D%D5%EA%1B%5C%86%B5%A9%BDU%B5y%80%ED%AB*%03%FAV9%AB%E1%CEj%E7%82%EF%FB%18%BC%AEJ8%AB%FA'%D2%BEU9%D7U%ECc0%E1%A2r%5DynwVi%CFW%7F%BB%17%7Dy%EACU%CD%0E%F0%FA%3BX%FEbV%FEM%9B%2B%AD%BE%AA%E5%95v%AB%AA%E3E5%DCu%15rV9%07%B5%7F%B5w%FCm%BA%BE%AA%FBY%3D%14%F0%EE%C7%60%0EU%AAT%A9R%A5J%95*U%AAT%A9R%A5J%95*U%AAT%A9R%A5J%95*U%AAT%A9R%A5J%95*U%AAT%A9R%A5JU%88%D3%F5%1F%AE%DF%3B%1B%F2%3E%DAUCNa%F92%D02%AC%7Dm%F9%3A%D4%F2%8B6%AE*%BF%5C%C2Ym~9g5%D0Y%95%17%7C%C8c%B0%7C%18%26%9CU%CD%13i%F7%AA%90%B3Z%7D%95%B4%C7%60%E6E%B5%BC%05%B4%FBY%95U%9E%DB%FD%1C%FC%E0%9F%83%7F%BE%17%7DkjMU%E3%03%AC%7CWj%DF%83%9An%BCG%AE%F1%95%96yQ%0Dq%5Dy%00%3Et%B5'%FC6%5DS%95pV%95%01%81%FF'%07%00%00%00%00%00%00%00%00%00%F8x%C7%F0%BE%9COp%5D%C9%7C%AD%E7%E6%EBV%FB%1E%E0(%07%E5%AC%C6%3A%ABi%9C%8F%C6%0E9%AB%C0'%D2%8E%9F%F99%D0E%B5%99%14%F5%0D%CD%7F%24%C6%DEH%B8%E9rV%DFs%DB%D0%F7%00k%FE%1D%84%84%83J%B8%E3%BA%FB%EF%20%84%1C%D7%AD%B0%8E%D7U%C8Y%05%1E%D4t%EF%AD%95Q%BF8w%BF%E9%0A%BF%EB%03%00%00%00%00%00%00%00%00%00%B8vJ%8E%BB%F5%B1u%8Cx%80%E1o%5E%CA9%AB%CB%CB%8E%03%DF%1D%B7T%25%9C%D5(%EFJM8%AB%CC'%D2%B2*%A4s%E7c6%FB%3E%FA%A2%1E%80~%0E%3E%DA%10x%5D%95Uig%15u%15%ED%7C%14%B6%87%A1%3B%FCo8%A8%D8o%D3%ADO%01%EDx%83%1A~%1B%9FpP%A3%DC%C6'%9C%95gK%00%00%00%00%00%00%00%00%00%20%D9%C9%11%D0%C0%40%AF%3F%EE%EE%92%94%D6%16X%B5%BCMH%15%2F%BF%D4%A7%C87%F1%8E%F2%81%AE%AAvzr%DA2%ABV%17%7C%E63%83%E7I%DC%C6%0Bs%1B%EF6%1E%00%00%00%00%00%00%00%00%00%80cr%9CW%FF%7F%C6%01%0E%F1%CE%A5%84%B3%CA%BC%E0%CB%AA%84%CE%F9%BF)%EC%13%08WU%AE%AB%B1%AE%2BO%EC%8E%CBYe%FE%8CN%ABr%5Dy%60~%CFA%0D%F4%AE%D4%BE%C75%CA%EDVB%EA(%B7%F1%09g%E5%D9%12%00%00%00%00%00%00%00%00%00H%F6%EB%13S%E7y%5E%5E%FB%98%F0%22%D1%B2'%A7%F0%92%B1%BC%24z3%AC%7Dm%60%D5%92%B4%7CEUO%5E%F0%AA*%3BU%B9%AE%3E%A0j%94%07%A0%C7%A0%AB%FD%B5%3F%A0%F7%03T%3Dy%D7%F7%D6%D4%C0%AAU%D2%E6%DFt%3F%A8%CC%AA%F2%86%B9%D7%F5%1F%18%E6%01%F8%CC%D5%9E%F0%F3z%88%AA%90%EF%20%00%00%00%00%00%00%00%00%00%C0%A6%D3%EA%CFi%AFb%2C%7BB%0A%2B%C3%1A%D7%06V%D5%07%A8r%5D%3D%D9%A6%CAu%F5%25%CF%A2%99%97zNX%60%95%AB%5DUZ%D5%FBR%03%AB%1C%D4k%9F%3F%BB%5C%FF%81a%AE%AB'%7F%F3%EA%FE%F3z%94%AA%D8%DF%5B%01%00%00%00%00%00%00%00%00%00%8E%FB%F3%F2%B1%1B%8DWU%AAT%A9R%A5J%95*U%AAT%A9R%A5J%95*U%AAT%A9R%A5J%95*U%AAT%A9R%A5J%95*U%AAT%A9R%A5J%95*U%AAT%A9R%A5J%95*U%AAT%A9R%A5J%95*UiU%C7%BBe%E7%F3%B9%CB%AAJ%95*U%AAT%A9R%A5J%95*U%AAT%A9R%A5J%95*U%AAT%A9R%A5J%95*U%AAT%A9R%A5J%95*U%AAT%A9R%A5J%95*U%AAT%A9R%A5J%95*U%AAT%A9R%A5*%AAj%FD%C6%D4%5Eo%90%B5Z%ADV%AB%D5j%B5Z%ADV%AB%D5j%B5Z%ADV%AB%D5j%B5Z%ADV%AB%D5j%B5Z%ADV%AB%D5j%B5Z%ADV%AB%D5j%B5Z%ADV%AB%D5j%B5%86%AF%1B%9F%98%DA%EBm%BBV%AB%D5j%B5Z%ADV%AB%D5j%B5Z%ADV%AB%D5j%B5Z%ADV%AB%D5j%B5Z%ADV%AB%D5j%B5Z%ADV%AB%D5j%B5Z%ADV%AB%D5j%B5Z%AD%D6%E4%F58%01%00%00%00%00%00%00%00%00%00%00%00%00%00%40%85%7F%02%0C%008%C2%D0H%16j%8FX%00%00%00%00IEND%AEB%60%82") repeat-x !important;
    border-top: 1px solid #BBBBBB !important;
    border-right: 1px dashed #BBBBBB !important;
    border-bottom: 1px solid #000000 !important;
}

.firebugRulerV {
    top: 0 !important;
    left: -15px !important;
    width: 14px !important;
    height: 100% !important;
    background: url("data:image/png,%89PNG%0D%0A%1A%0A%00%00%00%0DIHDR%00%00%00%0E%00%00%13%88%08%02%00%00%00%0E%F5%CB%10%00%00%00%04gAMA%00%00%D6%D8%D4OX2%00%00%00%19tEXtSoftware%00Adobe%20ImageReadyq%C9e%3C%00%00%06~IDATx%DA%EC%DD%D1v%A20%14%40Qt%F1%FF%FF%E4%97%D9%07%3BT%19%92%DC%40(%90%EEy%9A5%CB%B6%E8%F6%9Ac%A4%CC0%84%FF%DC%9E%CF%E7%E3%F1%88%DE4%F8%5D%C7%9F%2F%BA%DD%5E%7FI%7D%F18%DDn%BA%C5%FB%DF%97%BFk%F2%10%FF%FD%B4%F2M%A7%FB%FD%FD%B3%22%07p%8F%3F%AE%E3%F4S%8A%8F%40%EEq%9D%BE8D%F0%0EY%A1Uq%B7%EA%1F%81%88V%E8X%3F%B4%CEy%B7h%D1%A2E%EBohU%FC%D9%AF2fO%8BBeD%BE%F7X%0C%97%A4%D6b7%2Ck%A5%12%E3%9B%60v%B7r%C7%1AI%8C%BD%2B%23r%00c0%B2v%9B%AD%CA%26%0C%1Ek%05A%FD%93%D0%2B%A1u%8B%16-%95q%5Ce%DCSO%8E%E4M%23%8B%F7%C2%FE%40%BB%BD%8C%FC%8A%B5V%EBu%40%F9%3B%A72%FA%AE%8C%D4%01%CC%B5%DA%13%9CB%AB%E2I%18%24%B0n%A9%0CZ*Ce%9C%A22%8E%D8NJ%1E%EB%FF%8F%AE%CAP%19*%C3%BAEKe%AC%D1%AAX%8C*%DEH%8F%C5W%A1e%AD%D4%B7%5C%5B%19%C5%DB%0D%EF%9F%19%1D%7B%5E%86%BD%0C%95%A12%AC%5B*%83%96%CAP%19%F62T%86%CAP%19*%83%96%CA%B8Xe%BC%FE)T%19%A1%17xg%7F%DA%CBP%19*%C3%BA%A52T%86%CAP%19%F62T%86%CA%B0n%A9%0CZ%1DV%C6%3D%F3%FCH%DE%B4%B8~%7F%5CZc%F1%D6%1F%AF%84%F9%0F6%E6%EBVt9%0E~%BEr%AF%23%B0%97%A12T%86%CAP%19%B4T%86%CA%B8Re%D8%CBP%19*%C3%BA%A52huX%19%AE%CA%E5%BC%0C%7B%19*CeX%B7h%A9%0C%95%E1%BC%0C%7B%19*CeX%B7T%06%AD%CB%5E%95%2B%BF.%8F%C5%97%D5%E4%7B%EE%82%D6%FB%CF-%9C%FD%B9%CF%3By%7B%19%F62T%86%CA%B0n%D1R%19*%A3%D3%CA%B0%97%A12T%86uKe%D0%EA%B02*%3F1%99%5DB%2B%A4%B5%F8%3A%7C%BA%2B%8Co%7D%5C%EDe%A8%0C%95a%DDR%19%B4T%C66%82fA%B2%ED%DA%9FC%FC%17GZ%06%C9%E1%B3%E5%2C%1A%9FoiB%EB%96%CA%A0%D5qe4%7B%7D%FD%85%F7%5B%ED_%E0s%07%F0k%951%ECr%0D%B5C%D7-g%D1%A8%0C%EB%96%CA%A0%A52T%C6)*%C3%5E%86%CAP%19%D6-%95A%EB*%95q%F8%BB%E3%F9%AB%F6%E21%ACZ%B7%22%B7%9B%3F%02%85%CB%A2%5B%B7%BA%5E%B7%9C%97%E1%BC%0C%EB%16-%95%A12z%AC%0C%BFc%A22T%86uKe%D0%EA%B02V%DD%AD%8A%2B%8CWhe%5E%AF%CF%F5%3B%26%CE%CBh%5C%19%CE%CB%B0%F3%A4%095%A1%CAP%19*Ce%A8%0C%3BO*Ce%A8%0C%95%A12%3A%AD%8C%0A%82%7B%F0v%1F%2FD%A9%5B%9F%EE%EA%26%AF%03%CA%DF9%7B%19*Ce%A8%0C%95%A12T%86%CA%B8Ze%D8%CBP%19*Ce%A8%0C%95%D1ae%EC%F7%89I%E1%B4%D7M%D7P%8BjU%5C%BB%3E%F2%20%D8%CBP%19*Ce%A8%0C%95%A12T%C6%D5*%C3%5E%86%CAP%19*Ce%B4O%07%7B%F0W%7Bw%1C%7C%1A%8C%B3%3B%D1%EE%AA%5C%D6-%EBV%83%80%5E%D0%CA%10%5CU%2BD%E07YU%86%CAP%19*%E3%9A%95%91%D9%A0%C8%AD%5B%EDv%9E%82%FFKOee%E4%8FUe%A8%0C%95%A12T%C6%1F%A9%8C%C8%3D%5B%A5%15%FD%14%22r%E7B%9F%17l%F8%BF%ED%EAf%2B%7F%CF%ECe%D8%CBP%19*Ce%A8%0C%95%E1%93~%7B%19%F62T%86%CAP%19*Ce%A8%0C%E7%13%DA%CBP%19*Ce%A8%0CZf%8B%16-Z%B4h%D1R%19f%8B%16-Z%B4h%D1R%19%B4%CC%16-Z%B4h%D1R%19%B4%CC%16-Z%B4h%D1%A2%A52%CC%16-Z%B4h%D1%A2%A52h%99-Z%B4h%D1%A2%A52h%99-Z%B4h%D1%A2EKe%98-Z%B4h%D1%A2EKe%D02%5B%B4h%D1%A2EKe%D02%5B%B4h%D1%A2E%8B%96%CA0%5B%B4h%D1%A2E%8B%96%CA%A0e%B6h%D1%A2E%8B%96%CA%A0e%B6h%D1%A2E%8B%16-%95a%B6h%D1%A2E%8B%16-%95A%CBl%D1%A2E%8B%16-%95A%CBl%D1%A2E%8B%16-Z*%C3l%D1%A2E%8B%16-Z*%83%96%D9%A2E%8B%16-Z*%83%96%D9%A2E%8B%16-Z%B4T%86%D9%A2E%8B%16-Z%B4T%06-%B3E%8B%16-Z%B4T%06-%B3E%8B%16-Z%B4h%A9%0C%B3E%8B%16-Z%B4h%A9%0CZf%8B%16-Z%B4h%A9%0CZf%8B%16-Z%B4h%D1R%19f%8B%16-Z%B4h%D1R%19%B4%CC%16-Z%B4h%D1R%19%B4%CC%16-Z%B4h%D1%A2%A52%CC%16-Z%B4h%D1%A2%A52h%99-Z%B4h%D1%A2%A52h%99-Z%B4h%D1%A2EKe%98-Z%B4h%D1%A2EKe%D02%5B%B4h%D1%A2EKe%D02%5B%B4h%D1%A2E%8B%96%CA0%5B%B4h%D1%A2E%8B%96%CA%A0e%B6h%D1%A2E%8B%96%CA%A0e%B6h%D1%A2E%8B%16-%95a%B6h%D1%A2E%8B%16-%95A%CBl%D1%A2E%8B%16-%95A%CBl%D1%A2E%8B%16-Z*%C3l%D1%A2E%8B%16-Z*%83%96%D9%A2E%8B%16-Z*%83%96%D9%A2E%8B%16-Z%B4T%86%D9%A2E%8B%16-Z%B4T%06-%B3E%8B%16-Z%B4T%06-%B3E%8B%16-Z%B4h%A9%0C%B3E%8B%16-Z%B4h%A9%0CZf%8B%16-Z%B4h%A9%0CZf%8B%16-Z%B4h%D1R%19f%8B%16-Z%B4h%D1R%19%B4%CC%16-Z%B4h%D1R%19%B4%CC%16-Z%B4h%D1%A2%A52%CC%16-Z%B4h%D1%A2%A52h%99-Z%B4h%D1%A2%A52h%99-Z%B4h%D1%A2EKe%98-Z%B4h%D1%A2EKe%D02%5B%B4h%D1%A2EKe%D02%5B%B4h%D1%A2E%8B%96%CA0%5B%B4h%D1%A2E%8B%96%CA%A0e%B6h%D1%A2E%8B%96%CA%A0e%B6h%D1%A2E%8B%16-%95a%B6h%D1%A2E%8B%16-%95A%CBl%D1%A2E%8B%16-%95A%CBl%D1%A2E%8B%16-Z*%C3l%D1%A2E%8B%16-Z*%83%96%D9%A2E%8B%16-Z*%83%96%D9%A2E%8B%16-Z%B4T%86%D9%A2E%8B%16-Z%B4T%06-%B3E%8B%16-Z%B4%AE%A4%F5%25%C0%00%DE%BF%5C'%0F%DA%B8q%00%00%00%00IEND%AEB%60%82") repeat-y !important;
    border-left: 1px solid #BBBBBB !important;
    border-right: 1px solid #000000 !important;
    border-bottom: 1px dashed #BBBBBB !important;
}

.overflowRulerX &gt; .firebugRulerV {
    left: 0 !important;
}

.overflowRulerY &gt; .firebugRulerH {
    top: 0 !important;
}

/* * * * * * * * * * * * * * * * * * * * * * * * * * * * * * * * * * * * * * * * * * * * * * * * */
.fbProxyElement {
    position: fixed !important;
    pointer-events: auto !important;
}
</style></svg>