<?xml version="1.0" encoding="UTF-8"?>
<svg width="50px" height="73px" viewBox="0 0 50 73" version="1.1" xmlns="http://www.w3.org/2000/svg" xmlns:xlink="http://www.w3.org/1999/xlink">
    <!-- Generator: Sketch 44.1 (41455) - http://www.bohemiancoding.com/sketch -->
    <title>Page 1</title>
    <desc>Created with Sketch.</desc>
    <defs>
        <polygon id="path-1" points="0 73 50.01 73 50.01 0.72 0 0.72"></polygon>
    </defs>
    <g id="Page-1" stroke="none" stroke-width="1" fill="none" fill-rule="evenodd">
        <g transform="translate(0.000000, -1.000000)">
            <g id="Group-3" transform="translate(0.000000, 0.280400)">
                <mask id="mask-2" fill="white">
                    <use xlink:href="#path-1"></use>
                </mask>
                <g id="Clip-2"></g>
                <path d="M50.0104,73 L25.8584,46.869 C25.8584,46.869 16.6674,46.685 13.1844,46.46 C3.6734,45.845 -0.2726,39.423 0.0144,30.516 C0.0144,30.516 0.0964,17.901 0.4344,12.007 C0.9364,3.307 5.2214,0.243 13.9544,0.779 C20.6524,1.189 29.1694,2.468 33.3414,3.351 C38.7654,4.498 42.4484,7.054 44.3584,14.429 C45.3014,18.062 47.2774,28.778 48.1394,33.539 C49.1104,38.888 48.7294,44.593 41.4464,45.915 L50.0104,73 Z" id="Fill-1" fill="#FFBF00" mask="url(#mask-2)"></path>
            </g>
            <path d="M15.8564,14.2061 L16.6074,14.2061 C17.1424,14.3181 17.6244,14.5571 18.0934,14.8281 C19.5544,15.6731 21.0174,16.5141 22.4814,17.3541 C24.2014,18.3411 25.9234,19.3241 27.6444,20.3101 C29.0054,21.0901 30.3654,21.8701 31.7264,22.6501 C32.1744,22.9071 32.6174,23.1701 32.9794,23.5521 C33.6324,24.2421 33.7314,25.1601 33.2124,25.9241 C32.9284,26.3411 32.5414,26.6471 32.1094,26.8971 C30.8984,27.5961 29.6854,28.2901 28.4734,28.9861 C27.4184,29.5911 26.3624,30.1951 25.3074,30.8001 C24.1884,31.4411 23.0704,32.0841 21.9514,32.7261 C20.7684,33.4041 19.5834,34.0791 18.4024,34.7611 C17.8314,35.0911 17.2664,35.4321 16.6074,35.5641 L15.8224,35.5641 C15.6054,35.4811 15.3804,35.4141 15.1874,35.2781 C14.6974,34.9331 14.4624,34.4331 14.3444,33.8661 C14.2694,33.5031 14.2574,33.1331 14.2574,32.7641 C14.2574,27.4951 14.2574,22.2261 14.2574,16.9571 C14.2584,16.6671 14.2684,16.3771 14.3134,16.0901 C14.4574,15.1591 14.8744,14.4511 15.8564,14.2061" id="Fill-4" fill="#4E2967"></path>
        </g>
    </g>
</svg>