<svg xmlns="http://www.w3.org/2000/svg" viewBox="0 0 127.51 132.57"><title>Asset 1</title><g id="Layer_2" data-name="Layer 2"><g id="Layer_1-2" data-name="Layer 1"><path d="M.53,64.87,0,62.47l8.88-2.18Q34.13,54.14,59.38,48a2.5,2.5,0,0,0,1.72-1.38Q73.26,24.76,85.44,2.9a3.49,3.49,0,0,1,2.35-1.84,31.47,31.47,0,0,1,39.43,26.66c1.41,11.81-2.78,21.47-12,29a3.24,3.24,0,0,1-2.74.78C102,55.9,91.51,54.37,81,52.83L62.46,50.12V70.45H60V50.37Zm65.11-17.1.06.23,6.9.3c8.77.38,17.54.74,26.31,1.14,2.86.13,3.57-.19,4.84-2.8a9.43,9.43,0,0,0,.9-2.83A8.45,8.45,0,0,0,101,35.39a8,8,0,0,0-8.83-.77c-8.46,4.23-17,8.38-25.45,12.56Zm-1.3-1.84c.43-.14.56-.17.66-.22Q78.56,39,92.11,32.34a5.47,5.47,0,0,0,1.35-1,8.79,8.79,0,0,0,1.94-9.74A8.89,8.89,0,0,0,87,16.13a3,3,0,0,0-2.8,1.44c-3.88,5.66-7.86,11.26-11.8,16.89ZM96.13,31.54a12.05,12.05,0,0,1,7.47,3.19c.2.19.89.07,1.21-.14,2.18-1.43,4.36-2.86,6.45-4.42a39.55,39.55,0,0,0,9.59-9.69c.32-.48.57-1,.92-1.61-1.06-.1-1.87-.24-2.7-.26-7.13-.14-13.82,1.81-20.38,4.32a1,1,0,0,0-.54.7A11.76,11.76,0,0,1,96.13,31.54ZM105,49c1.11.28,2.28.61,3.46.84a2,2,0,0,0,1.38-.2,29.76,29.76,0,0,0,10.77-13.43,28.48,28.48,0,0,0,2.05-11.12,2.13,2.13,0,0,0-.41.77c-2.68,8.24-7.32,14.93-15.18,19.06a1.65,1.65,0,0,0-.67.74C105.91,46.79,105.47,47.91,105,49ZM87.71,13.84a8,8,0,0,0,7.49-.33,3.06,3.06,0,0,1,.61-.21c6.69-2.13,13.29-1.5,19.84.68l1.71.54c-.21-.34-.24-.43-.3-.48A29.7,29.7,0,0,0,89.95,9.67a1.47,1.47,0,0,0-.8.72C88.62,11.52,88.18,12.69,87.71,13.84ZM84.52,51.25l27.08,4a8.2,8.2,0,0,0-8-3.9,25,25,0,0,1-2.83.31c-2.74-.07-5.47-.3-8.21-.37C89.52,51.19,86.53,51.25,84.52,51.25ZM73.39,28.84l.26.16c1.21-1.72,2.38-3.48,3.64-5.16,2.68-3.56,4.82-7.51,8.05-10.68,2-1.93,2.8-6,1.47-8.38Z"/><path d="M61,80.2c-3.13,0-6,0-8.86,0a3.75,3.75,0,0,1-3.74-2.29c-1-1.9-2-3.74-3-5.63a3.28,3.28,0,1,1,5.75-3.13,35.74,35.74,0,0,1,1.77,3.33,1.85,1.85,0,0,0,2,1.19c4.13,0,8.26.09,12.39.12a5.94,5.94,0,0,1,4.31,1.82c2.31,2.29,4.66,4.55,7,6.87,1.18-1,2.28-2,3.39-3,1.68-1.45,3.71-1.4,5,.09s1,3.4-.65,4.83q-2.7,2.36-5.42,4.7c-1.7,1.46-3.38,1.45-5-.15-1.31-1.33-2.5-2.78-4-4.42-.37.85-.54,1.16-.65,1.5-1.26,3.7-2.5,7.4-3.75,11.1-1.15,3.39-3.28,4.87-6.87,4.78-4.65-.11-9.3-.26-14-.32a4.7,4.7,0,0,0-2.3.62c-3.46,2-6.86,4.11-10.29,6.15a3.58,3.58,0,0,1-4.06-.09,3.15,3.15,0,0,1-1.54-3.47,4.87,4.87,0,0,1,1.73-2.72c4-2.59,8.13-5,12.26-7.42a5.12,5.12,0,0,1,2.49-.53c3.35,0,6.69.14,10,.16.42,0,1.13-.24,1.23-.54C57.93,89.4,59.41,85,61,80.2Z"/><path d="M20.36,121c4.72.28,9.22,1.88,13.66,3.68,6.27,2.54,12.7,4.17,19.53,3.74a43.11,43.11,0,0,0,12.57-2.65,30.17,30.17,0,0,1,16.3-1.09,67.78,67.78,0,0,1,8.23,2.39c.33.1.54.61.8.93a3.06,3.06,0,0,1-1.13.17,36.35,36.35,0,0,0-22.5,1.3,45.11,45.11,0,0,1-33.7-.35,70.37,70.37,0,0,0-12.28-3.79c-7.43-1.45-14,.93-19.65,5.82a4.58,4.58,0,0,1-.78.68,3.23,3.23,0,0,1-.93.17c0-.31-.09-.69.05-.93C3.7,125.66,14,120.4,20.36,121Z"/><path d="M55.14,108a40.94,40.94,0,0,1,13.13,3.06c4.22,1.6,8.4,3.29,12.91,4a39.9,39.9,0,0,0,20.4-2c6.91-2.53,13.79-2.3,20.74-.45a39.09,39.09,0,0,1,4.42,1.55c.33.13.53.62.78,1a3.06,3.06,0,0,1-1.16.18,32.47,32.47,0,0,0-13.3-1,42.48,42.48,0,0,0-7.95,1.89c-7,2.51-14.12,4-21.59,3.31-5.29-.47-10.24-2.2-15.19-4a67.51,67.51,0,0,0-9.81-3c-7.68-1.53-14.42.72-20.31,5.77a7.67,7.67,0,0,1-1.69.84,6.25,6.25,0,0,1,.75-1.73,26,26,0,0,1,16.31-9.21C54.18,108.11,54.79,108.08,55.14,108Z"/><path d="M65.31,65.36A6.62,6.62,0,1,1,71.89,72,6.6,6.6,0,0,1,65.31,65.36Z"/><path d="M48,90.89c-3.64-.88-7.06.53-10.35,2.77-2.61,1.78-5.43,3.28-8.12,5a1.57,1.57,0,0,1-2-.09A3.65,3.65,0,0,1,28,92.25c5-2.16,10-4.17,15.08-6.11a4.18,4.18,0,0,1,2.74.21c2.5,1,4.93,2.14,7.38,3.27.29.13.49.49.73.74-.33.18-.66.5-1,.51C51.44,90.92,49.92,90.89,48,90.89Z"/></g></g></svg>