<svg xmlns="http://www.w3.org/2000/svg" viewBox="0 0 133.28 114.03"><title>Asset 3</title><g id="Layer_2" data-name="Layer 2"><g id="Layer_1-2" data-name="Layer 1"><path d="M54.07,96.8c.3-.76.5-1.3.73-1.82,1.94-4.42,3.86-8.85,5.88-13.23A3.18,3.18,0,0,1,62.4,80.2a8.79,8.79,0,0,0,6-5.3c1.91-4.64,5.5-7,10.55-7.18,1.62-.05,3.23-.29,5.37-.49L80.14,54.39C77.83,56.86,75.37,57,72.77,57c-4.89-.09-9.79-.08-14.69,0a6,6,0,0,1-5.31-2.49c-1.64-2.16-3.42-4.21-5.33-6.54L40.7,58.48c5.09,2.45,10,4.8,15,7.21a6.4,6.4,0,0,1,3.95,6.7A8.9,8.9,0,0,1,58.85,75q-4.35,10-8.76,19.88c-1.62,3.64-5.29,5.17-8.65,3.69s-4.69-5.16-3.16-8.85c1.92-4.62,3.88-9.22,5.89-14-.64-.27-1.16-.51-1.7-.71L23.59,68.13c-6.36-2.31-8.95-8.54-6-14.65q5.61-11.67,11.34-23.28c3.82-7.76,12.81-9.34,18.74-3,4.66,5,8.86,10.39,13.2,15.66a3.51,3.51,0,0,0,2.89,1.42c3.24.11,6.47.37,9.76.57a6.08,6.08,0,0,0-.11-.7c-.92-2.92.09-4.46,3.15-4.54a27.34,27.34,0,0,1,15.54,4.7c6.62,4.2,12,9.77,16.84,15.82a31.46,31.46,0,0,0,9.8,8.13,98.88,98.88,0,0,1,10.62,6.56c4.94,3.56,5.13,6.47,1.14,11.15A34.08,34.08,0,0,1,120,93.87c-1.5.78-3,1.49-4.59,2.15-2.71,1.15-5.28,2-8.49,1.32A21.42,21.42,0,0,0,91.66,99.9c-2.73,1.52-5.59,2.36-8.69,1.6a11.64,11.64,0,0,1-3.62-1.5c-4.44-2.94-9.24-4.86-14.57-4.83A65.84,65.84,0,0,0,56,96.27,17.48,17.48,0,0,0,54.07,96.8Z"/><path d="M123.47,112a18.35,18.35,0,0,1-9.16-2.47c-6.25-3.5-12.2-3.14-18.25.71-7.72,4.91-15.73,5-23.64.35-5.76-3.35-11.35-3.38-17.12,0-8.11,4.73-16.23,4.47-24.12-.56-5.67-3.61-11.38-3.94-17.29-.74A21.23,21.23,0,0,1,2.6,112.07C1.21,112,.16,111.62,0,110.14s.83-2.33,2.29-2.45a18.85,18.85,0,0,0,8.84-3.41c7.47-4.87,15.26-5.44,23.09-1,6.09,3.43,11.82,3.28,17.76-.35,7.87-4.8,15.94-4.78,23.79,0,5.89,3.62,11.59,3.7,17.6.36,7.83-4.36,15.6-4,23.08,1a17.63,17.63,0,0,0,8.47,3.37c1.51.11,2.66.71,2.51,2.41s-1.4,2.08-2.88,2C124.19,112,123.83,112,123.47,112Z"/><path d="M53.81,23.61A11.8,11.8,0,0,1,53.89,0,11.91,11.91,0,0,1,65.68,11.77,11.82,11.82,0,0,1,53.81,23.61Z"/><path d="M36.31,83.41c-2.59,5.29-4.85,10.38-.52,16.18-9.35-4-17.84-3.38-26,2-2.16-3.45-4.4-6.79-6.39-10.29C2,89,3.19,86.92,5.88,86.56c4.78-.65,9.59-1.1,14.38-1.62s9.6-1,14.4-1.52C35.08,83.37,35.5,83.41,36.31,83.41Z"/><path d="M38.13,78.6c-3.7.36-7.4.73-11.09,1.08-4,.38-8.06.69-12.07,1.13-1.34.15-2.1-.11-2.51-1.52-.57-2-1.45-3.83-2.08-5.78A3.66,3.66,0,0,1,11.65,69a4.93,4.93,0,0,1,5.34.31,22.87,22.87,0,0,0,4.82,2.76c4.88,1.91,9.84,3.63,14.76,5.42.55.2,1.08.44,1.63.65Z"/></g></g></svg>