<svg id="Layer_1" data-name="Layer 1" xmlns="http://www.w3.org/2000/svg" viewBox="0 0 202.07 55.48"><defs><style>.cls-1{fill:#2f3c6f;}</style></defs><title>text</title><g id="FyVk4w.tif"><path class="cls-1" d="M33,0c.39.94-.07,1.78-.33,2.63-1.46,4.73-3,9.45-4.42,14.18a4.9,4.9,0,0,0-.47,2.29c.75-.12.91-.79,1.29-1.21a10.48,10.48,0,0,1,5.87-3.69c4-.78,6.74,1.79,6.29,5.88A28.69,28.69,0,0,1,38.3,29a18.19,18.19,0,0,0-1.69,4.38c-.17.92-.22,1.85.69,2.44s1.74.06,2.52-.39a6,6,0,0,0,1.82-2c.37-.53.8-1,1.48-.49s.27,1,0,1.43a9,9,0,0,1-7.45,4.47c-3.68.14-5.77-2.34-5.08-5.95a29.65,29.65,0,0,1,2.22-6.11,23.68,23.68,0,0,0,1.86-6,2.28,2.28,0,0,0-.78-2.45c-.88-.59-1.75-.17-2.55.27A8,8,0,0,0,29,20.77c-3.16,4-4.76,8.61-6.17,13.39-1.49,5-.5,4.22-5.82,4.29-2.08,0-2.19-.15-1.55-2.22Q19.18,24.12,23,12c.86-2.77,1.72-5.54,2.62-8.29.41-1.24.32-2-1.27-1.86-.49,0-1.24.16-1.27-.62S23.7.38,24.33.31C25.89.14,27.48.57,29,0Z"/><path class="cls-1" d="M0,33c1.6-5.12,3.18-10.26,4.83-15.37.43-1.32.09-1.82-1.26-1.69a2.38,2.38,0,0,1-.54,0c-.57-.08-1.34,0-1.33-.85a1,1,0,0,1,1.26-1c2.7.5,3.42-1.05,4-3.29C8.34,6,8.46,6,13.5,6.11c1.27,0,1.64.37,1.19,1.61-.58,1.59-1,3.22-1.56,4.82-.37,1.09-.07,1.52,1.13,1.56.77,0,2.14-.58,2.17.77S15,16,14.16,15.9c-1.64-.13-2.34.61-2.79,2.12C9.82,23.23,8.15,28.4,6.54,33.58c-.23.73-.67,1.58.09,2.19s1.73.06,2.5-.38A6.38,6.38,0,0,0,11,33.24a.91.91,0,0,1,1.39-.33c.57.37.27.83.07,1.27A8.67,8.67,0,0,1,4,38.8c-2.51-.38-3.44-2.18-4-4.37Z"/><path class="cls-1" d="M91.95,35.08c-.55-.09-.73.29-1,.49-2.51,2-5.22,2.46-8.12,1s-4-4.11-4.11-7.16c-.2-7.72,6-15.22,13.54-16.61,2.06-.38,4-.23,5.51,1.42.54.59.73.41,1.2-.1,1.65-1.78,4-1.35,6.09-1.64.87-.12.39,1,.22,1.6-1.29,4.21-2.62,8.41-3.94,12.61-2.76,8.81-5.57,17.6-8.26,26.43a2.81,2.81,0,0,1-3.21,2.35c-5.11-.11-4.44.23-3-4.19ZM85.28,31.8c0,.36,0,.73,0,1.08C85.51,35.29,87,36,89,34.84a7.94,7.94,0,0,0,2.46-2.37c3-4.29,4.17-9.32,5.58-14.24A2.76,2.76,0,0,0,95.86,15a3.42,3.42,0,0,0-3.77,0,7.5,7.5,0,0,0-2.61,2.71A31.13,31.13,0,0,0,85.28,31.8Z"/><path class="cls-1" d="M122.3,31.13a35.75,35.75,0,0,1-3.51,4.07,8,8,0,0,1-4,2.06c-3.87.76-6.54-1.48-6.53-5.41,0-2.79,1-5.31,2-7.85a43.54,43.54,0,0,0,2.43-6.23c.19-.85.43-1.79-.51-2.26s-1.48.48-2.08,1c0,0-.07.1-.12.14-.57.5-.83,1.91-1.86,1.13s.08-1.61.51-2.28a5.89,5.89,0,0,1,2.27-2c2.17-1.12,4.45-1.52,6.51,0s1.68,3.71,1.23,5.83c-.52,2.44-1.82,4.59-2.72,6.9a12.33,12.33,0,0,0-1.09,5.09c.09,1.83,1,2.47,2.75,1.84a4.84,4.84,0,0,0,2.11-1.67A28.51,28.51,0,0,0,125,22.28c.71-2.37,1.55-4.7,2.19-7.09.42-1.58,1.16-2.41,2.9-2.24a16.66,16.66,0,0,0,2.52-.21c1.78-.11,2,.22,1.51,2-1.74,5.59-3.51,11.17-5.22,16.77-.27.89-1.22,2,.09,2.73s2.34-.05,3.18-1.05c.43-.51.77-1.08,1.19-1.6a.88.88,0,0,1,1.29-.16c.47.32.24.73.08,1.13a8.74,8.74,0,0,1-7.9,4.84C124,37.1,122.68,35.42,122.3,31.13Z"/><path class="cls-1" d="M166.55,18.55c1.23-1.37,2.16-2.57,3.25-3.59a9.77,9.77,0,0,1,2.56-1.67c2.14-1,4.38-1.19,6.39.19s2,3.61,1.72,5.75c-.44,3.34-1.95,6.32-3.34,9.34A11.34,11.34,0,0,0,175.9,32c-.09.79-.16,1.63.62,2.13a2.3,2.3,0,0,0,2.56-.13,7.85,7.85,0,0,0,2.06-2.25.93.93,0,0,1,1.4-.31c.47.32.28.71.11,1.12-1.29,3-6.06,5.45-9.26,4.69a4.34,4.34,0,0,1-3.57-5.07,20.93,20.93,0,0,1,1.83-5.85c1-2.44,2.31-4.81,2.29-7.56,0-2.18-1.06-2.83-3-1.87a6.59,6.59,0,0,0-2.07,1.71c-3.51,4.09-5.26,9-6.74,14.07s-.58,4.23-6,4.32c-1.54,0-1.88-.58-1.42-2q2.53-7.84,5-15.71c.37-1.2,1.4-2.77-.1-3.6s-2.12.84-2.86,1.82c-.36.47-.75.84-1.36.48s-.36-1-.08-1.4a8,8,0,0,1,4.54-3.67c3.75-1.11,6.34.65,6.66,4.53C166.46,17.7,166.49,18,166.55,18.55Z"/><path class="cls-1" d="M197.61,4.66c3.31,0,3.3,0,2.27,3.18-.35,1.09-.64,2.2-1,3.28s-.09,1.5,1.11,1.52c.76,0,2.18-.57,2.11.8s-1.45.77-2.26.75a2.14,2.14,0,0,0-2.51,1.71c-1.63,5.43-3.37,10.82-5.05,16.24-.2.66-.73,1.43,0,2a2.1,2.1,0,0,0,2.38-.15,6.07,6.07,0,0,0,2-2.09c.36-.56.82-.94,1.49-.5s.29,1,0,1.42A8.57,8.57,0,0,1,191,37.35a4.6,4.6,0,0,1-5.09-4.67,11.31,11.31,0,0,1,.7-4.08c1.32-4.14,2.62-8.28,4-12.41.42-1.3.4-2.1-1.32-2-.6,0-1.69.41-1.67-.73s1-.92,1.7-.83c1.85.24,2.82-.49,3.1-2.33a16,16,0,0,1,.7-2.24C194.2,4.43,193.6,4.74,197.61,4.66Z"/><path class="cls-1" d="M46,29.42c0-8.38,7.15-15.8,14.85-15.3,2.62.17,5,1,6.1,3.75,1,2.62-.1,5.17-2.88,6.87s-6,2.19-9.19,2.4a2.1,2.1,0,0,0-2.27,2,21.73,21.73,0,0,0-.37,5.22c.1,2.08,1.24,3.08,3.31,2.87a9.37,9.37,0,0,0,5.54-2.44c.4-.37.78-.76,1.2-1.11s.78-.92,1.37-.4.29,1.12-.15,1.57a11.76,11.76,0,0,1-7.7,4C49.82,39.24,46,35.52,46,29.42ZM61.56,18.76c-.06-.84.18-2.12-1.08-2.6A3,3,0,0,0,57,17.29a8.44,8.44,0,0,0-1.25,2c-.62,1.49-1.11,3-1.68,4.56-.43,1.14,0,1.5,1.15,1.53C59.12,25.44,61.53,23.07,61.56,18.76Z"/><path class="cls-1" d="M138.77,31.15c0-1.33,1-3.43,1.88-5.53a43.29,43.29,0,0,0,2.86-6.83c.29-1.16.82-2.55-.62-3.2-1.23-.57-1.89.69-2.62,1.44-.21.21-.36.48-.56.71a.94.94,0,0,1-1.3.21c-.59-.35-.32-.8-.1-1.25a8.08,8.08,0,0,1,8.43-4c2.39.57,3.71,2.78,3.32,5.65a22.76,22.76,0,0,1-2.2,6.48c-.84,1.8-1.74,3.59-2.44,5.44-.48,1.27-1.1,2.94.25,3.82,1.57,1,2.75-.33,3.83-1.45.55-.57.89-2.08,2-1.18s-.2,1.73-.73,2.4a9.3,9.3,0,0,1-6.17,3.43C141,37.81,138.71,35.73,138.77,31.15Z"/></g></svg>