<svg id="Layer_1" data-name="Layer 1" xmlns="http://www.w3.org/2000/svg" viewBox="0 0 126.98 59.34"><defs><style>.cls-1{fill:#2f3c6f;}</style></defs><title>text</title><path class="cls-1" d="M8.27,59.34a6.53,6.53,0,0,1-4.14-4.75,5,5,0,0,1,.58-3.54c.23-.42.58-.74,1.1-.49s.33.66.21,1a3.5,3.5,0,0,0,0,2.81,3.6,3.6,0,0,0,3.71,2.23A3.35,3.35,0,0,0,13,54.07a8.91,8.91,0,0,0,.3-2.48c.06-4.54,0-4.54-4.29-4.56C3,47-.77,42.61.13,36.58,1.39,28.18,9.63,21.15,18,21.3a5.16,5.16,0,0,1,3.43,1.06c.26.22.61.76.94.33a4.93,4.93,0,0,0,.9-2.51c.07-.65-.49-.67-.94-.68-1.68,0-3.35,0-5,0-.65,0-1.62.17-1.59-.89,0-.9.85-1,1.59-1,3.8,0,7.61,0,11.41,0,1.5,0,1.75.69,1.27,2-.74,2-1.44,4-2.12,6a1.72,1.72,0,0,1-1.84,1.36c-1.09,0-2.19,0-3.29,0A1.42,1.42,0,0,1,21.41,26c-1.83-3.44-5.06-4-8-1.41C9.85,27.77,8,31.94,6.81,36.42a15,15,0,0,0-.4,5.18,3.41,3.41,0,0,0,2.77,3.3c2.3.56,2.88,0,2.54-2.31a12.87,12.87,0,0,1,1-7.91,7.86,7.86,0,0,1,5.47-4.24c3.9-.92,6.83,1.64,6.49,5.62-.33,3.78-2.71,6.2-5.67,8.07-1.35.85-1.68,1.63-1.2,3.11a11.58,11.58,0,0,1,.33,6.11,8.29,8.29,0,0,1-5.27,6Zm8.53-19c0,.51,0,1,0,1.54,0,1.15.46,1.35,1.4.7a10.37,10.37,0,0,0,4.11-4.94,2.17,2.17,0,0,0-.4-2.66,2.22,2.22,0,0,0-2.53,0C17.13,36.15,16.73,38.16,16.8,40.39Z"/><path class="cls-1" d="M86.66,41.8a11.17,11.17,0,0,1-4.72,2.14,6.52,6.52,0,0,1-7.78-5.26c-.62-3.21.2-6.23,1.75-9.31,1.25,1.23.94,2.76,1.49,4.17a8.17,8.17,0,0,0-.08-5.91A4.64,4.64,0,0,0,72.5,24.5a4.37,4.37,0,0,0-4.22,3.37C66.45,33.58,64.64,39.3,62.92,45a2.39,2.39,0,0,1-2.72,2c-4.39,0-4.39,0-3.09-4.23.07-.23.09-.47.18-1-1.15.56-2.09,1.08-3.07,1.47-5.53,2.18-10.5-1.71-9.77-7.63.81-6.48,3.71-11.5,10-14a9.6,9.6,0,0,1,7.9,0c.37.18.85.67,1.16.07a4.61,4.61,0,0,0,.55-2c0-.69-.73-.6-1.22-.6-4.13,0-8.26,0-12.39,0-.58,0-1.16,0-1.74,0s-1.14.06-1.11-.72.53-.84,1.08-.89,1-.05,1.55-.05h74.31c2.65,0,2.74.11,2,2.59-.57,1.85-1.22,3.67-1.75,5.53a1.93,1.93,0,0,1-2.21,1.66,17.64,17.64,0,0,0-2.51,0,2.15,2.15,0,0,1-2.47-1.58c-.92-2.29-3.12-2.91-5.28-1.71a4.65,4.65,0,0,0-1.24.91,23.66,23.66,0,0,0-6.33,16.37c0,2.37,1.52,3.64,3.87,3.68,3.78.05,6.6-1.89,9-4.52a5.55,5.55,0,0,0,.68-.94c.48-.8,1.14-1.11,1.92-.51s.11,1.17-.22,1.65A14.57,14.57,0,0,1,110,47C102,48.32,97,42.89,98.88,35a20.83,20.83,0,0,1,4.46-8.91,13,13,0,0,1,10.59-4.7,5.47,5.47,0,0,1,3.62,1.16c1.36,1.22,1.59.43,1.92-.78.72-2.58.76-2.58-1.9-2.58-5.1,0-10.19.05-15.29,0a2.31,2.31,0,0,0-2.62,1.92c-2.47,8-5,16-7.51,24a2.31,2.31,0,0,1-2.55,2c-4.43,0-4.43.06-3.19-4.21C86.49,42.63,86.53,42.39,86.66,41.8Zm-36.6-6.86c.06,1.64-.07,2.88.46,4,.67,1.48,1.7,2.52,3.44,2.18a6,6,0,0,0,4.87-4c1.29-3.79,2.38-7.63,3.64-11.43a1.94,1.94,0,0,0-1.33-2.73c-2.34-1-4.35-.06-6.07,1.41A13.88,13.88,0,0,0,50.06,34.94Zm29.55.83c0,2.83,1.24,4.91,2.92,5.36s3.83-.7,5-2.57a6.72,6.72,0,0,0,.74-1.77q1.6-5.46,3.14-10.94a2.33,2.33,0,0,0-2.16-3.24,5.46,5.46,0,0,0-4.88,1.79C81.28,27.69,80.07,31.77,79.61,35.78Zm2.66-16.59c-3,0-6.07.12-9.09,0-1.91-.1-2.72.73-3,2.42-.08.42-.45.89,0,1.25s.74,0,1.08-.15a6,6,0,0,1,6.21.89c1.06.8,1.7.57,2.67-.12,3.52-2.49,7.35-3.34,11.52-1.77.47.18,1,.53,1.33-.16a3.83,3.83,0,0,0,.48-1.83c-.07-.63-.82-.48-1.3-.48C88.85,19.19,85.56,19.19,82.27,19.19Z"/><path class="cls-1" d="M61.92,0C67-.19,71.4,1.61,75.75,3.63c4.91,2.28,9.58,5.06,14.69,6.94a21.9,21.9,0,0,0,7,1.51c3.36.1,6.25-.78,8.29-3.64.31-.43.65-.92,1.25-.55s.35,1,.1,1.54a10.75,10.75,0,0,1-6.22,5.49c-5.91,2.16-11.7,1.31-17.34-1A50.88,50.88,0,0,1,73.68,8.1a53,53,0,0,0-7.15-4.6A12.48,12.48,0,0,0,50.4,7.6a27.81,27.81,0,0,0-3.78,7.81c-3.1,9.64-6.16,19.29-9.27,28.92-.3.93-.25,2.28-1.44,2.55a9.82,9.82,0,0,1-4.6,0c-1-.26-.47-1.19-.29-1.81q1.57-5.38,3.22-10.75c1.9-6.16,3.46-12.44,6.21-18.3C43.05,10.42,46.37,5.42,52,2.4A18.23,18.23,0,0,1,61.92,0Z"/><path class="cls-1" d="M100.24,7.84a3.49,3.49,0,0,1-3.3-3.39,3.37,3.37,0,0,1,3.24-3.22,3.25,3.25,0,0,1,3.36,3.25A3.38,3.38,0,0,1,100.24,7.84Z"/></svg>