<svg id="Layer_1" data-name="Layer 1" xmlns="http://www.w3.org/2000/svg" viewBox="0 0 272.48 298.93"><defs><style>.cls-1{fill:#948ea2;}.cls-2{fill:#b6bccc;}.cls-3{fill:#f4840b;}.cls-4{fill:#e8bb4d;}</style></defs><title>toilet</title><path class="cls-1" d="M242.89,38.74H29.76c-17.63,0-21.51-19.37-21.51-19.37V0H16.2V17.85a18.51,18.51,0,0,0,2.7,5.69,12.46,12.46,0,0,0,10.87,5.67H242.89A12.86,12.86,0,0,0,254,23.55a35.93,35.93,0,0,0,2.93-5.69V0h7.62V19.37S260.51,38.74,242.89,38.74Z"/><path class="cls-2" d="M8.26,0V19.37s3.88,19.37,21.51,19.37H242.89c17.63,0,21.66-19.37,21.66-19.37V0h7.94V20.55l-.24,1.15A41.57,41.57,0,0,1,266.52,35c-4,6.05-11.38,13.26-23.63,13.26H29.76C17.51,48.27,10.15,41.06,6.13,35A42.78,42.78,0,0,1,.32,21.7L0,20.55V0Z"/><path class="cls-3" d="M174.82,175.93l-8.76,5.41h0l1.81-8.72,8.1-39.24h0v-.15h0l0-.08-10.53,5,9.86-44.76h0l-.09-.11,0-.14-.08-.08v0L166,96.09l6.94-43.17h0l0,0h0l0,0h0v0L165,58.78l7-41h30.1l-6.89,40.44h0v0l7.9-5.86-7,43.16h0l0,0,.08,0v.07h0l9.22-3.07L198,126.45l-2.4,11h0v-.25h0l0,.14v0l0-.12v-.06h0l2.4-1,8.05-3.47v0l-7.86,3.48,8-3.64-7.95,38.71-2,9.54h0l8.79-5.51-.24,1.73-5.9,44.25h0l7-5.78-5.46,38.89,6.57-4.78,0,24.72-1-.14a99.1,99.1,0,0,0-29.25.27l0-24.28L170.19,255l5.46-38.9h0l-6.94,5.78,5.89-44.36Z"/><path class="cls-4" d="M205,175.36l-8.76,5.41h0l1.81-8.75,8.1-39.27h.24v-.06l-.14,0,0-.09-10.56,4.85,9.85-44.9h0l-.09,0,.07-.08,0,0h0l-9.2,3.08,6.91-43.17h0l0,0h0l0,0h0l0,0v0l-7.9,5.85,6.89-40.43H219s2.15.27,4.39,2.91S225,26.3,225,28.25c0,87.82,4.49,182.77,20.53,258.37-3-3.56-12.13-8.49-38.53-12.23l.08-24.72v-.06h0l-6.59,4.85,5.45-38.83h0l-6.94,5.74L204.83,177Z"/><path class="cls-3" d="M99.62,263.66l-6.93,5.13,6-41.51-7.3,6.14,6.68-48.94-9.28,6,10.73-51.3h0l0-.1-.06-.12v-.18H99.4V139l-11,5.28L98.66,97.87,99,96.36h0l-.07,0-.05-.06-.13,0h0l-9.6,3.38,7.6-46.05h0l0,0h0l0,0h0v0l-8.35,6.32,7.33-42.16h33.93l-4.55,26.63h0l0,0,4.75-3.61,3.61-2.74-7.58,46.14h0l.1,0,0,.08L135.61,81h0l-.11,0-9.55,3.24,0,0L135.51,81l.12-.12L125,128.62h0v.08l0,0,.06,0h0l1.74-.82,9.24-4.25h0L126.82,128l-1.74.8,11-5.2-1.24,5.92L125.37,175v0h0V175l5.74-3.74,3.49-2.23L127.86,218h0l.14-.11,0,.17h0l7.26-6.16-5.94,41.4,0,0v0l6.92-5.14L136,287.26c-12.17,4.86-24.2,9.5-36.58,11.07h0Z"/><path class="cls-4" d="M129.33,253.25l6-41.43-.07.06v-.08L128,218l6.68-48.72h0v-.16h-.06v-.06l-3.48,2.26L125.4,175l9.94-47.67.79-3.79h.11v0l-11.17,5.26.65-3,10-44.8h.09v0h0l-.08-.08,0,.07-.1,0,0-.17h0L126,84.19l7.53-46.09h0v0h0l-8.37,6.33,4.63-26.62h34.55l0,.16h0l.07,0,0,.13h0V18l.24-.25H172l-7,41h0v0l7.9-5.86-7,43.16h0l0,0,.08,0v.07h0l9.22-3.07L167.81,127l-2.37,11h0v-.19h-.09l0,.11v0l0-.1v0h0l2.4-1,8.05-3.48v0L168,136.85l8-3.65-8,38.65-2,9.48h-.19v.12l8.92-5.51-.17,1.77L168.67,222h0l7-5.81L170.18,255l6.57-4.79,0,24.27c-14.93,2.34-28,7.66-40.75,12.73l.29-39.13h0v0Z"/><path class="cls-4" d="M95.72,17.78,88.4,60h0v0l8.35-6.33L89.16,99.7h0l0,0,.07,0v.06h0l9.73-3.37L88.49,144l-.12.8h0l.05-.27-.1-.07,0-.1h0l.39-.14,10.74-4.86L88.73,190.86h0l-.06-.18-.09-.16h0l9.33-6-6.62,48.92h0l7.33-6.14-6,41.51,6.93-5.13-.26,34.66c-1.79.22-3.59.39-5.42.49-36.33,1.8-51.42-16-51.42-16s7.75-133.91,10.8-257.72c0-1.69-.12-2.4,1.79-5.13s5.78-2.14,5.78-2.14Z"/></svg>