<svg id="Layer_1" data-name="Layer 1" xmlns="http://www.w3.org/2000/svg" xmlns:xlink="http://www.w3.org/1999/xlink" viewBox="0 0 361.48 305.56"><defs><style>.cls-1{mask:url(#mask);filter:url(#luminosity-noclip-2);}.cls-2{mix-blend-mode:multiply;fill:url(#linear-gradient);}.cls-3{fill:#84a1a7;}.cls-4{fill:#294650;}.cls-5{fill:#e2f3fe;}.cls-6{mask:url(#mask-2);}.cls-7{fill:url(#linear-gradient-2);}.cls-8{fill:#fff;}.cls-9{fill:#758e93;}.cls-10{filter:url(#luminosity-noclip);}</style><filter id="luminosity-noclip" x="42.29" y="-8047.22" width="225.34" height="32766" filterUnits="userSpaceOnUse" color-interpolation-filters="sRGB"><feFlood flood-color="#fff" result="bg"/><feBlend in="SourceGraphic" in2="bg"/></filter><mask id="mask" x="42.29" y="-8047.22" width="225.34" height="32766" maskUnits="userSpaceOnUse"><g class="cls-10"/></mask><linearGradient id="linear-gradient" x1="40.77" y1="-1348.22" x2="128.07" y2="-1247.28" gradientTransform="translate(1423.96 289.52) rotate(-90)" gradientUnits="userSpaceOnUse"><stop offset="0" stop-color="#fff"/><stop offset="0.16" stop-color="#fcfcfc"/><stop offset="0.29" stop-color="#f2f2f2"/><stop offset="0.41" stop-color="#e1e1e1"/><stop offset="0.53" stop-color="#c9c9c9"/><stop offset="0.63" stop-color="#aaa"/><stop offset="0.74" stop-color="#848484"/><stop offset="0.84" stop-color="#585858"/><stop offset="0.94" stop-color="#252525"/><stop offset="1"/></linearGradient><filter id="luminosity-noclip-2" x="42.29" y="70.05" width="225.34" height="206.76" filterUnits="userSpaceOnUse" color-interpolation-filters="sRGB"><feFlood flood-color="#fff" result="bg"/><feBlend in="SourceGraphic" in2="bg"/></filter><mask id="mask-2" x="42.29" y="70.05" width="225.34" height="206.76" maskUnits="userSpaceOnUse"><g class="cls-1"><path class="cls-2" d="M81.51,70C57.2,92,42.29,121.51,42.29,154c0,67.85,65.07,122.85,145.34,122.85a164.11,164.11,0,0,0,80-20.29Q174.6,163.25,81.51,70Z"/></g></mask><linearGradient id="linear-gradient-2" x1="40.77" y1="-1348.22" x2="128.07" y2="-1247.28" gradientTransform="translate(1423.96 289.52) rotate(-90)" gradientUnits="userSpaceOnUse"><stop offset="0" stop-color="#fff"/><stop offset="0.91" stop-color="#fff"/><stop offset="1" stop-color="#fff"/></linearGradient></defs><title>toilet</title><ellipse class="cls-3" cx="180.74" cy="152.78" rx="180.74" ry="152.78"/><path class="cls-4" d="M182.79,17.87c88.15,0,159.6,60.4,159.6,134.91s-71.45,134.9-159.6,134.9-159.6-60.4-159.6-134.9S94.64,17.87,182.79,17.87Z"/><path class="cls-5" d="M182.79,22.49c85.13,0,154.14,58.33,154.14,130.29s-69,130.29-154.14,130.29S28.65,224.73,28.65,152.78,97.66,22.49,182.79,22.49Z"/><g class="cls-6"><path class="cls-7" d="M81.51,70C57.2,92,42.29,121.51,42.29,154c0,67.85,65.07,122.85,145.34,122.85a164.11,164.11,0,0,0,80-20.29Q174.6,163.25,81.51,70Z"/></g><path class="cls-8" d="M3.64,156a128.59,128.59,0,0,0,4.2,15.5c.76,2.44,1.68,5.11,2.8,8s2.35,5.94,3.76,9.2,3.15,6.61,4.85,10.19,3.91,7.15,6,11c2.39,3.63,4.66,7.56,7.4,11.36s5.43,7.83,8.78,11.52l4.87,5.77c1.66,1.93,3.57,3.68,5.37,5.56s3.63,3.78,5.57,5.59l6.07,5.28a177.8,177.8,0,0,0,27.24,19.09L92.37,275c.26.15.71.44.82.48l1,.48,3.9,1.91,7.83,3.84a29.67,29.67,0,0,0,4,1.7l4,1.53,8,3.06,8.28,2.43c2.77.74,5.49,1.74,8.31,2.26l8.42,1.68,4.2.84c1.4.23,2.82.35,4.23.52,5.64.62,11.22,1.46,16.79,1.52l8.3.35,8.18-.27c2.7-.15,5.4,0,8-.41l7.86-.82,3.88-.39c1.28-.18,2.53-.43,3.8-.64l7.45-1.28c4.91-.84,9.55-2.26,14.13-3.27,4.52-1.22,8.8-2.7,13-4,4.09-1.48,7.94-3.08,11.66-4.48,3.65-1.57,7-3.23,10.25-4.7a144,144,0,0,0,15.88-9.2c2.09-1.45,4.08-2.61,5.63-3.84l4-3.12,3.31-2.6-3.11,2.83-3.75,3.4c-1.46,1.37-3.38,2.63-5.42,4.19a145.63,145.63,0,0,1-15.54,10.12c-3.17,1.66-6.51,3.52-10.13,5.3-3.69,1.61-7.56,3.35-11.66,5-4.18,1.44-8.48,3.11-13,4.53l-7,1.93c-2.38.63-4.78,1.39-7.28,1.81l-7.57,1.52c-1.28.24-2.57.53-3.87.75l-3.94.51a147.49,147.49,0,0,1-16.26,1.56l-8.38.41-8.52-.22A146.19,146.19,0,0,1,154.59,301c-1.45-.18-2.91-.28-4.36-.52l-4.32-.84L137.23,298c-2.91-.53-5.71-1.54-8.58-2.29s-5.72-1.59-8.56-2.47L111.73,290l-4.17-1.63a31.77,31.77,0,0,1-4.06-1.77l-7.8-3.89-3.89-1.93-1-.49c-.54-.27-.68-.4-1-.61l-1.87-1.15a173.07,173.07,0,0,1-27.76-20L54,252.94c-2-1.88-3.75-3.93-5.6-5.86s-3.7-3.83-5.34-5.86l-4.82-6a68.55,68.55,0,0,1-4.51-6l-4.12-6c-2.65-4-4.82-8.06-7.1-11.85-2-4-4-7.68-5.64-11.37s-3.21-7.16-4.36-10.56-2.43-6.5-3.31-9.47-1.76-5.68-2.4-8.16c-1.37-5-2.07-8.93-2.57-11.63S3.64,156,3.64,156Z"/><path class="cls-9" d="M359.22,149.84a128.86,128.86,0,0,0-4.2-15.5c-.76-2.44-1.68-5.11-2.8-8s-2.35-5.94-3.76-9.2-3.14-6.61-4.85-10.19-3.92-7.14-6-11c-2.39-3.64-4.66-7.56-7.4-11.36s-5.43-7.83-8.78-11.52l-4.87-5.77c-1.65-1.94-3.56-3.68-5.36-5.57s-3.63-3.77-5.57-5.58L299.55,51A178.12,178.12,0,0,0,272.3,31.86l-1.82-1.11c-.26-.16-.7-.44-.81-.49l-1-.47-3.89-1.91L257,24a29.31,29.31,0,0,0-4-1.71l-4-1.53-8-3.06-8.28-2.43c-2.78-.74-5.48-1.75-8.31-2.27L216,11.36l-4.2-.84c-1.4-.24-2.82-.35-4.23-.53-5.64-.62-11.22-1.46-16.8-1.51l-8.29-.35-8.18.26c-2.7.15-5.4,0-8,.4l-7.87.81-3.87.39c-1.28.18-2.54.43-3.8.63l-7.45,1.29c-4.91.84-9.55,2.25-14.13,3.27-4.52,1.22-8.81,2.7-13,4-4.09,1.47-7.94,3.08-11.66,4.47-3.64,1.56-7,3.23-10.25,4.7a144.67,144.67,0,0,0-15.88,9.2c-2.09,1.45-4.08,2.6-5.63,3.83l-4,3.11-3.3,2.6,3.11-2.82,3.75-3.4c1.46-1.36,3.38-2.62,5.42-4.19A144.42,144.42,0,0,1,93.31,26.54c3.18-1.66,6.52-3.52,10.13-5.31,3.69-1.61,7.56-3.34,11.65-5,4.18-1.44,8.48-3.11,13-4.52l7-1.94c2.38-.63,4.78-1.38,7.28-1.8L150,6.42c1.28-.25,2.57-.53,3.87-.76l3.94-.5a146.74,146.74,0,0,1,16.26-1.56l8.39-.4L191,3.4a147.53,147.53,0,0,1,17.28,1.37c1.45.18,2.91.29,4.36.52l4.32.84,8.68,1.69c2.91.52,5.72,1.53,8.59,2.29s5.72,1.59,8.56,2.47l8.36,3.25,4.17,1.63a31.46,31.46,0,0,1,4.05,1.77l7.81,3.89L271,25.05l1,.48c.54.27.69.4,1.05.62l1.87,1.15a172.29,172.29,0,0,1,27.76,20l6.15,5.52c2,1.89,3.75,3.93,5.59,5.87s3.7,3.82,5.34,5.85l4.83,6a68.93,68.93,0,0,1,4.51,6l4.12,6c2.64,4,4.82,8.06,7.1,11.84,2,4,4,7.69,5.64,11.37s3.21,7.16,4.36,10.56,2.43,6.5,3.31,9.48,1.76,5.67,2.4,8.16c1.37,4.94,2.07,8.93,2.57,11.63S359.22,149.84,359.22,149.84Z"/></svg>