<svg id="Layer_1" data-name="Layer 1" xmlns="http://www.w3.org/2000/svg" viewBox="0 0 108.54 100.46"><defs><style>.cls-1{fill:#a61c0a;}.cls-2{fill:#1e1e1e;}.cls-3{fill:#fee109;}</style></defs><title>ud ja</title><path class="cls-1" d="M57.41,6.66a19.41,19.41,0,0,1,14,1c6.5,2.88,26.88,10,29.52,9.1a13.5,13.5,0,0,0,7.25-6.15s2,7.84-3.29,10.78c-5,2.79-7.18,3.72-7.12,9.24,0,1.85,2.73,7.22-4,8-5.7.66-5.37,4.11-11.49,4.77s-10.59-9-15.53-10.79-10.59,1.65-10.59,1.65l-13-11.68S46.55,10.52,57.41,6.66Z"/><path class="cls-2" d="M3.39,10.09a7.27,7.27,0,0,1,4.93,2.2c2.62.07,6.15.22,9.39.56,4.49.47,10.17,2.81,14.83,2.67a59.59,59.59,0,0,1,9.65.37,22.76,22.76,0,0,0-.28-3.11c-.12-.37,7.46-2.13,7.46-2.13a10.65,10.65,0,0,0,.18,4c2.51-.57,5.91-2.59,9.95-2.24,6.73.58,11.84,3.36,15.13,4.36,1.28.39,2.81,1.17,4.85,3.59,2.49,3,5.52,8.3,5.83,10.11.42,2.48,1.87,5.88,1,7.24a4.54,4.54,0,0,1-6.12,1.57c-2.25-1.06,1.15-6.84,1.15-6.84a61.53,61.53,0,0,0-4.68-6.34c-.83-.93-1.85-2.53-2.86-2.69-3-.46-9.11-.28-13.41-1.27,1.56,4.94,1.07,11.24,2.76,14a9.07,9.07,0,0,0,1.88,1.62h0c2.59,2.15,5.31,9.92,3.62,18.11a24.78,24.78,0,0,1-1.25,4.06A20,20,0,0,0,72.32,65a8.45,8.45,0,0,1,1.56,1.53h0c.77-.37,4.84-2,6.32,0,0,0-2,1.06-4.7,2.45,2.22,4,3.79,9.4,4.7,12.37,1.29,4.24,3.55,2.79,5.6,6.52,1.07,2,.09,4.22.44,8.8.38,5.11-3.36,4.32-4.07,2a59.17,59.17,0,0,0-5.31-12.13A163.82,163.82,0,0,0,67,73.25c-1.33.65-2.49,1.19-3.31,1.54-3.13,1.33-5.84,2.23-7.76,2.94a5.08,5.08,0,0,1-1.51.59.66.66,0,0,1-.32.06,4.59,4.59,0,0,1-3.55-.79c-1.93-1.84-1.7-6-.66-10.7s2.81-9.63,3.18-11.3a37.79,37.79,0,0,1-5.19-14.71,6.51,6.51,0,0,0-2.4-4.95C44.23,34.85,40,29.24,36.78,25.4c-4.19-1.53-12.29-4.26-15.08-4.71-3.08-.49-10.4-2.07-14.53-3a6.52,6.52,0,0,1-1.83,1.57C3,20.39,0,17.1,0,15.52,0,13.09,1.74,10.19,3.39,10.09Z"/><path class="cls-1" d="M42.35,16.54a17.69,17.69,0,0,0,.86,3c.55,1.36,1.23,2.73,0,3s-3.57-1.4-4.4-3.1c-2-4,0-6.28,1.15-6.46,1.52-.24,1.63,1.09,1.76,1.09A15.76,15.76,0,0,1,42.35,16.54Z"/><path class="cls-1" d="M48.78,14.86c.31-1.83.59-5.42,7.4-5.74,6-.28,2.83,1-1.39,5.56-1.27,1.38-2.35,5.81-3.94,6.37C49.43,21.55,48,19.32,48.78,14.86Z"/><path class="cls-2" d="M37.91,3.18a4,4,0,0,1-1.65-1.89,7.16,7.16,0,0,0,3.48-.18A10.61,10.61,0,0,1,41.84.25c3.37-1,8,1.5,8,1.5v3.7s0,.53-.08,1.33A.83.83,0,0,1,51,7.21a2.73,2.73,0,0,1-1.59,3.41,16.88,16.88,0,0,1-.4,2.22,7.23,7.23,0,0,1-5.18,3.92c-2.25.34-4.68-2.89-5-4-.6-1.86-.59-6.11-1-7.46a3.42,3.42,0,0,1-2.67-2.1S37.35,3.64,37.91,3.18Z"/><path class="cls-3" d="M47.66,39.32l.23,2.2a13.2,13.2,0,0,0,8.85.95,20.4,20.4,0,0,0,8-5L63,35.76s-3.5,3.57-6.67,4.15S47.66,39.32,47.66,39.32Z"/></svg>