<svg id="Layer_1" data-name="Layer 1" xmlns="http://www.w3.org/2000/svg" viewBox="0 0 104.88 110.12"><defs><style>.cls-1{fill:#a61c0a;}.cls-2{fill:#1e1e1e;}.cls-3{fill:#fee109;}</style></defs><title>ud ja</title><path class="cls-1" d="M72,18.7S57.55,35,47.7,39.72,15.76,56.6,9.73,53.27A14.39,14.39,0,0,1,3.6,46.8s-8.2,9.92,1.12,16.37S13.1,77.41,13.64,82.6s1.08,16.13,9.68,16.85,21.87-.9,24.38,1.08,14.7,10.9,16.31,6.28c1-2.94,2-10.72,10.58-5,7.93,5.34,17.81-18.09,21.33-30.9,1.85-6.74,6.93-41.58,6.93-41.58Z"/><path class="cls-2" d="M103.25,24.33c-1.14-.94-5.87-5.63-5.87-5.63.39-.91.76-1.83,1.11-2.71a7.84,7.84,0,0,0,2.77-3.91c.69-1.87,1.69-4.26,1.56-6.69,0,0,.16-5.56-7-4.71-4.81.57-6.24,5-6.47,7.22-.45,4.39-3.41,4.88-3.41,4.88s.51.68,2.56.54l-1.22,2.1s-6.3.39-7.8.35c-6.44-.19-9.95,5-11.89,10.36-1,2.89-1.06,5.36-2.56,6.48-1.3,1-3.45,2.3-4.27,4.33-.88,2.19-1.85,6.34-2.69,9s-2.72,5.88-4,7-2.73,7-.53,7.43,5.1-2.56,5.89-3.92,1.88-6.69,1.88-6.69,4.84-7.08,7.55-10.12a70,70,0,0,0,6.69-9.3s0,9.62-3.62,12.88a27.42,27.42,0,0,0-6.56,9.89c-1.09,2.6-7.37,17.49-10,21.62S49.46,92.32,47.7,93.15s-4.43-.13-5.22,1.18.06,4.68-.34,8.3.11,7,.92,7.6c1.41,1,2.54.43,4.19-1.3.68-.71,5.45-8.26,6.61-9.78C62.56,87.76,65.49,88,73.58,78.93A115.89,115.89,0,0,0,83,66a37.3,37.3,0,0,0,2.78-4.81,18.83,18.83,0,0,0,2.09,4.88c1.38,1.81,3.5.13,3.25-3.47S88.6,55.66,89.23,55a54.52,54.52,0,0,0,5.62-7.51c1-1.69,2.61-4.83,3.7-7,1.63-2.15,3-4.06,4-5.27C104.62,32.46,106.83,27.28,103.25,24.33Z"/><path class="cls-1" d="M76.23,16.08s4.7,2.79,7.12,2.62,3.92-3.29,3.92-3.29a6,6,0,0,0-3.21-.94c-1.58,0-1.83,1.17-3.29.75C77.74,14.35,76.23,16.08,76.23,16.08Z"/><path class="cls-3" d="M71.18,43.88a19.15,19.15,0,0,0,8,7.88c5.75,3,9.14,2.63,9.14,2.63L90,50.82s-5.86-.58-9.59-2.81-6.82-7.22-6.82-7.22Z"/><path class="cls-1" d="M97.4,18.7s-.51,3,.41,4.56c1.42,2.36,5.87,1.46,5.87,1.46s.17-1.27-1.76-2.4c-.45-.26.06-1.44-1.42-2.19C98.72,19.24,97.4,18.7,97.4,18.7Z"/></svg>