<svg id="Layer_1" data-name="Layer 1" xmlns="http://www.w3.org/2000/svg" viewBox="0 0 107.96 106.4"><defs><style>.cls-1{fill:#a61c0a;}.cls-2{fill:#1e1e1e;}.cls-3{fill:#fee109;}</style></defs><title>ud ja</title><path class="cls-1" d="M75.48,14.35c-3.28,2.32-40,32.92-46,39.87-8.94,10.41-28,1.6-28,1.6s-3.77,12.69.73,13.75,10-1.5,10.67,3.06S8.25,83.09,11.57,85.15,19.51,83,21.91,86.86C24.5,91,26.06,92,29.52,93.22c3.69,1.25,5.57,0,11.27-2.39,1.94-.81,22-31.23,26.52-35.53s22.9-31.85,22.9-31.85Z"/><path class="cls-2" d="M81.53,60.76A93.2,93.2,0,0,0,80,46.37c.67-1,1.37-2.08,2-2.8.15-.19.36-.43.58-.68,1.5,2.55,3.66,6.38,4,7.8.54,2.21-.51,4.39,2.76,5.16,2.16.51,4.77,0,4.34-2a7.55,7.55,0,0,0-2.29-4.53c-2.07-2-3.63-8.39-4.23-11.17,1.17-1.16,2.06-2,2.06-2s6.3-5,6.6-10.15a30.26,30.26,0,0,0-.91-9.11,7.16,7.16,0,0,1,2-1.64c.85-.39,2.25,1.32,3,1.86,1.64,1.16,1.93-1.23,2.72-1.16.52,0,.33-.32.32-.6.14-.12.53-.06.66-.16.32-.26,0-.56.12-.71.33-.38,1.58.15,1.67-.37.16-.9-.57-3.11-.14-3.56a4.76,4.76,0,0,0,1.43-2.83c0-.12,0-.24,0-.35h0c3-2.11.31-4.74-2.06-6C100.38-.92,98.2.37,98.2.37s-2.5.32-4.08,4.44a45.91,45.91,0,0,0-1.78,4.84,11.62,11.62,0,0,1-3.89,3.14c-.39,0-.79.09-1.2.15-2.18-.73-7.28-2.16-10.66-1-2.47.86-4.79,3.16-7.29,5-2.74,2-5.36,3.85-7,5.08-1.17.85-1.1,2-.89,3.25.51,3.14,2.45,8,1.89,12A20.87,20.87,0,0,0,63,41.14a12.56,12.56,0,0,0-1.31,1c-2.13,2-5.93,7.19-9.37,19.86a35.37,35.37,0,0,1-3.71.27c-2.3,0-4.09-.95-6.33-1-2.46-.1-2,1.76.47,3.39,1.6,1,4,2.51,6.5,4C47,71,43.5,74,42.58,76.72c-1.35,4.08-4.1,12.82-4.47,15.22s-6.4,11.49-4.73,13.18,4.2,1.52,6.3.52.71-9.57,2.32-12.18c1.33-2.16,11.62-15.55,15.13-20.11,3.7,2.33,11.82,7.65,15.13,9.35,3.54,1.82,4.8-.78,5.71-4.33S81.51,67.46,81.53,60.76ZM68.84,37.53c-.32-2.77-.5-9.9-1-12a25,25,0,0,0,7.46-1.23c-.43,2.05-.77,4.13-1.08,5.65-.41,2.06-2.09,4.68-3.75,6.89l-1.65.85ZM64.14,68.9a12.94,12.94,0,0,0-3-.74l6.76-8.86c.63,5.47,2.21,13.38,2.21,13.38A50.24,50.24,0,0,0,64.14,68.9Z"/><path class="cls-3" d="M68.84,37.53s3.13,6.1,6,8.12a8.88,8.88,0,0,0,5.28,1.83l.31-1.88a11.28,11.28,0,0,1-4.86-2.74C74.11,41.59,71,36.22,71,36.22Z"/><path class="cls-1" d="M87.59,16.39c-1-4.15-7.49-5-7.49-5s5.82-2.19,8.47,0,3.93,5.4,1.76,7.42C89.51,19.57,87.78,17.17,87.59,16.39Z"/><path class="cls-1" d="M94.78,16.66a10.35,10.35,0,0,1,.43,3.8c-.14,1.22-.34,3.11.54,2.57a3.3,3.3,0,0,0,1.19-3.51,20,20,0,0,0-1.11-3.69Z"/></svg>