<svg id="Layer_1" data-name="Layer 1" xmlns="http://www.w3.org/2000/svg" viewBox="0 0 109.05 113.92"><defs><style>.cls-1{fill:#a61c0a;}.cls-2{fill:#1e1e1e;}.cls-3{fill:#fee109;}</style></defs><title>ud ja</title><path class="cls-1" d="M33.87,19s20,13.58,27.66,16,20,.59,26-.16c4.11-.51,12.19-1.37,16.42,2.29s5.06,5.6,5.06,5.6-8.71-1.55-12.36,1.87c-2.7,2.53-.58,8.13-3.57,8.62S84.92,49.8,83.92,51s-.5,4.26-3.48,3.66a33,33,0,0,0-10.2,0C59.7,57,47,52.49,38,43.21s-13.5-21.28-13.5-21.28Z"/><path class="cls-2" d="M0,44a29.43,29.43,0,0,1,1-6.26c.5-1.81,7-12.26,10.5-15a16,16,0,0,1,2.89-1.47,8.5,8.5,0,0,0-.85-5.4c-.53-.78-2.67-.06-3.61,0-2,.12-1-2.06-1.74-2.42-.48-.23-.12-.44,0-.68-.06-.18-.43-.33-.49-.49-.14-.39.31-.47.28-.66-.08-.49-1.45-.7-1.25-1.2.35-.85,2.17-2.35,2-3a4.68,4.68,0,0,1,.28-3.16L9.3,4h0c-1.47-3.37,2.28-4.19,5-4,4.84.31,6,2.55,6,2.55s2,1.58,1.16,5.92a45.12,45.12,0,0,1-1.05,5.05A11,11,0,0,0,22,18a7.66,7.66,0,0,1,5-2,25.49,25.49,0,0,1,9.66,1.37C38.64,18,46,19.54,48,20.39c1.65.69,1.72,2,3.32,4.31,2,2.87,3.82,13,4.71,14.71s2.07,4.85.13,6.35c-2.17,1.68-5-.21-6.33-2.78-.56-1.1-.22-3-.17-4.1.08-1.87.44-3.34-.36-4.5-2.62-3.81-4.55-7.25-4.55-7.25L33.63,25.88a78.3,78.3,0,0,1,.28,10.94c-.09,1-.62,4.27,1.48,5.68a28.17,28.17,0,0,1,8.11,8.72c4.93,8.73,4.82,19.55,5.65,22.62s3.34,3.42,4.7,8.25c1.57,5.57.36,14.18,3.71,18.94,1.17,1.66,2.87,3-1.52,7-.36.33-1,3.22-2.74,5.14-.8.87-2.05.7-3.21.77a5.86,5.86,0,0,1-3.6-.69c-1.57-1.3,1.48-2.14,2.74-4.6a18.73,18.73,0,0,0,1.57-7.67c-.15-3.68-3.66-11.09-6.16-16.78-.69-1.58-1.54-3.38-2.17-4.71-5.62.45-13.94,1.46-15.84,1.63-3.71.35-11.05.46-12.17-2.36-1-2.6.29-6,2.48-12.49C18.57,61.45,21.7,53,23,49.48c0,0-4.48-5.86-5.85-7.9-1.26-1.88-4.64-7.76-4.64-7.76s-1.26,1.53-2.95,3.95c-1.19,1.7-3.06,2.36-3.14,4.56-.07,1.91-1.3,5.63-2.07,10.49-.17,1.06,2.74,2,3.32,2.85S7.87,61.27,5,61.19C3,61.14-.26,57.28.07,54.55.26,53-.13,48.13,0,44Zm27.4,29.68c3.39.36,8,1.32,9.68,1.32.92,0,1.79-.79,2.7-1.4-1.72-3.9-4.11-9.24-6.11-12.74-3,5.66-10.73,13-10.73,13A17.09,17.09,0,0,1,27.45,73.71Z"/><path class="cls-1" d="M24.25,17c-1.2.67-2.53,1.77-3,4.91s-2.15,1.46-2.32-1c-.12-1.71.51-4.07,2.2-5.16S27,16.1,27,16.1A15.09,15.09,0,0,0,24.25,17Z"/><path class="cls-1" d="M14.62,21.05a8.78,8.78,0,0,0,.21,2.85c.27,1-.37,1.52-1.31.41S11.83,23,12.15,21.43,14.57,19,14.57,19A8.07,8.07,0,0,1,14.62,21.05Z"/><path class="cls-3" d="M35.4,42.5S31,47.9,27,49.48s-4.55,1.34-4.55,1.34L22,48.28a9.68,9.68,0,0,0,4.55-1.61L34.2,41Z"/></svg>