<svg id="Layer_1" data-name="Layer 1" xmlns="http://www.w3.org/2000/svg" viewBox="0 0 120.74 107.67"><defs><style>.cls-1{fill:#1e1e1e;}.cls-2{fill:#fee109;}.cls-3{fill:#a61c0a;}</style></defs><title>ud ja</title><path class="cls-1" d="M119.78.76c-1.45-1.7-4.88-.13-7,.51S102.77,8.37,99.22,11.4c-3,2.54-9.69,5.52-13.36,7.16a4.67,4.67,0,0,1-.09-1c.06-.94,2.23-1.36,3.06-1.78,1.79-.9-.18-2.28.26-2.95.29-.44-.12-.44-.38-.56,0-.19.2-.49.17-.66-.08-.41-.5-.25-.57-.44-.18-.47.88-1.32.46-1.65-.72-.57-3-1-3.2-1.56a4.76,4.76,0,0,0-1.82-2.59l-.29-.21h0c-.44-3.64-4-2.51-6.26-1-4,2.65-3.84,5.18-3.84,5.18s-.9,2.35,2,5.69a45.88,45.88,0,0,0,3.43,3.85c.07.13.12.27.18.4-4.81,1.69-7.1,8.46-7.11,14.19,0,4.86-3,10.94-5.56,15.15a37.77,37.77,0,0,0-8,3.5c-4.57,3-6.45,9.09-9,12.9-2.07,3.16-4.44,9.6-6.05,10.18a21.56,21.56,0,0,0-10.93,7.91c-4.54,6.26-10.28,10-12.85,10.13-2.41.14-3.33.49-4.14,3.54S12.84,102,11.46,105s-.17,3.84,4,.42c1.64-1.33,5-4.42,10.9-8.85,9.31-6.94,21.42-14.46,24-17.15C58,71.59,77,54.22,77,54.22h0c4-3.66,8.6-8.54,11.49-13.79a17.31,17.31,0,0,0,1.87-12.55c2.06-2.05,4.13-4.06,5.69-5.45,3.3-2.91,8.13-5,11.62-8.83s6-6.85,6-6.85,4.41,1,5.82-.22A4.39,4.39,0,0,0,119.78.76Z"/><polygon class="cls-2" points="65.3 48.98 72.95 57.94 77 54.22 67.23 47.01 65.3 48.98"/><path class="cls-3" d="M84.1,19.36s-7.53,4.18-10.45,9.1c-5.56,9.38-15.72,19.28-21.53,23.29C33.35,64.7,27.57,63.07,18.56,74c-4.61,5.59-5,15.22-5,15.22S-3.6,84.79.69,72.66s21-21.35,28.62-23.48S50.14,38.62,58.65,27.84C65.85,18.72,75.44,16.12,84.1,19.36Z"/></svg>