<svg width="21" height="40" viewBox="0 0 21 40" xmlns="http://www.w3.org/2000/svg"><title>Page 1</title><path d="M.046 0C.036.153.02.307.02.462.018 3.456.023 6.45.01 9.446c0 .336.107.574.352.81 3.175 3.047 6.335 6.11 9.513 9.152.293.28.28.42-.005.692-3.168 3.036-6.32 6.088-9.484 9.125-.27.255-.376.515-.376.878.013 2.97.006 5.94.012 8.908 0 .143-.088.354.09.413.132.045.232-.14.33-.24 6.6-6.362 13.197-12.723 19.795-19.086.094-.09.194-.178.29-.267v-.155c-.115-.107-.232-.213-.345-.32C13.607 13.016 7.032 6.674.458.332.345.224.238.11.126 0h-.08z" fill="#F4F4F4" fill-rule="evenodd"/></svg>
