<svg width="20" height="20" viewBox="0 0 20 20" xmlns="http://www.w3.org/2000/svg" xmlns:xlink="http://www.w3.org/1999/xlink"><title>Page 1</title><defs><path id="a" d="M0 13.736V.686h19.372v13.05z"/></defs><g fill="none" fill-rule="evenodd"><g transform="translate(0 -.685)"><mask id="b" fill="#fff"><use xlink:href="#a"/></mask><path d="M19.372 8.93v1.538c-.107.056-.1.168-.128.263-.277.91-.8 1.648-1.578 2.2-.945.668-2.013.857-3.143.795.013-.05.023-.1.04-.146 1.117-3.047-.973-6.266-4.216-6.495-2.642-.187-5.023 2.012-5.063 4.664-.01.687.157 1.334.375 1.974-.684-.017-1.369.045-2.05-.055C1.847 13.41.43 12.057.106 10.315c-.03-.154.006-.327-.106-.463V9.36c.053-.028.057-.08.06-.13.118-1.257.762-2.186 1.813-2.84.25-.153.344-.308.348-.6.047-2.778 3.105-4.557 5.546-3.23.188.103.29.1.432-.073.986-1.194 2.26-1.78 3.807-1.802 2.92-.043 5.207 2.28 5.09 5.192-.008.21.06.313.24.4.525.25.954.622 1.323 1.073.38.466.552 1.02.714 1.58" fill="#FBBF34" mask="url(#b)"/></g><path d="M13.428 11.13c-.03-1.838-1.582-3.34-3.42-3.313-1.774.028-3.3 1.57-3.284 3.313.018 1.933 1.57 3.42 3.53 3.388 1.698-.028 3.203-1.635 3.174-3.39m1.095 1.912c-.64 1.354-1.645 2.298-3.1 2.724-1.205.354-2.367.187-3.483-.348-.182-.088-.272-.074-.408.065-1.054 1.074-2.12 2.135-3.173 3.21-.268.272-.556.496-.916.625H2.83c-.012-.016-.02-.042-.034-.046-.95-.252-1.125-1.493-.37-2.2 1.075-1.005 2.082-2.084 3.118-3.13.393-.4.393-.4.114-.9-.218-.64-.385-1.288-.375-1.976.04-2.652 2.42-4.85 5.063-4.664 3.244.23 5.335 3.45 4.217 6.494-.017.047-.027.097-.04.146" fill="#FFF"/></g></svg>