<svg id="Layer_1" data-name="Layer 1" xmlns="http://www.w3.org/2000/svg" viewBox="0 0 1929.3 93.02"><defs><style>.cls-1{fill:#f97408;}</style></defs><title>orange</title><path class="cls-1" d="M-5.91,72c9-1.5-16.5-13.5,60,1.5C114.8,85.41,179.27,92.39,241.16,93c76.1.74,151.61-12.48,227.74-11.19S621,98.88,696.51,89.88c36.9-4.4,73-14.66,110-18.22,68-6.54,135.34,9.69,203.11,12.43,33.67,1.36,67.86,4,101.38,4.35,36,.42,73.8-8.69,109.67-12.61,76-8.32,152.62-13.48,229.11-9.89C1529,69.67,1607.63,82.75,1686.84,88c60.11,4,121.19,3.43,180.34-9.11,13.79-2.92,31-5.21,43.59-11.66,12-6.12,11.45-5.69,12.23-19.41.9-15.83,0-32,0-47.83H-2.91Z"/></svg>