<svg xmlns="http://www.w3.org/2000/svg" xmlns:xlink="http://www.w3.org/1999/xlink" viewBox="0 0 2858.98 2000"><defs><style>.cls-1{fill:none;}.cls-2{clip-path:url(#clip-path);}.cls-3{fill:#2a264b;}.cls-4,.cls-6,.cls-7{fill:#0e062a;}.cls-10,.cls-11,.cls-12,.cls-4,.cls-5,.cls-6,.cls-9{fill-rule:evenodd;}.cls-5{fill:#0e043f;}.cls-12,.cls-6{opacity:0.45;}.cls-8{opacity:0.56;}.cls-9{fill:#18172b;}.cls-10{fill:#ba9600;}</style><clipPath id="clip-path" transform="translate(-4.91)"><rect class="cls-1" y="0.54" width="2861.5" height="1609.59"/></clipPath></defs><title>Asset 1</title><g id="Layer_2" data-name="Layer 2"><g id="Layer_1-2" data-name="Layer 1"><g class="cls-2"><rect class="cls-3" x="1.84" width="2857.14" height="1337.87"/><path class="cls-4" d="M1443.72,1324.07c.92-.1,16.86-8.2,55.42-18,5.63-1.42,13.77-4.87,22.38-5.74,11.06-1.13,22.9.3,31.11-2.23,11.48-3.55,23.52-12.1,35.86-15.89,21.18-5.63,42-21.23,63.61-17.07,16.28,3.12,36.06-4,52.68-10.7,7.78-3.12,17.16-24.28,24.79-27.08,10.21-3.75,16.44-15.91,25.7-18.35,10.35,6.13,42,.39,57.44-8,16.54-9.68,27.73-4.73,39.07-12.45,4.21,1.86,12.93-2.3,19.3-5.12,8.55-5.67,14.78-5.52,17.43,8.47,5.43,10.77,11,8.53,23.69,12.81,10.4,6.54,30.52,12.89,43.18,18.39,9.74,4.22,18.39-10,30.15-7,15.14,3.83,29,21.63,52.67,14.46,5,.14,8.6,9.17,13.8,9.93,6.69,1,15-6.5,20.47-8.75,5-2.47,12.46-9.19,14.61-18,1.89-7.69,5.4-10.33,11.16-12.59,3.83-1.86,8.48,8.51,12.23,7.43,4.82-1.41,7.24-2,11.47-2,22.61.11,41.87,3.56,57.62-6.84,20.13-.35,34.17-20.3,47.5-31.31,5.58-4.61,11-14.06,17.29-17.76,3.78-2.21,7.88,1,12.52-.8,11.14-5.53,24.62-23.93,34.38-16.74,5.22,3.85,13.51,14.13,24.12,11.91a149.24,149.24,0,0,1,30.33,9.75s12.8-.21,30.31-2.22c11.24.29,24.29,12.27,36.64,8.94,7.42-2,13.49-17.46,21.87-22,11.75-4.5,23.92-11.8,32.68-12.26,5.26-.28,8.17,5.37,12.16,5.85a19.9,19.9,0,0,1,14.94,9.64c9.12,4,19.94,2.74,29.05,6.74,4.55,2,7.34,6.8,11.89,8.8s10.88,1.19,15.44,3.18c10.08-3.84,19.33-25,31-27.9,10.77-2.69,26.32-6.62,39-13,9.38-4.39,20.52-16.17,30.07-18.4,7.68-1.79,15.69-10.33,23.22-10,4.52.19,8.3,10.32,13.33,8.14a103.62,103.62,0,0,0,32,4.53c11.29-14.92,19.6-24.66,25.71-18.32,2.11,2.2,9,1.17,11.72,3,8.15,5.63,14,12.6,22.79,12.76,11.75.23,46-21.33,67.07-2,3.45,3.17,8.46,4.23,13.9,4.76v400.46c-131-5.77-352.46-17-582.78-35.39C1915.22,1441.38,1530.84,1394.76,1443.72,1324.07Z" transform="translate(-4.91)"/><path class="cls-5" d="M1282.91,1317s43.45,7.83,73.68-2,26.46-7.83,58.56-2,39.68,7.82,71.79,2,18.9-7.83,41.57-13.7,17-13.69,35.89-17.59,28.34,3.9,28.34,3.9q12.28-5.85,24.55-11.73s11.34,5.87,30.22,13.69,30.23,9.78,30.23,9.78,15.1,3.91,43.46,7.81,47.23-13.69,68,3.92,13.22,13.69,32.12,19.56,26.44,3.91,45.33,13.7,62.35,19.55,62.35,19.55,13.22-7.83,35.89-21.51,20.79-19.57,54.78-33.26,20.79-17.6,51-17.6,11.34-9.78,32.13-17.6,13.22-33.26,37.79-17.61,7.54,7.82,30.22,7.82,22.67-9.78,41.56-13.69,18.89-19.56,43.45-17.61,62.35,3.91,62.35,3.91-1.9,19.56,32.12,15.64,26.44,17.61,51,17.61,23.08,6.62,26.86,22.28c10.66,17.43,37.23,25.71,31.86,24.32,0,0-4.6-.93,18.09-6.79s15.77-8.52,36.54-18.29,43.46-27.39,43.46-27.39,18.89-3.92,47.23-13.69,22.67,9.77,51,7.82,28.32-2,49.11-5.87c5.68-1.07,26.57,3.53,55.37,6.68,17.29,1.89,39.42-.86,57.26,5.86,9.76,3.67,28.75-6.9,38.19-3,1.42.59,2.85,1.14,4.29,1.66v336.72c-295.46-44.79-1842.48-72.56-1882.08-70.93-47.23,2,141.93-138.1,104.15-128.32S1197.91,1336.55,1282.91,1317Z" transform="translate(-4.91)"/><path class="cls-4" d="M1963.91,1347.55c-1.27-.1-23.47-7.16-77.14-15.74-7.82-1.25-19.17-4.26-31.13-5-15.4-1-31.87.26-43.31-2-16-3.09-32.74-10.58-49.92-13.88-29.48-4.93-58.42-18.56-88.54-14.93-22.67,2.73-50.2-3.51-73.32-9.35-10.82-2.73-23.9-15.62-34.51-18.05-14.22-3.28-29.22,16-42.12,13.9-14.38,5.36-58.38.34-79.93-7-23-8.47-38.6-4.14-54.4-10.88-5.85,1.61-5.32-7.62-14.19-10.1-11.9-4.95-26.9-34.75-30.58-22.52-7.58,9.4-15.34,7.46-33,11.2-14.49,5.72-42.49,11.26-60.11,16.06-13.55,3.69-25.6-8.73-42-6.12-21.07,3.36-40.36,18.91-73.3,12.65-7,.12-12,8-19.21,8.69-9.31.85-20.83-5.67-28.48-7.64-7-2.16-17.35-8-20.34-15.7-2.64-6.72-7.52-9-15.53-11-5.31-1.63-11.81,7.43-17,6.49-6.71-1.22-10.07-1.74-16-1.73-31.46.08-58.28,3.1-80.2-6-28-.32-47.56-17.75-66.12-27.37-7.75-4-15.3-12.29-24.06-15.52-5.27-1.94-11,.85-17.42-.7-15.52-4.83-34.27-20.92-47.87-14.64-7.26,3.36-18.8,12.34-33.57,10.41a299.56,299.56,0,0,0-42.21,8.53s-17.83-.19-42.2-1.95c-15.65.26-11.21,30.73-28.41,27.82-10.32-1.75-18.78-15.27-30.44-19.21-16.35-3.93-33.3-10.3-45.49-10.71-7.31-.25-11.35,4.68-16.93,5.11-14.86,1.13-20.8,8.43-20.8,8.43-12.68,3.49-27.74,2.4-40.43,5.89-6.34,1.74-10.22,5.95-16.56,7.7s-37.73-19-44.07-17.23c-14-3.37-26.91-21.84-43.2-24.39-15-2.36-36.63-5.78-54.29-11.32-13.06-3.84-28.56-14.13-41.87-16.08-10.7-1.57-21.84-9-32.32-8.75-6.29.18-11.56,9-18.54,7.12a222.79,222.79,0,0,1-44.58,4c-15.72-13-27.28-21.56-35.77-16-3,1.93-12.55,1-16.33,2.67-11.34,4.92-19.46,11-31.71,11.15-9.66.11-33.86,6.62-54.56,3.29-16.1-2.6-27.7-15.54-44-13.79l-1,.11V1506c183.74-5.14,485-14.87,798.08-30.57C1307.66,1450.08,1842.64,1409.34,1963.91,1347.55Z" transform="translate(-4.91)"/><path class="cls-4" d="M2358.82,1384.37s6.3-19.57,20.7-10.87,15.72,15.42,15.72,15.42,4.5-34.5,20.34-32.8,16.14,22.25,16.14,22.25,6-23.66,21.16-19.16,17,22.21,17,22.21,3.52-19.39,14.69-18.73,15.48,11.33,15.48,11.33-12.22-34.8.24-43.81,16.11,5.8,16.11,5.8,14.54-5,19.57,17.91-4.5,34.54-4.5,34.54,7.75-26.52,19.24-4,15,34.66,15,34.66-5.34-28.43,7.41-32,14.6,11.39,14.6,11.39-.13-34.22,11.34-28.09,14.43,25.1,14.43,25.1.51-23.32,11.83-19.94,8.56,20,8.56,20,6.83-26.45,24.33-12.49,1.82,47.78,1.82,47.78,10.11-33.5,22.07-19.17,15.21,22.3,15.21,22.3-6.66-18.76,9.59-26.63,19,8.39,19,8.39-7.44-32.39,6.27-36,13.94,16.91,13.94,16.91,3.3-23.49,17.63-16.17,6.12,25.64,6.12,25.64,4.21-23.58,19-8.06a36.1,36.1,0,0,1,9.37,33.61s9.68-17.21,22.92-22.9c8.63-3.73,15.15,9.13,18.27,13.46,5.75,7.88,17.76,15.76,22.61,22.91v9.54c-19.07,10.62-216.83,43.55-269.34,29.77C2538.08,1470.16,2278.08,1399.1,2358.82,1384.37Z" transform="translate(-4.91)"/><path class="cls-5" d="M765.39,1409.29s1.16-8.94,7.42-9.36,7.59,1.13,7.59,1.13.27-10,7.6-11.72,8.45,6.24,8.45,6.24,3-6.31,8.13-6,6.17,7.19,6.17,7.19,1.9-13.74,10.44-15.1,8.71,9.13,8.71,9.13,3.68-2.93,8.09,2.21,3.2,13.5,3.2,13.5,1.88-9.65,8-7.7a13.59,13.59,0,0,1,8.17,7.46s-2.27-11.9,4.46-15.9,8.58,3.3,8.58,3.3-.87-13.88,4.51-15.32,8.24,3.94,8.24,3.94-1.13-16.75,7.8-18.18,8.76,22.54,8.76,22.54,1.86-5.55,9.37-.9,1.55,21.36,1.55,21.36,4-8.23,9.16-3.22,4.83,9.75,4.83,9.75,1.33-11.31,6.77-12.18a19.33,19.33,0,0,1,9.52.81s-5.14-13.2,1.1-18.28,8.45,6.25,8.45,6.25,1.72-11.39,8.09-10.64,4.53,15,4.53,15,7.58-7.64,12.79,2,2.74,17.09,2.74,17.09,2.48-7.4,8.18-5.39a12.16,12.16,0,0,1,7.34,7s-4.73-8.59.5-11.76,8-3,8-3-9-7.9-5.41-16.07,11-.59,11-.59-2-17.2,6.4-16.19,6.71,21.7,6.71,21.7,4.82-20.62,13.66-14.45,3.49,21,3.49,21,6-7.38,9.59,1.4.51,18.6.51,18.6,22.78-9.48,29.34,6.41,32.25,25.21,14,36.89-411.94,16.48-414.33-14.1c-.25-3.14,7-5.15,14.69-10.37,8.75-5.94,18.68-21.13,22.38-17.52,2.58,2.52,5.25,11.08,13.16-3.38,4.9-9,15.51.38,17.26-1C750,1409.13,757.3,1409.12,765.39,1409.29Z" transform="translate(-4.91)"/><path class="cls-5" d="M1041.83,1418s1.3-10.26,8.48-11,8.71,1,8.71,1,.28-11.4,8.68-13.67,9.71,6.82,9.71,6.82,3.39-7.32,9.31-7.11,7.1,8,7.1,8,2.14-15.77,11.94-17.63,10,10.11,10,10.11,4.21-3.48,9.28,2.23,3.72,15.31,3.72,15.31,2.12-11.09,9.11-9.08a14.9,14.9,0,0,1,9.38,8.21s-2.63-13.51,5.08-18.31,9.85,3.46,9.85,3.46-1-15.82,5.13-17.67,9.46,4.2,9.46,4.2-1.34-19.09,8.9-21,10.1,25.42,10.1,25.42,2.12-6.4,10.75-1.39,1.85,24.34,1.85,24.34,4.55-9.54,10.51-4,5.57,10.94,5.57,10.94,1.49-13,7.73-14.14a21.93,21.93,0,0,1,10.93.58s-5.93-14.87,1.2-20.9,9.71,6.81,9.71,6.81,1.94-13,9.25-12.44,5.24,17,5.24,17,8.67-9,14.68,1.87,3.2,19.4,3.2,19.4,2.82-8.54,9.36-6.46a13.35,13.35,0,0,1,8.44,7.73s-5.44-9.64.54-13.44,9.17-3.75,9.17-3.75-10.34-8.71-6.25-18.16,12.59-1.07,12.59-1.07-2.3-19.57,7.3-18.73,7.76,24.53,7.76,24.53,5.46-23.73,15.62-17,4.08,23.91,4.08,23.91,6.88-8.66,11,1.24.65,21.23.65,21.23,5.41,2.36,14.74-.25c7-1.94,16.1-.21,18.94,6.51,7.59,17.89,37.06,27.62,16.17,41.62s-402.44,25.41-405.27-9.42S1023.26,1418.21,1041.83,1418Z" transform="translate(-4.91)"/><path class="cls-4" d="M1348.87,1420.51s1.3-10.26,8.48-11,8.71,1,8.71,1,.28-11.4,8.68-13.67,9.71,6.82,9.71,6.82,3.39-7.32,9.31-7.11,7.1,8,7.1,8,2.14-15.77,11.93-17.63,10,10.11,10,10.11,4.21-3.48,9.28,2.22,3.71,15.31,3.71,15.31,2.12-11.09,9.12-9.08a14.91,14.91,0,0,1,9.38,8.21s-2.63-13.51,5.08-18.31,9.85,3.46,9.85,3.46-1-15.82,5.13-17.67,9.46,4.2,9.46,4.2-1.34-19.09,8.9-21,10.1,25.43,10.1,25.43,2.12-6.4,10.75-1.39,1.84,24.34,1.84,24.34,4.55-9.54,10.51-4,5.57,10.94,5.57,10.94,1.49-13,7.73-14.14a22,22,0,0,1,10.93.57s-5.93-14.87,1.2-20.9,9.72,6.81,9.72,6.81,1.94-13,9.25-12.44,5.24,17,5.24,17,8.67-9,14.68,1.87,3.2,19.4,3.2,19.4,2.82-8.54,9.36-6.46a13.36,13.36,0,0,1,8.44,7.73s-5.44-9.64.54-13.44,9.16-3.75,9.16-3.75-10.34-8.71-6.24-18.16,12.59-1.08,12.59-1.08-2.3-19.57,7.29-18.73,7.76,24.54,7.76,24.54,5.46-23.73,15.62-17,4.08,23.91,4.08,23.91,6.88-8.67,11,1.23.64,21.23.64,21.23,5.41,2.36,14.74-.25c7-1.94,16.11-.21,18.95,6.5,7.58,17.9,37.06,27.62,16.17,41.62s-402.44,25.4-405.27-9.42S1330.31,1420.71,1348.87,1420.51Z" transform="translate(-4.91)"/><path class="cls-4" d="M2085.25,1433.18s1.3-10.26,8.48-11,8.71,1,8.71,1,.28-11.4,8.68-13.67,9.71,6.82,9.71,6.82,3.39-7.32,9.31-7.12,7.1,8,7.1,8,2.14-15.76,11.94-17.63,10,10.11,10,10.11,4.21-3.48,9.28,2.23,3.71,15.31,3.71,15.31,2.12-11.09,9.11-9.08a14.91,14.91,0,0,1,9.38,8.22s-2.63-13.51,5.08-18.31,9.85,3.46,9.85,3.46-1-15.82,5.13-17.67,9.46,4.2,9.46,4.2-1.34-19.09,8.9-21,10.1,25.42,10.1,25.42,2.12-6.4,10.75-1.39,1.84,24.34,1.84,24.34,4.54-9.53,10.5-4,5.57,10.94,5.57,10.94,1.49-13,7.73-14.14a22,22,0,0,1,10.94.58s-5.94-14.87,1.2-20.9,9.71,6.81,9.71,6.81,1.94-13,9.25-12.43,5.24,17,5.24,17,8.67-9,14.68,1.87,3.2,19.41,3.2,19.41,2.82-8.55,9.36-6.46a13.36,13.36,0,0,1,8.44,7.73s-5.44-9.64.54-13.44,9.16-3.75,9.16-3.75-10.34-8.7-6.25-18.16,12.59-1.08,12.59-1.08-2.3-19.57,7.3-18.73,7.76,24.54,7.76,24.54,5.46-23.73,15.62-17,4.08,23.91,4.08,23.91,6.88-8.66,11,1.24.65,21.23.65,21.23,5.41,2.36,14.74-.25c7-1.95,16.1-.21,18.95,6.5,7.59,17.9,37.06,27.61,16.17,41.62s-402.44,25.41-405.27-9.42S2066.68,1433.39,2085.25,1433.18Z" transform="translate(-4.91)"/><path class="cls-5" d="M45.48,1416.58s9.94-25.68,21.46-15.43-4.28-14.34,9.57-9.38,19.06-.38,19.06-.38-5.33-24.8,6.32-13.24,6.4-31.59,17.75-13.47,9.14,24.73,9.14,24.73.48-14.44,9.57-9.38,10.83,12.89,10.83,12.89-10.65-20.77.78-21,14.11,7.58,14.11,7.58-20.48-14-7.23-24.75,17.66,4.88,17.66,4.88-.61-15.71,10.13-13.32,11.48,19.44,11.48,19.44,3.33-14.49,14.59-6.85S222.07,1377,222.07,1377s5.8-18.47,19.36-6.95,14.77,14.12,14.77,14.12-12.44-19.42,1.08-27.56,15.59,12.79,15.59,12.79,3.76-19.74,14.89-13.41,10,23.41,10,23.41,13.12-12.07,23.95.83,3.68,27.47,3.68,27.47,4.29-14.52,16.63-5.59,11.65,11.56,11.65,11.56-11.6-20.74.26-26.23,14.42,1,14.42,1-9.18-15.55,2.81-19.73,9.1,20.36,9.88,12.92,14.29-22.37,19.55-3.32c16.24-1,4.05,19.89,4.05,19.89s19.18.92,16,16.71l-3.2,15.81s1.17-17.07,14.72-5.54c14,1.78,16.64,10.52,16.55,12.78,0,0-13-24.66-2.73-27.48s14.51,11.5,14.51,11.5-2.82-9.13,13.64-6.84,6.59,18.22,6.59,18.22,1.69-11.84,14-2.91c5.73,7.25,5.51,13.61,8.1,14.26,0,0-2.26-13.06,12.43-9.42,15.74-6,19.06,9.66,18.58,14,3.09-2.91-1.78-20.59,15.46-17.35,5.82-12.34,10.51-9.66,14.21-.14a21,21,0,0,1,11.35,7.49s1.34-24.94,12.34-19.92c8.1-7.1,11.62-4.65,10.19,6.68,13-2.48,15.79,8.18,12.72,12.53a38.59,38.59,0,0,1,11-5.47c2.25-6.1,4.76-12.86,10.22-1,6.44-2.44,9.08,6.1,5,10.41,6.95-1,16.7-4.14,18.77,4.51,1.47,2.51-3.85,8.65-.48,10.34s8.29-.32,10.1.89c7.84,5.21,23.6,30.76,16.33,30.8-5.37,0-32.8,2.22-36.91,2.89-9.61,1.59-47.35-24.33-97.27-19.14-35.25.7-79.85,6.22-127.39,4.64-71.69-1.88-278.92,18.25-395.21,15.81-11.95-.25-16.36-1.17-19.25-2.4v-29.69c7.25-8.14,13.18-15.4,9-16.35-9.21-2.11,18.5-18.53,10-20.72-12.26-3.18,18.56,11.1,7.23,7.28C26.68,1430,49.93,1418.17,45.48,1416.58Z" transform="translate(-4.91)"/><path class="cls-4" d="M1762,1412.19s6.86-20.6,16.21-13,14.32,11.92,14.32,11.92-6.85-18.43,1.25-18.43,9.35,11.93,9.35,11.93-5.61-30.36,6.23-26,8.72,17.33,8.72,17.33,6.87-30.33,18.08-22.76,9.35,23.85,9.35,23.85,1.25-26,12.46-21.68,6.24,22.77,6.24,22.77,7.48-15.18,16.83-6.51,4.36,29.25,4.36,29.25,4.37-10.83,11.85-4.33,3.74-23.84,11.85-27.09S1921,1397,1921,1397s-2.5-33.6,6.86-35.77,8.11,15.18,8.11,15.18,8.1-10.83,18.7-3.26,3.11,29.26,3.11,29.26,5-11.92,11.21-3.24,1.88,20.59,1.88,20.59,4.36-11.94,8.73-1.1a30.52,30.52,0,0,1,.62,20.6s3.11-17.34,11.84-11.92,10.61,8.67,10.61,8.67-4.36-19.51,5.6-22.77,9.35,6.51,9.35,6.51,3.74-19.51,10.59-16.26,3.75,15.16,3.75,15.16,5-17.34,11.21-3.24,2.5,18.43,2.5,18.43,3.12-21.67,11.22-18.43,4.36,15.18,4.36,15.18,4.36-19.51,11.85-15.18,1.86,22.76,1.86,22.76,6.86-24.93,18.7-11.92,13.09,21.69,13.09,21.69-123.42,29.26-144.59,26S1691,1429.53,1762,1412.19Z" transform="translate(-4.91)"/><path class="cls-5" d="M579.8,1442.72s10.57-15.84,18.59-13.92,1.06-6.28,6.25-12.64,7.72-4.17,7.72-4.17,1.17-10.91,4.16-6.23,2.69-8,6.38-10.1-4.49-13.67.75-12.38S630,1387,630,1387s-1.07-7.53,2.88-11.15,7.71-4.17,5.24,1.29,5.66,2.77,2.84,8.29,6.57,7.24,6.57,7.24-3.41-12.81.88-9.84,12.18,2.35,8.68,8,4.7,11.09,4.7,11.09,12.58-3.33,11.23,4,3.47,13.83,8.47,10.55.15-17.4,4.22-11.85,7.21,6.12,7.21,6.12-3.49-14.33.88-16.48,9.14-3.35,8.77,2.83,10.35-6.59,15.11-1.13,3.41,12.81,3.41,12.81,3.58-4.1,8.79-3.3,5.73,10.94,5.73,10.94,10.11-4.51,9.08,2.28-1,15,2.15,15,8-12.89,11.74-6.29,8.37,8.52,8.37,8.52.06-12.27,4.43-7.79,14.76,5.56,12.63,11,2.79.63,10.69-6.65,6.25-6,9.77,2.19,6.6,7.74,6.6,7.74-.81-9.09,4.56-5.25,8.37-4.78,9.71,1.16,5.9-5.95,9.66.16,5.65,9.41,5.65,9.41l5.71,3.79,1.39,7s1.06-6.28,4.9-5.29-1.22,9.88-9,5.88-11.29,1.62-19.32-.31-154.65-4.48-189.3-1.06S554.69,1450.4,579.8,1442.72Z" transform="translate(-4.91)"/><polygon class="cls-4" points="1.84 1337.87 1430.41 1337.87 2858.98 1337.87 2858.98 2000 1430.41 2000 1.84 2000 1.84 1337.87"/><path class="cls-6" d="M1885.44,451.49h60.09v-2.41c0-67.42,55.16-122.59,122.59-122.59h0c67.42,0,122.59,55.16,122.59,122.59v2.41H2254a71.52,71.52,0,0,1,71.31,71.31h0A71.51,71.51,0,0,1,2254,594.11H1885.44a71.51,71.51,0,0,1-71.31-71.31h0A71.51,71.51,0,0,1,1885.44,451.49Z" transform="translate(-4.91)"/><path class="cls-6" d="M203.45,435.17h43.43v-1.74a88.86,88.86,0,0,1,88.6-88.6h0a88.86,88.86,0,0,1,88.6,88.6v1.74h45.76a51.69,51.69,0,0,1,51.54,51.54h0a51.69,51.69,0,0,1-51.54,51.54H203.45a51.69,51.69,0,0,1-51.54-51.54h0A51.69,51.69,0,0,1,203.45,435.17Z" transform="translate(-4.91)"/><path class="cls-6" d="M662.82,237h28.65v-1.15a58.63,58.63,0,0,1,58.46-58.46h0a58.63,58.63,0,0,1,58.46,58.46V237h30.19a34.1,34.1,0,0,1,34,34h0a34.1,34.1,0,0,1-34,34H662.82a34.1,34.1,0,0,1-34-34h0A34.1,34.1,0,0,1,662.82,237Z" transform="translate(-4.91)"/><path class="cls-6" d="M2409.38,213.29h33.83v-1.36a69.21,69.21,0,0,1,69-69h0a69.21,69.21,0,0,1,69,69v1.36h35.64A40.26,40.26,0,0,1,2657,253.43h0a40.26,40.26,0,0,1-40.15,40.14H2409.38a40.26,40.26,0,0,1-40.14-40.14h0A40.26,40.26,0,0,1,2409.38,213.29Z" transform="translate(-4.91)"/><polygon class="cls-4" points="1183.58 384.69 1430.41 384.69 1677.25 384.69 1677.25 474.52 1430.41 474.52 1183.58 474.52 1183.58 384.69"/><polygon class="cls-4" points="1195.92 384.69 1430.41 384.69 1664.91 384.69 1664.91 339.8 1430.41 339.8 1195.92 339.8 1195.92 384.69"/><polygon class="cls-4" points="1316.06 320.33 1430.41 320.33 1544.76 320.33 1544.76 339.8 1430.41 339.8 1316.06 339.8 1316.06 320.33"/><polygon class="cls-4" points="1126.97 532.13 1430.41 532.13 1733.85 532.13 1733.85 474.52 1430.41 474.52 1126.97 474.52 1126.97 532.13"/><polygon class="cls-4" points="1096.44 603.88 1430.41 603.88 1764.38 603.88 1764.38 548.07 1764.38 532.13 1430.41 532.13 1096.44 532.13 1096.44 548.07 1096.44 603.88"/><path class="cls-4" d="M1342.41,320.34h185.83c-13.71-17.9-48.84-24.79-92.91-27.1C1391.25,295.54,1356.12,302.44,1342.41,320.34Z" transform="translate(-4.91)"/><path class="cls-4" d="M1392.9,297.62a362.6,362.6,0,0,1,42.42-4.38,362.78,362.78,0,0,1,42.43,4.38V286.33c-14.12-8.28-28.27-11-42.43-12.22-14.16,1.19-28.3,3.94-42.42,12.22Z" transform="translate(-4.91)"/><polygon class="cls-4" points="1051.6 603.88 1430.41 603.88 1809.23 603.88 1793.02 643.74 1430.41 643.74 1067.8 643.74 1051.6 603.88"/><polygon class="cls-4" points="1091.51 685.47 1430.41 685.47 1769.32 685.47 1787.66 643.74 1430.41 643.74 1073.16 643.74 1091.51 685.47"/><polygon class="cls-4" points="1073.16 685.47 1430.41 685.47 1787.66 685.47 1779.09 701.14 1430.41 701.14 1081.73 701.14 1073.16 685.47"/><polygon class="cls-4" points="1093.78 723.47 1430.41 723.47 1767.04 723.47 1779.09 701.14 1430.41 701.14 1081.73 701.14 1093.78 723.47"/><polygon class="cls-4" points="1328.28 396.92 1430.41 396.92 1532.54 396.92 1532.54 462.29 1430.41 462.29 1328.28 462.29 1328.28 396.92"/><path class="cls-4" d="M1279.39,458.88a29.27,29.27,0,1,0-29.5-29.27A29.44,29.44,0,0,0,1279.39,458.88Z" transform="translate(-4.91)"/><polygon class="cls-4" points="1044.92 1297.99 1359.22 1297.99 1375.7 1337.87 1030.46 1337.87 1044.92 1297.99"/><polygon class="cls-4" points="1093.78 723.47 1297.63 723.47 1311.83 1297.99 1071.85 1297.99 1093.78 723.47"/><rect class="cls-7" x="1054.47" y="1195.69" width="266.77" height="40.92"/><rect class="cls-7" x="1100.14" y="1014.46" width="187.49" height="181.23"/><polygon class="cls-4" points="1042.42 993.2 1316.69 993.2 1304.86 1014.46 1053.4 1014.46 1042.42 993.2"/><rect class="cls-7" x="1064.08" y="1021.89" width="255.52" height="4.78"/><polygon class="cls-4" points="1062.25 841.2 1300.54 841.2 1301.12 864.55 1074.84 864.55 1062.25 841.2"/><rect class="cls-7" x="1116.75" y="791.52" width="154.28" height="8.77"/><path class="cls-4" d="M1198.8,782.48a25,25,0,1,0-25.18-25A25.13,25.13,0,0,0,1198.8,782.48Z" transform="translate(-4.91)"/><rect class="cls-7" x="1126.39" y="877.9" width="135" height="101.95"/><rect class="cls-7" x="1100.14" y="1159.29" width="187.49" height="36.4"/><rect class="cls-7" x="1096.25" y="1236.61" width="195.27" height="51.29"/><rect class="cls-7" x="1075.94" y="1287.91" width="235.88" height="10.08"/><polygon class="cls-4" points="1357.28 841.2 1300.54 841.2 1301.12 864.55 1354.32 864.55 1357.28 841.2"/><polygon class="cls-4" points="1336.39 1297.99 1336.39 864.55 1301.12 864.55 1304.3 993.2 1316.69 993.2 1304.86 1014.46 1304.82 1014.46 1305.01 1021.89 1319.6 1021.89 1319.6 1026.68 1305.12 1026.68 1309.3 1195.69 1321.24 1195.69 1321.24 1236.61 1310.31 1236.61 1311.58 1287.91 1311.83 1287.91 1311.83 1297.99 1336.39 1297.99"/><polygon class="cls-4" points="1430.41 723.47 1416.88 723.47 1416.88 778.76 1430.41 778.76 1443.94 778.76 1443.94 723.47 1430.41 723.47"/><path class="cls-4" d="M1325,841.2c8.57-47.87,48.1-84.44,96.81-89.58V723.47H1302.54l2.91,117.74Z" transform="translate(-4.91)"/><path class="cls-4" d="M1421.79,751.62c-48.71,5.14-88.24,41.71-96.81,89.58h26.16a95.55,95.55,0,0,1,70.65-62.44Z" transform="translate(-4.91)"/><path class="cls-4" d="M1591.25,458.88a29.27,29.27,0,1,0-29.5-29.27A29.45,29.45,0,0,0,1591.25,458.88Z" transform="translate(-4.91)"/><polygon class="cls-4" points="1815.9 1297.99 1501.6 1297.99 1485.13 1337.87 1830.37 1337.87 1815.9 1297.99"/><polygon class="cls-4" points="1767.04 723.47 1563.19 723.47 1548.99 1297.99 1788.98 1297.99 1767.04 723.47"/><rect class="cls-7" x="1539.58" y="1195.69" width="266.76" height="40.92"/><rect class="cls-7" x="1573.19" y="1014.46" width="187.49" height="181.23"/><polygon class="cls-4" points="1818.4 993.2 1544.13 993.2 1555.97 1014.46 1807.42 1014.46 1818.4 993.2"/><rect class="cls-7" x="1541.23" y="1021.89" width="255.51" height="4.78"/><polygon class="cls-4" points="1798.58 841.2 1560.28 841.2 1559.71 864.55 1785.99 864.55 1798.58 841.2"/><rect class="cls-7" x="1589.8" y="791.52" width="154.28" height="8.77"/><path class="cls-4" d="M1671.85,782.48a25,25,0,1,0-25.18-25A25.13,25.13,0,0,0,1671.85,782.48Z" transform="translate(-4.91)"/><rect class="cls-7" x="1599.44" y="877.9" width="135" height="101.95"/><rect class="cls-7" x="1569.31" y="1236.61" width="195.27" height="51.29"/><rect class="cls-7" x="1549" y="1287.91" width="235.88" height="10.08"/><polygon class="cls-4" points="1503.55 841.2 1560.28 841.2 1559.71 864.55 1506.51 864.55 1503.55 841.2"/><polygon class="cls-4" points="1524.43 1297.99 1524.43 864.55 1559.71 864.55 1556.53 993.2 1544.13 993.2 1555.97 1014.46 1556 1014.46 1555.82 1021.89 1541.23 1021.89 1541.23 1026.68 1555.7 1026.68 1551.52 1195.69 1539.59 1195.69 1539.59 1236.61 1550.51 1236.61 1549.25 1287.91 1548.99 1287.91 1548.99 1297.99 1524.43 1297.99"/><path class="cls-4" d="M1545.66,841.2c-8.57-47.87-48.1-84.44-96.81-89.58V723.47H1568.1l-2.91,117.74Z" transform="translate(-4.91)"/><path class="cls-4" d="M1448.85,751.62c48.71,5.14,88.24,41.71,96.81,89.58H1519.5a95.55,95.55,0,0,0-70.65-62.44Z" transform="translate(-4.91)"/><polygon class="cls-4" points="1396.32 1157.95 1413.37 1146.76 1430.41 1146.07 1447.46 1146.76 1464.51 1157.95 1464.51 1130.81 1430.41 1130.81 1396.32 1130.81 1396.32 1157.95"/><rect class="cls-7" x="1389.02" y="1303.03" width="25.31" height="34.85"/><rect class="cls-7" x="1392.31" y="1293.98" width="18.71" height="9.05"/><rect class="cls-7" x="1396.32" y="1164.33" width="10.7" height="129.64"/><path class="cls-4" d="M1401.23,1130.81h68.19a16.5,16.5,0,0,1-2.43-5.57c-1.3-4.42-2-5.9-6.07-8.44-2.05-1.28-4.22-2.43-5.65-4.36-12.18-16.46-27.71-16.46-39.89,0-1.43,1.93-3.6,3.08-5.65,4.36-4.08,2.54-4.77,4-6.07,8.44A16.58,16.58,0,0,1,1401.23,1130.81Z" transform="translate(-4.91)"/><path class="cls-4" d="M1411.93,1184.12a25.89,25.89,0,0,1,46.78,0v-19.79a25.16,25.16,0,0,0-46.78,0Z" transform="translate(-4.91)"/><polygon class="cls-4" points="1414.32 1314.89 1430.41 1314.89 1446.5 1314.89 1446.5 1332.66 1430.41 1332.66 1414.32 1332.66 1414.32 1314.89"/><rect class="cls-7" x="1446.5" y="1303.03" width="25.31" height="34.85"/><rect class="cls-7" x="1449.8" y="1293.98" width="18.71" height="9.05"/><rect class="cls-7" x="1453.8" y="1164.33" width="10.7" height="129.64"/><path class="cls-4" d="M1484.48,1152.33h-20a34.89,34.89,0,0,0-58.31,0h-20v12h25.77a25.16,25.16,0,0,1,46.78,0h25.77Z" transform="translate(-4.91)"/><path class="cls-4" d="M1462.9,1118.16h-55.15a9.11,9.11,0,0,0-2.34,2.53h59.82A9.11,9.11,0,0,0,1462.9,1118.16Z" transform="translate(-4.91)"/><polygon class="cls-4" points="1096.44 603.88 1430.41 603.88 1764.38 603.88 1764.38 594.11 1430.41 594.11 1096.44 594.11 1096.44 603.88"/><polygon class="cls-4" points="1126.97 532.13 1430.41 532.13 1733.85 532.13 1733.85 520.86 1430.41 520.86 1126.97 520.86 1126.97 532.13"/><polygon class="cls-4" points="1183.58 468.41 1430.41 468.41 1677.25 468.41 1677.25 474.52 1430.41 474.52 1183.58 474.52 1183.58 468.41"/><polygon class="cls-4" points="1195.92 384.69 1430.41 384.69 1664.91 384.69 1664.91 374.84 1430.41 374.84 1195.92 374.84 1195.92 384.69"/><polygon class="cls-4" points="1316.06 332.66 1430.41 332.66 1544.76 332.66 1544.76 339.8 1430.41 339.8 1316.06 339.8 1316.06 332.66"/><path class="cls-4" d="M1521,313.22H1349.69a37.56,37.56,0,0,0-7.28,7.11h185.83A37.63,37.63,0,0,0,1521,313.22Z" transform="translate(-4.91)"/><path class="cls-4" d="M1392.9,297.62a362.6,362.6,0,0,1,42.42-4.38,362.78,362.78,0,0,1,42.43,4.38V291H1392.9Z" transform="translate(-4.91)"/><rect class="cls-7" x="1376.76" y="410.34" width="6.06" height="38.54"/><polygon class="cls-4" points="1405.36 448.88 1411.59 448.88 1411.59 410.34 1406.19 410.34 1406.19 433.41 1406.08 433.41 1399.97 410.34 1392.37 410.34 1392.37 448.88 1397.82 448.88 1397.82 420.96 1397.93 420.96 1405.36 448.88"/><path class="cls-4" d="M1426,448.88h9.58c6.06,0,9-3.36,9-9.52V419.86c0-6.17-3-9.52-9-9.52H1426v38.54Zm9.47-33c1.93,0,3.08,1,3.08,3.74v20c0,2.75-1.15,3.74-3.08,3.74h-3.41V415.84Z" transform="translate(-4.91)"/><rect class="cls-7" x="1448.8" y="410.34" width="6.06" height="38.54"/><path class="cls-4" d="M1482.8,410.34h-8.87l-6.17,38.54h5.56l1-7h7.43l1,7H1489l-6.17-38.54Zm-4.79,6.83h.11l2.86,19.49h-5.84Z" transform="translate(-4.91)"/><g class="cls-8"><path class="cls-9" d="M285.72,1635.93H236s10-113.68,25.71-113.68S285.72,1635.93,285.72,1635.93Z" transform="translate(-4.91)"/><polygon class="cls-9" points="251.58 969.6 260.29 969.6 264.02 1556.67 247.85 1556.67 251.58 969.6"/><polygon class="cls-9" points="290.88 907.69 255.42 864.55 220.99 907.69 256.08 894.82 290.88 907.69"/><polygon class="cls-9" points="232.67 979.59 256.15 984.74 279.21 979.59 285 908.93 256.78 899.23 226.88 908.93 232.67 979.59"/><polygon class="cls-10" points="281.54 912.85 258.5 905.12 258.5 979.82 276.25 974.66 281.54 912.85"/><polygon class="cls-10" points="230.34 912.85 253.38 905.12 253.38 979.82 235.63 974.66 230.34 912.85"/><path class="cls-9" d="M560,1489.62h-33s6.61-75.49,17.07-75.49S560,1489.62,560,1489.62Z" transform="translate(-4.91)"/><polygon class="cls-9" points="535.67 1047.16 541.45 1047.16 543.93 1436.99 533.19 1436.99 535.67 1047.16"/><polygon class="cls-9" points="561.76 1006.05 538.21 977.4 515.35 1006.05 538.66 997.5 561.76 1006.05"/><polygon class="cls-9" points="523.11 1053.79 538.7 1057.21 554.01 1053.79 557.85 1006.87 539.12 1000.43 519.26 1006.87 523.11 1053.79"/><polygon class="cls-10" points="555.56 1009.47 540.26 1004.34 540.26 1053.94 552.04 1050.52 555.56 1009.47"/><polygon class="cls-10" points="521.56 1009.47 536.86 1004.34 536.86 1053.94 525.07 1050.52 521.56 1009.47"/><path class="cls-9" d="M467,1395.27H434s6.61-75.49,17.07-75.49S467,1395.27,467,1395.27Z" transform="translate(-4.91)"/><polygon class="cls-9" points="442.71 952.8 448.49 952.8 450.96 1342.64 440.23 1342.64 442.71 952.8"/><polygon class="cls-9" points="468.8 911.7 445.25 883.05 422.39 911.7 445.69 903.15 468.8 911.7"/><polygon class="cls-9" points="430.14 959.44 445.74 962.86 461.05 959.44 464.89 912.52 446.16 906.08 426.3 912.52 430.14 959.44"/><polygon class="cls-10" points="462.6 915.12 447.3 909.99 447.3 959.59 459.08 956.17 462.6 915.12"/><polygon class="cls-10" points="428.6 915.12 443.9 909.99 443.9 959.59 432.11 956.17 428.6 915.12"/><path class="cls-9" d="M148.24,1395.27h-33s6.61-75.49,17.07-75.49S148.24,1395.27,148.24,1395.27Z" transform="translate(-4.91)"/><polygon class="cls-9" points="123.92 952.8 129.7 952.8 132.18 1342.64 121.44 1342.64 123.92 952.8"/><polygon class="cls-9" points="150.01 911.7 126.46 883.05 103.61 911.7 126.91 903.15 150.01 911.7"/><polygon class="cls-9" points="111.36 959.44 126.95 962.86 142.26 959.44 146.1 912.52 127.37 906.08 107.51 912.52 111.36 959.44"/><polygon class="cls-10" points="143.81 915.12 128.51 909.99 128.51 959.59 140.3 956.17 143.81 915.12"/><polygon class="cls-10" points="109.81 915.12 125.11 909.99 125.11 959.59 113.32 956.17 109.81 915.12"/></g><g class="cls-8"><path class="cls-9" d="M2522.78,1627.93h51s-10.2-113.68-26.36-113.68S2522.78,1627.93,2522.78,1627.93Z" transform="translate(-4.91)"/><polygon class="cls-9" points="2547.85 961.6 2538.92 961.6 2535.09 1548.67 2551.68 1548.67 2547.85 961.6"/><polygon class="cls-9" points="2507.55 899.69 2543.92 856.55 2579.22 899.69 2543.24 886.82 2507.55 899.69"/><polygon class="cls-9" points="2567.25 971.59 2543.17 976.74 2519.52 971.59 2513.59 900.93 2542.52 891.23 2573.19 900.93 2567.25 971.59"/><polygon class="cls-10" points="2517.13 904.85 2540.76 897.12 2540.76 971.82 2522.56 966.66 2517.13 904.85"/><polygon class="cls-10" points="2569.64 904.85 2546.01 897.12 2546.01 971.82 2564.22 966.66 2569.64 904.85"/><path class="cls-9" d="M2241.52,1481.62h33.89s-6.78-75.49-17.51-75.49S2241.52,1481.62,2241.52,1481.62Z" transform="translate(-4.91)"/><polygon class="cls-9" points="2256.52 1039.16 2250.6 1039.16 2248.05 1428.99 2259.07 1428.99 2256.52 1039.16"/><polygon class="cls-9" points="2229.76 998.05 2253.91 969.4 2277.36 998.05 2253.46 989.5 2229.76 998.05"/><polygon class="cls-9" points="2269.41 1045.79 2253.41 1049.21 2237.71 1045.79 2233.77 998.87 2252.99 992.43 2273.34 998.87 2269.41 1045.79"/><polygon class="cls-10" points="2236.13 1001.47 2251.82 996.34 2251.82 1045.94 2239.73 1042.52 2236.13 1001.47"/><polygon class="cls-10" points="2270.99 1001.47 2255.3 996.34 2255.3 1045.94 2267.39 1042.52 2270.99 1001.47"/><path class="cls-9" d="M2336.86,1387.27h33.88s-6.78-75.49-17.5-75.49S2336.86,1387.27,2336.86,1387.27Z" transform="translate(-4.91)"/><polygon class="cls-9" points="2351.86 944.8 2345.93 944.8 2343.39 1334.64 2354.4 1334.64 2351.86 944.8"/><polygon class="cls-9" points="2325.09 903.7 2349.24 875.05 2372.69 903.7 2348.79 895.15 2325.09 903.7"/><polygon class="cls-9" points="2364.74 951.44 2348.75 954.86 2333.04 951.44 2329.11 904.52 2348.32 898.08 2368.68 904.52 2364.74 951.44"/><polygon class="cls-10" points="2331.46 907.12 2347.15 901.99 2347.15 951.59 2335.06 948.17 2331.46 907.12"/><polygon class="cls-10" points="2366.32 907.12 2350.63 901.99 2350.63 951.59 2362.72 948.17 2366.32 907.12"/><path class="cls-9" d="M2663.77,1387.27h33.88s-6.78-75.49-17.51-75.49S2663.77,1387.27,2663.77,1387.27Z" transform="translate(-4.91)"/><polygon class="cls-9" points="2678.77 944.8 2672.84 944.8 2670.3 1334.64 2681.31 1334.64 2678.77 944.8"/><polygon class="cls-9" points="2652.01 903.7 2676.16 875.05 2699.61 903.7 2675.71 895.15 2652.01 903.7"/><polygon class="cls-9" points="2691.66 951.44 2675.66 954.86 2659.96 951.44 2656.02 904.52 2675.23 898.08 2695.59 904.52 2691.66 951.44"/><polygon class="cls-10" points="2658.38 907.12 2674.07 901.99 2674.07 951.59 2661.98 948.17 2658.38 907.12"/><polygon class="cls-10" points="2693.24 907.12 2677.55 901.99 2677.55 951.59 2689.64 948.17 2693.24 907.12"/></g><path class="cls-11" d="M366.11,521.69a40.84,40.84,0,0,0-5.46,0,33.68,33.68,0,0,0-5.53,1,31,31,0,0,0-5.37,2.12,26.16,26.16,0,0,0-4.92,3.15,30,30,0,0,0-4.18,4.08c-.87,1.18-1.79,2.34-2.58,3.57-.78-1.27-1.72-2.48-2.63-3.68a26.21,26.21,0,0,0-4.24-4.12,27.15,27.15,0,0,0-5-3.08,25.8,25.8,0,0,0-5.43-2,32.47,32.47,0,0,0-11-.85,58.09,58.09,0,0,0-19.81,5.53,76.21,76.21,0,0,0-16.84,10.73,149.77,149.77,0,0,1,18.51-5.87,66.87,66.87,0,0,1,18.29-2.19,32,32,0,0,1,8.33,1.51,16.68,16.68,0,0,1,3.63,1.64,17.4,17.4,0,0,1,3.14,2.27,26.29,26.29,0,0,1,2.67,2.84,22.75,22.75,0,0,1,2.18,3.4,27.26,27.26,0,0,1,1.71,3.83c.54,1.31.84,2.77,1.29,4.15l.06.18a5.21,5.21,0,0,0,6.61,3.37,5.32,5.32,0,0,0,3.32-3.36,39.74,39.74,0,0,1,3.28-8,22.82,22.82,0,0,1,5-6.34c3.81-3.65,9.12-5.38,15-5.78a49.1,49.1,0,0,1,9,.37,64,64,0,0,1,9.2,1.79c3.09.73,6.15,1.7,9.22,2.72s6.13,2.17,9.18,3.45a72.78,72.78,0,0,0-16.66-11A54.1,54.1,0,0,0,366.11,521.69Z" transform="translate(-4.91)"/><path class="cls-12" d="M446.4,617.82a32.42,32.42,0,0,0-4.31,0,26.66,26.66,0,0,0-4.37.81,24.71,24.71,0,0,0-4.24,1.67,20.74,20.74,0,0,0-3.89,2.49,23.55,23.55,0,0,0-3.3,3.22c-.69.93-1.42,1.85-2,2.82-.62-1-1.36-2-2.08-2.9a20.66,20.66,0,0,0-3.34-3.25,21.54,21.54,0,0,0-4-2.43,20.55,20.55,0,0,0-4.29-1.54,25.68,25.68,0,0,0-8.66-.67,45.82,45.82,0,0,0-15.64,4.37A60.14,60.14,0,0,0,373,630.9a118.4,118.4,0,0,1,14.61-4.63A52.93,52.93,0,0,1,402,624.53a25.4,25.4,0,0,1,6.57,1.2,13.27,13.27,0,0,1,2.86,1.29,13.72,13.72,0,0,1,2.48,1.79,20.35,20.35,0,0,1,2.11,2.24,17.69,17.69,0,0,1,1.72,2.68,21.07,21.07,0,0,1,1.36,3c.42,1,.67,2.19,1,3.27l0,.14a4.11,4.11,0,0,0,5.22,2.66,4.21,4.21,0,0,0,2.62-2.65,31.08,31.08,0,0,1,2.59-6.29,18,18,0,0,1,3.93-5c3-2.88,7.2-4.25,11.82-4.56a38.76,38.76,0,0,1,7.09.29,50.82,50.82,0,0,1,7.26,1.41c2.44.58,4.85,1.35,7.28,2.15s4.84,1.71,7.24,2.72a57.41,57.41,0,0,0-13.15-8.72A42.69,42.69,0,0,0,446.4,617.82Z" transform="translate(-4.91)"/></g></g></g></svg>