<svg id="Layer_1" data-name="Layer 1" xmlns="http://www.w3.org/2000/svg" xmlns:xlink="http://www.w3.org/1999/xlink" viewBox="0 0 293.05 32.01"><defs><style>.cls-1{fill:none;}.cls-2{clip-path:url(#clip-path);}.cls-3{fill:#c1a993;}.cls-4{fill:#7f654f;}</style><clipPath id="clip-path"><rect class="cls-1" x="225.71" y="-454.98" width="286.22" height="263.95"/></clipPath></defs><title>Talking Stalking-06</title><g class="cls-2"><path class="cls-3" d="M526.35-94.54c-1.11-2.51-5.64-1.32-5.29,1.43.75,6,0,11.82-1.09,17.65a15,15,0,0,0-3.73-6.69,3.33,3.33,0,0,0-.39-.36q-.75-1.33-1.53-2.65a30,30,0,0,0-6.52-11,2.61,2.61,0,0,0-1.2-.76c-.42-.58-.84-1.16-1.26-1.74-1.51-2-5.48-1.67-5.29,1.43a27.8,27.8,0,0,0,2.54,10.14,3.21,3.21,0,0,0-.54.59l-.16.23a3,3,0,0,0-2.49,1.21c-.26.34-.51.69-.76,1a2.86,2.86,0,0,0-2.43,1.26L485.3-67.39q-2,1.87-3.89,3.83a196.46,196.46,0,0,0-18.53,17.18l-1.9-.94A99.24,99.24,0,0,0,439.67-55a305.66,305.66,0,0,1,15.26-41.56c3.62-8,7.66-15.76,11.83-23.48s8.06-15.34,10.31-23.71a2.8,2.8,0,0,0-.73-2.76,78.61,78.61,0,0,0-19.47-11.83c-6.42-2.7-14-5.34-21-5.44a7.88,7.88,0,0,0-7.74,4.8c-1.68,3.76-2.67,7.93-3.93,11.84l-5,15.44-.76,1.6q-4,7.83-7.17,16c-.52,1.23-1,2.47-1.56,3.7a2.42,2.42,0,0,0-.19.95c-.21.58-.41,1.16-.61,1.74q-3.77,6.67-7.38,13.42A165.48,165.48,0,0,0,392-77.15q-3.92-1.66-7.87-3.25l-14.47-6.92a31.3,31.3,0,0,1-1.83-3,64.92,64.92,0,0,1-3.9-8.81,2.72,2.72,0,0,0-.24-2.15c-.57-1.05-1.09-2.12-1.59-3.2-.92-2.83-1.79-5.66-2.73-8.43l-4.52-13.32a120.08,120.08,0,0,0-5.17-15.19c-1.43-4-3.17-7.87-6.19-10.79a10.61,10.61,0,0,0-1.59-1.41,6.64,6.64,0,0,0-.68-.42l-.22-.15a2.77,2.77,0,0,0-1.23-.45c-3.16-1-7.15-.3-10.23-.26l-26,.32a17.9,17.9,0,0,0-4.33-1.23c-3.07-.45-6.08.3-7.75,3.15a7.08,7.08,0,0,0,1.07,8.32c-.09-.1.6.72.83,1l.44.62c.58.85,1.11,1.74,1.6,2.64s.83,1.64,1.23,2.47c.59,1.24.25.56.13.28.27.65.51,1.3.76,2,1.48,4,2.63,8.07,4.14,12a47.59,47.59,0,0,0,6.92,12.89c3,3.87,6.92,6.9,10.22,10.55.3.34.62.68.91,1,0,.08.57.81.64.93q.41.64.78,1.3c.07.13.54,1.07.53,1a11.44,11.44,0,0,1,.64,2.21s0,.63,0,.73a3.65,3.65,0,0,0,0,.56,3.17,3.17,0,0,0-.15.47l-.12.43a16.71,16.71,0,0,1-.85,1.53c-.55.94-1.14,1.87-1.63,2.85a13.46,13.46,0,0,0-1.55,9.06c1.39,6.17,7.36,8.4,12.41,10.91l15.2,7.55c12.89,6.39,25.73,13,38.78,19.17A253.07,253.07,0,0,0,376-7.62L372.64,3.19A2.45,2.45,0,0,0,373.42,6L373,8.49a2.93,2.93,0,0,0,1.84,3.3c3.6.12,7.33-.87,10.74-1.74,4.17-1.06,8.33-2.13,12.52-3.13C403,5.76,407.88,4.42,412.77,3c2.24-.64,4.59-1.12,6.85-1.81q2.78-5.39,5.17-11l0-.05h0l.29-.68a2.35,2.35,0,0,0,.17-1.4l3.29-6.32a3.28,3.28,0,0,0,.21-.5l1.11-2a2.74,2.74,0,0,0,.31-2.07c12.65,3,25.74,4.2,38.35,1.73.27-.05.53-.11.78-.18,6.47.76,12.79-5.64,17.53-9.23Q498-38.91,509-47.5c3.31-2.59,6.93-5.05,9.71-8.24a22.78,22.78,0,0,0,4.44-8.11A31.5,31.5,0,0,0,526.35-94.54Zm-59.1-51.74a2.22,2.22,0,0,0-.56.44l-.85-.06a3.16,3.16,0,0,0,0-1.33Zm-3.87,5.83.65.07-.12.26a3.31,3.31,0,0,0-.47-.27l-.07,0Zm-29.17-16.68a3.28,3.28,0,0,0-.87.14,2.78,2.78,0,0,1,.31-.41,2.11,2.11,0,0,1,1-.58A3.26,3.26,0,0,0,434.21-157.14Zm5.63,33.22.16.14-.51.92Zm62,54.75-.16.16a3.1,3.1,0,0,0-.5-.39l.08-.15a15.18,15.18,0,0,1,.7-1.38C501.91-70.35,501.87-69.76,501.84-69.17Zm8.93,3.4a3,3,0,0,0-2.34-1.4,6.91,6.91,0,0,0,.18-1.36c.07-.24.14-.47.2-.71a2.8,2.8,0,0,0,.57.72l.06.12A2.44,2.44,0,0,0,511.86-67C511.48-66.62,511.12-66.2,510.77-65.77Zm4.18-3a2.54,2.54,0,0,0-.45,0,2.62,2.62,0,0,0,.16-.45,3.08,3.08,0,0,0,.59,0Z"/><path class="cls-4" d="M501.18-219.29a.5.5,0,0,0-.34-.54,37.37,37.37,0,0,0-2-9c-3.12-8.75-9.7-14.62-18.07-18.31A123.17,123.17,0,0,0,467.38-252c-2.13-.66-4.28-1.28-6.43-1.87-.13.36-.27.72-.43,1.06,1.92.5,3.83,1,5.71,1.66,10.32,3.4,22,6.76,28.34,16.34a33.72,33.72,0,0,1,5.23,17.51c-2,23.29-11.11,45.11-20.39,66.33a.67.67,0,0,0-.68.32,17.81,17.81,0,0,0-1,1.89.69.69,0,0,0-1,.19c-.05.12-.09.22-.14.33h-.59a17.69,17.69,0,0,1-5.13-.21c-2.9-.83-5-3.34-7.07-5.35a33.82,33.82,0,0,0-5.72-4.48,34.52,34.52,0,0,0-26.3-4,30.66,30.66,0,0,0,2.13-14.15.71.71,0,0,0-.09-.29c.08-.28.15-.56.23-.84a.71.71,0,0,0-1.37-.38,106.46,106.46,0,0,0-3,13.73l-.65,2.81a.77.77,0,0,0-.06.21l0,.32a.57.57,0,0,0,.05.33c-3.32,10.78-6.68,21.59-11.36,31.87-2.37,5.2-5.33,10-8,15.09-2.44,4.72-3.68,9.79-5.19,14.86-1.67,5.62-4.44,10.53-7.26,15.63a64.53,64.53,0,0,0-3.08,6.39l-.07,0L372.55-88.28c-3.72-2-7.24-3.43-8.87-7.6-1.4-3.57-2.64-7.21-3.94-10.82q-6.66-18.47-12.95-37.06a.71.71,0,0,0,1.1-.75L346.81-148a8,8,0,0,0-.79-2.49h0a8.53,8.53,0,0,0-1.36-4.2.71.71,0,0,0-.42-.33l-.15-.35,0,0c-.17-.42-.33-.85-.5-1.27-.34-.84-1.71-.47-1.37.38.2.49.39,1,.58,1.49a10.67,10.67,0,0,0,.26,2.12.8.8,0,0,0-.2.08,4.34,4.34,0,0,0-2-1.32.64.64,0,0,0-.86.57c-6.49-2.45-14-.29-20.8,0-9.19.41-18.44-.71-27.49,1.42-.89.21-.51,1.58.38,1.37,8.62-2,17.45-1,26.21-1.34,8-.27,17.29-3.5,24.37,1.56a.58.58,0,0,0,.49.08q7.83,23.37,16.21,46.55c1.23,3.4,2.17,7.24,4,10.4,1.6,2.82,4.56,4.1,7.3,5.57l22.68,12.13a.74.74,0,0,0,.27.08,75.1,75.1,0,0,0-2.44,7.29c-2.57,9.16-4.87,18.4-7.21,27.62a.59.59,0,0,0-.36-.51Q367.71-49,351.94-57q-7.68-3.89-15.34-7.81l-7.87-4c-2.25-1.16-6.95-2.69-6.76-5.81.06-.91-1.36-.91-1.42,0-.28,4.62,6.76,6.68,9.94,8.31q8.69,4.46,17.4,8.88,17.42,8.84,34.92,17.54a.73.73,0,0,0,1-.31q-.9,3.55-1.82,7.1L371.6,7a.71.71,0,0,0,1.37.38q9.18-35.48,18.37-71c1.48-5.71,3.09-11.35,5.82-16.61,2.43-4.67,5.34-9.09,7.22-14,2.1-5.52,3-11.44,5.51-16.82,2.31-5,5.38-9.61,7.76-14.57,5.14-10.72,8.75-22.07,12.25-33.41a.62.62,0,0,0,.42-.31c.23-.44.45-.88.66-1.33A33.09,33.09,0,0,1,455.76-158c4,2.15,6.76,5.29,10.12,8.17a12.93,12.93,0,0,0,4.2,2.57,10,10,0,0,0,2.88.48c.7,0,1.41,0,2.11-.07l.85,0a.83.83,0,0,0,.35,0c0,.08,0,.15,0,.24a.91.91,0,0,0,.12.35l-.19,2.42s0,0,0,.06c-8.31,18.62-17.18,37-26.08,55.31-7.54,18.89-11.31,38.08-18,58.52a215.81,215.81,0,0,1-13.7,32.31,12.74,12.74,0,0,1,1.83-1,1.32,1.32,0,0,1,.51-.12c9.46-18.93,15.62-39.73,21-61.65,6.66-26.9,21.14-50.9,32.48-76.1l3-6.7a.56.56,0,0,0,.29-.42c0-.12,0-.24.06-.36,6.57-14.63,13-29.42,17.68-44.76q2-6.69,3.45-13.52a.54.54,0,0,0,.39-.39A48.72,48.72,0,0,0,501-217.28C501.07-217.95,501.14-218.62,501.18-219.29ZM432.1-168.87a29.09,29.09,0,0,1-.72,3.15Z"/></g><path d="M6.43,29.46c0-.44.09-.88.09-1.37,0-1.72-.31-3.52-.31-5.29a.53.53,0,0,1,.09-.35c0-.18,0-1.06,0-1.28a18.43,18.43,0,0,0-.13-3.13A9.34,9.34,0,0,1,6,16.12V12.73a2.14,2.14,0,0,0-.13-.92V8H3.7a1.15,1.15,0,0,0-.35.13l-.09.22s-.53-.13-.57.09H.57C.13,8.46,0,8.19,0,7.84A10.54,10.54,0,0,1,.22,6.69,23.44,23.44,0,0,0,.57,3.61C.57,3.08.22,2.55.22,2a.37.37,0,0,1,.13-.35,1.52,1.52,0,0,0,.88-.09H4.67a8.68,8.68,0,0,0,1.06-.13c.09-.22.22-.22.4-.22H6.3s.4.13.44.13.57-.13.66-.13h2l.13-.09L10.79,1h.13c.31,0,.48.22.79.22s.62-.13,1.06-.13a11.56,11.56,0,0,1,1.63.13c0,.18.48.22.53.22a25,25,0,0,0,2.51-.22.33.33,0,0,0,.31.13h.13a2.33,2.33,0,0,1,.53-.13c.4,0,.84.09,1,.57a5.37,5.37,0,0,0,0,1.19,4.35,4.35,0,0,0,.4,1.5s0,.35,0,.4c0,.57-.26,3.3-1,3.39,0-.13-.31-.09-.35-.09h-.26a1.14,1.14,0,0,1-.22.09l-.53-.09h-.22c-.71,0-1.45.44-1.94.44a13.26,13.26,0,0,1-2-.35h-.13s-.09.09-.09.13v0a7,7,0,0,0,.66,1.76v1.32s-.13.26-.13.31a1,1,0,0,1,.13.22v0c0,.22-.13.35-.13.66A2.48,2.48,0,0,0,14,14.31l-.09.18.13,3.88c.4.09,0,.84.31,1a3.65,3.65,0,0,1,.26,1.45c0,.71-.48,1.19-.48,1.89a.92.92,0,0,0,.13.57V27.3c0,.53-.22.44-.22.79s.22.92.22,1.37c0,2.07-.7,1.89-2.38,2.11a9.51,9.51,0,0,0-1.19.22H9.25c-.18,0-.88-.09-.88-.22C6.91,31.49,6.43,30.91,6.43,29.46Z"/><path d="M18.49,30.21v-.57c0-.44,0-1.89.26-2.16a20.37,20.37,0,0,0,.31-3.61c.22-.13.22-.62.31-.88s.31-.57.4-.92c.22-1.19.31-2.33.48-3.52a7.54,7.54,0,0,0,.57-2.64s-.09-.18-.09-.22l0,0c.26,0,.26-.44.35-.66a38.19,38.19,0,0,0,.75-5.55c.79-.31.35-3.35,1.28-4V4c0-.18.79-3,.79-3.13.13,0,.71-.13.88-.13s.26.09.4.09.22,0,.26-.09A8.26,8.26,0,0,0,27.48.66L28.71.35s.26,0,.31,0,.18-.09.22-.09.48.13.53.13.79-.09.92-.09.44,0,.57,0,.35.09.4.09l.09,0s.22,0,.31,0,.53,0,.7-.09h.71c1.63,0,1.58.57,2.07,1.94l.35.62s0,.13,0,.18v.18l-.18.22a.2.2,0,0,0,.13.13c-.13,1.37.7,2.42.84,3.7,0,.13,0,1,0,1.15s.35,1.23.35,1.41a6.57,6.57,0,0,1,.09.92c.35.09.09.75.4.88v1.41l.09.13v1.1l.18.09a17.12,17.12,0,0,0,.44,1.76,8.58,8.58,0,0,1,.26,2.07h.18l.18,1.8.18.09v1.32a7.48,7.48,0,0,1,.57,2.33l0,0v.09a.93.93,0,0,0-.13.31v.09c0,.13,0,1.32.22,1.36.18.71.18,2.2.66,2.86v1.72c0,.22-.13.26-.26.26-.48,0-.22-.71-.53-.71s-.35.09-.53.09c-.44,0-.92-.18-1.37-.22s-1.23.44-1.85.4h-.18a2.34,2.34,0,0,0-.44-.26h-1.1L34,29.68l-.22.22h-.09c-1.45-1.19-1-2.51-1.32-4.09,0,0-.22-.44-.22-.48v-.09s.13-.44.09-.48v-.13A14,14,0,0,1,32,23.08c0-.22.13-.44.13-.71,0-.44-.26-1-.26-1.5H31.7s-.13-.79-.22-.79c-.62,0-1.23.31-1.85.31,0,0-.18-.13-.22-.13h-.57c-.35,0-1.94.26-2.29.26a14.67,14.67,0,0,0-.26,4.14,2.1,2.1,0,0,0-.09,1,2.35,2.35,0,0,1-.22.79c-.09.79-.09,1.63-.13,2.42s.44,2.73-1.06,2.69c-.18,0-.22-.22-.48-.22,0,0-.13,0-.13.09l-2.33,0-.66.09a7,7,0,0,1-1.59-.26C19.42,30.87,18.67,30.83,18.49,30.21ZM29.94,15.85c.35,0,.75,0,.75-.4,0,0,0-.31-.18-.31s0-.62,0-.66c0-.44-.13-1.81.22-2a21.46,21.46,0,0,1-.48-2.42c0-.18,0-.35.09-.44V8.46a2.06,2.06,0,0,0,.18-.71,1.31,1.31,0,0,0-1-.57h0l-.22.09-.31.13c-.75.09-1.19,0-1.19.84,0,.18,0,1.45,0,1.63s-.22.79-.22.92a2,2,0,0,0,0,.88c-.48.09.09,1.58-.44,2v1.06a.2.2,0,0,1,.13.13c0,.4-.26.48-.26.57v.09s.09.09.09.13h2.25C29.37,15.9,29.68,15.85,29.94,15.85Z"/><path d="M43,31.31h-.35c-.09-.13,0-.22,0-.4,0-.44,0-.75,0-1.1s-.18-.84-.18-1.28.13-.88.13-1.37-.13-.57-.13-.92c0-1.37.13-2.51.13-3.92,0-.35.18-.44.18-.7s-.13-.18-.13-.35.13-.18.13-.35,0-.13-.13-.18c.09-2.42-.13-4.8,0-7.27-.13,0-.22-.84-.22-1,0-.66.22-1.32.22-2.07l0-.13a3.08,3.08,0,0,0-.18-.84l-.09-.09c0-.18,0-.79,0-.88,0-.53.13-1,.13-1.41,0-.62-.18-1.19-.18-1.76V5.11c0-.13.09-1.32.09-1.41s0-1.32,0-1.5.09-.75.09-.79-.09-.53.18-.48l0-.09s.13-.09.18-.09c.44,0,.7.4,1.14.4h0a1.3,1.3,0,0,1,.4-.09c.18,0,1,.35,1.19.4,0,0,0,0,0,0a9.17,9.17,0,0,0,1,.13h.13l1.37.31.13.09a25.4,25.4,0,0,0,.09,2.64c-.18.26-.09.79-.09,1.06v.7a1.74,1.74,0,0,1,.18.92c0,1.15-.18,2.38-.18,3.52v.31s.09.31.09.35c0,.71-.31,1.23-.31,1.89s.22,1.37.22,2.07c0,.31-.18.7-.18,1,0,0,0,.75,0,.84v.48s.09.09.13.09a28.27,28.27,0,0,0,.31,2.86c0,.75-.22,1.54-.22,2.29,0,1.14.31,1,1.37,1.28,0,.18.4.18.48.18a3.12,3.12,0,0,0,.62,0,8.79,8.79,0,0,1,2.6-.35h.57s.13,0,.13.09h.13s.13-.09.18-.09h.13a.09.09,0,0,1,.09.09,2.06,2.06,0,0,1,1.23.31c0,.92.22,1.67.22,2.55,0,.48-.22,1-.22,1.54v1.89c-.09,1.63-2.33.75-2.47,1.28H51.74l-.44.09h-.13c-.18,0-.31-.09-.48-.09s-.18.09-.31.09c-.44,0-.92-.18-1.32-.18-.18,0-1.28,0-1.45,0s-.48-.18-.7-.26a4.75,4.75,0,0,0-1.59-.22C44.52,31.18,43.77,31.31,43,31.31ZM42.75,1.72c.09,0,.09-.26,0-.26S42.62,1.72,42.75,1.72Z"/><path d="M57.51,27.43c0-1.67-.44-3.35-.44-5,0-.4.31-.92.31-1.28l-.09-.26s0-.18,0-.26c0-.44.18-.75.18-1.19a7,7,0,0,0-.13-1.67s-.18-.44-.22-.53v-.48c0-.53.22-1,.22-1.54,0-.79,0-1.58-.09-2.38l-.13-.4a2.8,2.8,0,0,1-.09-.31l.09,0c-.13,0-.09-.35-.09-.4a11,11,0,0,0,.09-1.76s.13-.13.13-.18c0-.57-.31-1.23-.31-1.81s.18-1.06.18-1.59c0,0,0-.44-.18-.53.13-.66-.44-5.5-.4-5.42h1.72A9.87,9.87,0,0,0,59.27.09,11.79,11.79,0,0,0,61,.09l.4-.09a1.87,1.87,0,0,0,.31.22c.18.09,1.63.13,1.67.31v.92c0,1-.09,2-.09,3,0,.35.09.66.09,1s-.18.75-.18,1.28a6.22,6.22,0,0,0,.09.79A15,15,0,0,0,63.67,10v0A1.25,1.25,0,0,0,64,9.16h.13c.18-.7.35-1.45.57-2.16,0,0,.09-.13.13-.18.26-.35.57-1.1.79-1.19l.62-1.89c.13-.48.62-.79.62-1.28.09,0,.22-.7.35-.57l.31-.57.22,0a3.46,3.46,0,0,1,1.37.31l1.72.31c.48.09.84.66,1.32.84l1.1.31c.18,0,.53.26.53.48,0,0-.09.26-.13.26s0,.13-.09.13V4a20.31,20.31,0,0,1-2,3c.18.57-.57,1.1-.84,1.58,0,.13,0,.4-.09.62a3.18,3.18,0,0,1-.79,1.06s0,.09,0,.13a10.48,10.48,0,0,1-.92,1.5l-.4.4a3.24,3.24,0,0,0-.18.7,7.35,7.35,0,0,0-.84,2.25c0,.4,1,1.72,1.23,1.54.18.18.35,1,.66,1v.18h.13c.92.7,1.14,2.11,1.81,3.08a.09.09,0,0,0,.09.09c.22.18,2.16,2.38,2.11,2.82.13.13.79.75.92.92a2.12,2.12,0,0,0,.18.48c.22.48.88.66.88,1.23a2.45,2.45,0,0,1-1.36,2.2l-.4,0a2.88,2.88,0,0,0-.31.13s-.09.18-.13.18c-.26.31-1.28.44-1.5.7,0,0-.18.4-.18.44h-.26a2.4,2.4,0,0,1-1.67-1.14c-.13-.26,0-.84-.18-1.06,0,0-.31-.09-.31-.13a7.88,7.88,0,0,1-.62-.57c-.22-.35-.66-1.37-1.1-1.45l-.62-1.19c0,.09-.66-.79-.75-.88a3.42,3.42,0,0,0-1-2.11,2,2,0,0,1-.44-.22s-.13-.62-.18-.7a.64.64,0,0,1-.09-.18.16.16,0,0,0-.13.18v.13a12.55,12.55,0,0,0,.13,1.28v.09c0,.4-.13.84-.13,1.28,0,.92.18,1.85.18,2.77v.26c0,.26,0,1.5,0,1.72s-.09,1.37-.09,1.5-.26,1.15-.53,1.15H63.8c-.31,0-.84,0-1-.31h-.44c-1.28,0-2.2.62-3.43.62-2.2,0-.62-1.06-1.54-2.2A6.63,6.63,0,0,0,57.51,27.43Zm7-5.37c-.09,0-.09-.18,0-.18S64.6,22.06,64.51,22.06Zm3.39-8.32a.09.09,0,1,0,0-.18C67.81,13.56,67.81,13.74,67.9,13.74ZM72.52,5.5c.09,0,.09-.18,0-.18S72.43,5.5,72.52,5.5Z"/><path d="M78.29,31.35c-.09,0-.26,0-.26,0l-.13.09s-.22,0-.31,0c-.53,0-1,0-1-.66v-.31s.09,0,.13-.26.13-.57.09-.57h-.26c.09,0,.09-.26.09-.35a2.48,2.48,0,0,0,0-.31l0,0c0-.57.35-.79.35-1.28a1.59,1.59,0,0,0-.18-.88V22.63s-.09-.48-.13-.57v0c0-.57.22-1.19.22-1.76,0-.22-.26-.48-.26-.71v-.09c0-.09,0-.44,0-.53s0-1.32,0-1.54c0-1.59-.18-3-.09-4.67,0,0-.13-.18-.13-.18a10.71,10.71,0,0,1-.13-1.1V5.5a2.51,2.51,0,0,1,0-.57V4.76c0-.13,0-1,0-1.15v0c0-.48-.35-1.06-.35-1.54S76.18.7,76.75.7a5.9,5.9,0,0,1,2.16.22L79,1s.26-.09.31-.09h1.1a3.72,3.72,0,0,1,.92.09v.13c.13,0,.84,0,.88.09s.31,1.85.4,2.2l.09.18a1,1,0,0,1,0,.18c0,.35-.22.57-.22,1s.31.7.31,1c0,.48-.22,1.1-.22,1.63a.37.37,0,0,0,.09.31c0,1.54.22,3.13.13,4.67.22,0,.18.18.18.35a6.23,6.23,0,0,1-.18,1.1V14s.09,0,.09.09V15s.09.44.09.48-.09.44-.09.48v3a1,1,0,0,0-.09.48.8.8,0,0,0,.09.44A30.91,30.91,0,0,1,83,23.34a5.48,5.48,0,0,1,.22,1.94c0,.22,0,1.23.09,1.41a1.08,1.08,0,0,1,.22.75v0a4,4,0,0,1-.13.71v.13c0,.09,0,.13.13.18v.57a4.67,4.67,0,0,1-.22,1.54c0,.18-.44.18-.44.44-1.1,0-2,.66-3.13.66a.63.63,0,0,0-.13-.09A3.72,3.72,0,0,0,78.29,31.35ZM78.29,1a.09.09,0,1,0,0-.18C78.2.84,78.2,1,78.29,1ZM82.12,31.4a.09.09,0,1,1,0-.18C82.21,31.22,82.21,31.4,82.12,31.4Z"/><path d="M85.69,28v-.79c0-.13.09-1.32.09-1.5,0-.71-.22-1.45-.22-2.16s.13-1.23.13-1.89-.13-1.19-.13-1.81a.37.37,0,0,1,.13-.35V17.13l.09-.13s0-.31,0-.44c0-.44-.13-.88-.13-1.32s.13-.75.13-1.1-.13-.44-.13-.75c0-.13.09-.18.09-.31V13s-.09-.22-.09-.26V11.49c0-1.28.13-2.55.13-3.83a23.16,23.16,0,0,0-.26-4.27c0-.48-.26-1.1-.26-1.54v0s.22-.18.22-.22a1.46,1.46,0,0,0-.13-.26c0-.09.13-.22.18-.22h2.16L87.8,1h1l.22,0a1,1,0,0,1,.4-.13h0c.09,0,.7.09.75.18a9.15,9.15,0,0,1,1.89.13s.09.09.13.09A2.38,2.38,0,0,1,93.31,3a.15.15,0,0,1,.09,0c.48.48.31,1.23.62,1.81a9.71,9.71,0,0,0,.62.79c.13.26,1.06,2.38,1.19,2.82,0,0,0,.35,0,.4a3.37,3.37,0,0,0,.4.4,10.82,10.82,0,0,1,.4,1.1,15.09,15.09,0,0,0,.7,1.5l.4.53s.09.48.13.57A12.6,12.6,0,0,0,99.51,16c.18.31.26,1,.62,1.19V17c0-.22-.13-.44-.13-.66s.13-.4.13-.71c0-.66-.35-.88-.35-1.85v0s.13-.22.13-.26a3.63,3.63,0,0,0,.09-.4c0-.13-.09-1.1-.09-1.23s.09-.44.09-.48,0-.26,0-.31,0-.4-.13-.4a16.89,16.89,0,0,0-.13-3.3,5.11,5.11,0,0,0-.18-.79V6.3a15,15,0,0,0,.31-1.5c0-.13-.09-1.14-.13-1.32V3.26c0-.44.13-1.06.7-1.06a6.91,6.91,0,0,1,1.45.18s.35.18.48.22a.65.65,0,0,1,.18.09,7.45,7.45,0,0,1,3.21.71v.26c0,.18-.09.31-.09.48s0,.7.31.88a15.25,15.25,0,0,1,.09,2.42V9.12s-.09.13-.09.18v0c0,1.1.18,2.16.18,3.26v1.19a.46.46,0,0,0-.09.22v.92L106,15V16.6l-.09.13a7.86,7.86,0,0,0-.13.88,7.84,7.84,0,0,0-.13,1c0,.53.26,1.06.26,1.5s-.13.75-.13,1.1.13.92.13,1.41v.7c-.13.22-.26.22-.26.49s.13.22.13.44a8.75,8.75,0,0,0-.18,1.59c-.13,0-.13.09-.13.18s.13.44.13.62c0,.48-.09.92-.09,1.36v.35s.09.79.09.88c0,2-3.17,1.1-3.3,1.72h-1a3.94,3.94,0,0,0-1.19-.26l-.22,0s-.26.09-.31.09c-.79-.13-.7-.88-.88-1.41l-.35-.26a9.61,9.61,0,0,1,0-1.15c0-.18-.35-.57-.44-.79l-.4-1.15c-.35-.26-.66-2.29-.88-2.73a.59.59,0,0,1-.13-.22,7.8,7.8,0,0,1-.88-2A4,4,0,0,1,95,19.46s-.22.09-.22,0a16.86,16.86,0,0,1-1.37-3h-.13c0-.13-.31-.84-.66-.84,0-.31-.35-.4-.44-.66a2,2,0,0,0-.13-.48S92,14.44,92,14.4v2.51a9,9,0,0,1,.62,2.64c0,.4-.13.71-.13,1.1,0,.62.53,1.06.53,1.63,0,.31-.13.57-.13.88,0,.92.35,1.81.35,2.73,0,.18-.13.4-.13.62v.09a3,3,0,0,1,.13.53v1.8a.82.82,0,0,1,.09.31s-.09.09-.09.09a.59.59,0,0,0-.13.22v1.67c0,.53-1,.53-1.41.53h-.62a.44.44,0,0,0,0-.13s-.31.13-.35.13-.13-.13-.18-.13l-.09.13h-.26c-.44,0-.84-.22-1.23-.22s-.88.22-1.32.22a3.88,3.88,0,0,1-1.81-.53C85.82,30.17,85.69,29.11,85.69,28Z"/><path d="M115.67,31.57h-.09v-.13a3.78,3.78,0,0,1-1.72-.57c-.13,0-.22-.22-.35-.26-.31-.18-1.45-.18-1.41-.88-.53,0-.62-.22-1-.57a6.89,6.89,0,0,1-1.19-1.32c-.4-.57-.22-1-.79-1.54l0-1s0-.22-.09-.22-.31-.35-.31-.44a4.56,4.56,0,0,1-.13-.53.44.44,0,0,0-.13,0,13.69,13.69,0,0,1-.44-3v-.31a3.05,3.05,0,0,1,.13-.35s-.09-.44-.09-.48v-.13c0-.13.09-.26.09-.4s-.18-.22-.18-.44a.32.32,0,0,1,.09-.26l.09-2.6s-.22-.26-.26-.26v-.18l.09-.09a5.08,5.08,0,0,1,0-.88v-.26a6.87,6.87,0,0,1,.22-1,1,1,0,0,0,0-.18l.22-.31s-.09-.35-.09-.35V12a4.85,4.85,0,0,1,.4-1.37,13.35,13.35,0,0,0,.22-3c.13,0,.13-.44.18-.62l.22-.26s0-.4,0-.44c.22-.48.48-.22.4-1,.44-.18.35-.66.53-1.06A4.56,4.56,0,0,1,111.62,3h.13c.22,0,.66-.66.84-.75s0,0,.09,0a3.63,3.63,0,0,1,1.41-.84l.88-.09a4.32,4.32,0,0,1,1.28-.4c.26,0,.53.09.84.09s.75-.18,1.15-.18h.18c.09,0,.66.18.75.18a6.5,6.5,0,0,0,.92,0l.4.09s.22,0,.26,0,0,.31.09.31,1.1.13,1.19.18.26.18.26.18c.53.31,1.15.26,1.72.53.13.09.31.48.62.35A8.12,8.12,0,0,1,125.54,4c.18.35.13.88.35,1.23a5.19,5.19,0,0,1,.71,2.2c0,1.54-.88,1.45-2,1.76,0,0-.31.22-.35.22a1.88,1.88,0,0,1-.48.09l-.09.18a.65.65,0,0,0-.4-.09c-.22,0-.31.09-.49.09,0,0-.09-.09-.13-.09-.7,0-1.54,1.1-2.07,1.1a.44.44,0,0,1-.13,0l-.09,0s-.22,0-.26,0a.46.46,0,0,0-.09-.22s0-.62,0-.71c0-.31-.31-.57-.4-.84s-.09-.75-.44-.92c-.66-.44-.57-.71-1.54-.71a3.32,3.32,0,0,0-1.89.79h-.13c-.35.53-.75,2.77-1.06,2.91v1.5c-.09.09-.09.26-.13.4s.13.26.13.44-.18.31-.22.53a10.85,10.85,0,0,0-.13,2.07c0,.18,0,1,0,1.1a1.32,1.32,0,0,1,.09.66c0,.35-.22.71-.22,1.15h.09l.22,1.37c.09.26.26.44.26.66.26,1.5.31,2.64,1.41,3.7a5.59,5.59,0,0,0,1.5.18l.44,0c.13-.22.79-.13,1.06-.26a1.86,1.86,0,0,0,.62-.26c0-.18.92-.84,1.14-1.23a4,4,0,0,0,.31-1.94V20.7c-.71,0-1.41.13-2.11.18-.31,0-.7.18-1,.18-.13,0-.18-.09-.26-.26s0-1.19,0-1.37l.18-2.16c0-.35-.18-.71-.18-1a.67.67,0,0,1,.62-.75.64.64,0,0,1,.31.09c.79,0,1.45.09,2.25.09.31,0,.88.09,1-.26,1.54.09,3-.13,4.49-.13.53,0,1.15.09,1.63.13a8.7,8.7,0,0,1,.35,2.33,3.5,3.5,0,0,0-.13.66h.09c0,.44.66.66.62,1.14l-.09,2.64a10.11,10.11,0,0,1,.35,1.89s.09.09.09.13c0,.26-.18.66-.18.92s0,.66.22.79V27c.13,0,.09.57.09.75v1.37a11,11,0,0,1-1.06.66c-.18.09-.66.35-.7.35h-1c-.26,0-.92.44-1.28.44-.66,0-.88-2.55-1.06-3.08-.22.92-1,1.19-1.41,1.85-.18.18-.4.57-.57.71s-.26,0-.26,0c-.35.09-.53.53-.71.62,0,0-.22,0-.26,0-.53.18-.92.66-1.5.66h-.18l-.26-.09s-.31.09-.35.09h-.13c-.09,0-.18,0-.22-.09-.13.31-.79.35-1,.35-.44,0-.88-.18-1.19-.18A3.51,3.51,0,0,0,115.67,31.57Zm-.44-22.81c.09,0,.09-.18,0-.18S115.19,8.76,115.23,8.76Z"/><path d="M146.05,2.64c.13,0,1-.79,1.19-.88a8.4,8.4,0,0,1,2.25-.57c.18,0,.31.13.48.13s.35,0,.53-.35A8.52,8.52,0,0,0,152,1a6.43,6.43,0,0,0,1.06-.31l.13-.13h1c0-.13.18-.09.31-.09h.13s.13.09.13.09A2.8,2.8,0,0,0,155,.44s.13.09.13.09a1.13,1.13,0,0,1,.22-.09h.09A2.28,2.28,0,0,0,156,.31h.09a4.27,4.27,0,0,0,.66.13h.18c0,.18.92.31.71.53l1.06.22c.18.31.53.18.66.35s1.23,1,1.23,1a5.58,5.58,0,0,1,.48,1.19c.09.4-.09,1.58.44,1.85.13.92.22,1.94.31,2.86v.35c0,.13-.09,1.28-.09,1.41v.57a2.8,2.8,0,0,1,.09.31.65.65,0,0,1-.09.18c0,.09,0,.57,0,.66h-.09a4.34,4.34,0,0,1-.7.22c-.88.09-1.85-.18-2.64.22h0s-.31-.09-.35-.09h-.09a1.13,1.13,0,0,0-.22.09s-.26-.09-.35-.09a2.06,2.06,0,0,0-.44-.22,4.61,4.61,0,0,0-1.1,0s-.09-.09-.09-.13c-.35-.48-.66-4.76-1.28-4.76-.31,0-2.6.18-2.69.57,0,0,.09.18.09.22-.09.31-.44.4-.44.79a13.11,13.11,0,0,0,.22,3c.09.31,1,.48,1.19.57s.18.18.18.22a19.35,19.35,0,0,1,4.05,2.29l1,.31a1.32,1.32,0,0,0,.35.18s.44,0,.48,0a4.16,4.16,0,0,0,.44.44s.22,0,.22,0a2.43,2.43,0,0,1,1.94,2.11v3a5.33,5.33,0,0,0,.31,1.63l-.31.79a1.46,1.46,0,0,0-.13.26s.13.57.13.66v.18c0,.09,0,.22-.13.26v1.32H161c0,.26,0,1.45,0,1.72v.18a5.46,5.46,0,0,1-.4,2A2.88,2.88,0,0,1,160,30c-.4.09-.57.53-.88.75-.84.62-2.25.62-3.13.79a7.44,7.44,0,0,1-1.5.4c-.44,0-.88-.31-1.28-.31a6.39,6.39,0,0,0-1.32.18,1.43,1.43,0,0,0-.22.13l-.09.09h-.13l-.44-.22h-2.91c-.22,0-1-.09-1.19-.09-.22-.35-.92-.31-.92-.88-.84,0-1-1-1-1.58l-.13.09a1.15,1.15,0,0,1-.13-.35V27.26c-.18,0-.09-.18-.09-.31a7.17,7.17,0,0,1-.18-.84c0-.13.18-1.1.18-1.23V23.08a3.76,3.76,0,0,1,.22-1.32c.09-.22.22,0,.44-.09,0,0,.18-.22.22-.22a12,12,0,0,1,3.74-.48l.71,0c.66.4.53,1.36,1.06,1.63-.13,0-.13.13-.13.22s.13.18.13.26v.09l-.09.09a7.09,7.09,0,0,0-.22.92v.13c0,.44.13,2.16.75,2.16.79,0,2.11-.35,2.38-1.19a2.35,2.35,0,0,1,.22-.88V21.31c0-.44-.7-.84-1.06-.84-.13,0-.13.13-.26.13h-.09a.53.53,0,0,0-.22-.22c-.4-.13-.79,0-1.19-.22h-1.19c-.62-.09-1.1-.66-1.72-.79-1.41-.26-2,0-2.73-1.32-.09-.18-.4-.48-.44-.7s.13-.79.13-.88v-.62c0-1-.79-2.6-.79-3.61,0-.62.26-1.19.26-1.85s-.13-1.15-.13-1.76.31-1,.31-1.41a1.88,1.88,0,0,0-.22-.53V5.2a2.49,2.49,0,0,0,.13-.22l.09-.09Z"/><path d="M170,29.46c0-.44.09-.88.09-1.37,0-1.72-.31-3.52-.31-5.29a.53.53,0,0,1,.09-.35c0-.18,0-1.06,0-1.28a18.43,18.43,0,0,0-.13-3.13,9.34,9.34,0,0,1-.22-1.94V12.73a2.14,2.14,0,0,0-.13-.92V8h-2.16a1.15,1.15,0,0,0-.35.13l-.09.22s-.53-.13-.57.09h-2.11c-.44,0-.57-.26-.57-.62a10.54,10.54,0,0,1,.22-1.14,23.44,23.44,0,0,0,.35-3.08c0-.53-.35-1.06-.35-1.63a.37.37,0,0,1,.13-.35,1.52,1.52,0,0,0,.88-.09h3.44a8.68,8.68,0,0,0,1.06-.13c.09-.22.22-.22.4-.22h.18s.4.13.44.13.57-.13.66-.13h2l.13-.09L174.37,1h.13c.31,0,.48.22.79.22s.62-.13,1.06-.13a11.56,11.56,0,0,1,1.63.13c0,.18.48.22.53.22A25,25,0,0,0,181,1.19a.33.33,0,0,0,.31.13h.13a2.33,2.33,0,0,1,.53-.13c.4,0,.84.09,1,.57A5.37,5.37,0,0,0,183,3a4.35,4.35,0,0,0,.4,1.5s0,.35,0,.4c0,.57-.26,3.3-1,3.39,0-.13-.31-.09-.35-.09h-.26a1.14,1.14,0,0,1-.22.09L181,8.15h-.22c-.71,0-1.45.44-1.94.44a13.26,13.26,0,0,1-2-.35h-.13s-.09.09-.09.13v0a7,7,0,0,0,.66,1.76v1.32s-.13.26-.13.31a1,1,0,0,1,.13.22v0c0,.22-.13.35-.13.66a2.48,2.48,0,0,0,.44,1.58l-.09.18.13,3.88c.4.09,0,.84.31,1a3.65,3.65,0,0,1,.26,1.45c0,.71-.48,1.19-.48,1.89a.92.92,0,0,0,.13.57V27.3c0,.53-.22.44-.22.79s.22.92.22,1.37c0,2.07-.7,1.89-2.38,2.11a9.51,9.51,0,0,0-1.19.22h-1.5c-.18,0-.88-.09-.88-.22C170.49,31.49,170,30.91,170,29.46Z"/><path d="M182.07,30.21v-.57c0-.44,0-1.89.26-2.16a20.37,20.37,0,0,0,.31-3.61c.22-.13.22-.62.31-.88s.31-.57.4-.92c.22-1.19.31-2.33.48-3.52a7.54,7.54,0,0,0,.57-2.64s-.09-.18-.09-.22l0,0c.26,0,.26-.44.35-.66a38.19,38.19,0,0,0,.75-5.55c.79-.31.35-3.35,1.28-4V4c0-.18.79-3,.79-3.13.13,0,.71-.13.88-.13s.26.09.4.09.22,0,.26-.09a8.26,8.26,0,0,0,2.07-.09l1.23-.31s.26,0,.31,0,.18-.09.22-.09.48.13.53.13.79-.09.92-.09.44,0,.57,0,.35.09.4.09l.09,0s.22,0,.31,0,.53,0,.7-.09H197c1.63,0,1.58.57,2.07,1.94l.35.62s0,.13,0,.18v.18l-.18.22a.2.2,0,0,0,.13.13c-.13,1.37.7,2.42.84,3.7,0,.13,0,1,0,1.15s.35,1.23.35,1.41a6.57,6.57,0,0,1,.09.92c.35.09.09.75.4.88v1.41l.09.13v1.1l.18.09a17.12,17.12,0,0,0,.44,1.76,8.58,8.58,0,0,1,.26,2.07h.18l.18,1.8.18.09v1.32a7.48,7.48,0,0,1,.57,2.33l0,0v.09a.93.93,0,0,0-.13.31v.09c0,.13,0,1.32.22,1.36.18.71.18,2.2.66,2.86v1.72c0,.22-.13.26-.26.26-.48,0-.22-.71-.53-.71s-.35.09-.53.09c-.44,0-.92-.18-1.37-.22s-1.23.44-1.85.4h-.18a2.34,2.34,0,0,0-.44-.26h-1.1l-.22-.13-.22.22h-.09c-1.45-1.19-1-2.51-1.32-4.09,0,0-.22-.44-.22-.48v-.09s.13-.44.09-.48v-.13a14,14,0,0,1-.26-1.54c0-.22.13-.44.13-.71,0-.44-.26-1-.26-1.5h-.13s-.13-.79-.22-.79c-.62,0-1.23.31-1.85.31,0,0-.18-.13-.22-.13h-.57c-.35,0-1.94.26-2.29.26a14.67,14.67,0,0,0-.26,4.14,2.1,2.1,0,0,0-.09,1,2.35,2.35,0,0,1-.22.79c-.09.79-.09,1.63-.13,2.42s.44,2.73-1.06,2.69c-.18,0-.22-.22-.48-.22,0,0-.13,0-.13.09l-2.33,0-.66.09a7,7,0,0,1-1.59-.26C183,30.87,182.25,30.83,182.07,30.21Zm11.45-14.36c.35,0,.75,0,.75-.4,0,0,0-.31-.18-.31s0-.62,0-.66c0-.44-.13-1.81.22-2a21.46,21.46,0,0,1-.48-2.42c0-.18,0-.35.09-.44V8.46a2.06,2.06,0,0,0,.18-.71,1.31,1.31,0,0,0-1-.57h0l-.22.09-.31.13c-.75.09-1.19,0-1.19.84,0,.18,0,1.45,0,1.63s-.22.79-.22.92a2,2,0,0,0,0,.88c-.48.09.09,1.58-.44,2v1.06a.2.2,0,0,1,.13.13c0,.4-.26.48-.26.57v.09s.09.09.09.13H193C193,15.9,193.26,15.85,193.52,15.85Z"/><path d="M206.55,31.31h-.35c-.09-.13,0-.22,0-.4,0-.44,0-.75,0-1.1S206,29,206,28.54s.13-.88.13-1.37-.13-.57-.13-.92c0-1.37.13-2.51.13-3.92,0-.35.18-.44.18-.7s-.13-.18-.13-.35.13-.18.13-.35,0-.13-.13-.18c.09-2.42-.13-4.8,0-7.27-.13,0-.22-.84-.22-1,0-.66.22-1.32.22-2.07l0-.13a3.08,3.08,0,0,0-.18-.84l-.09-.09c0-.18,0-.79,0-.88,0-.53.13-1,.13-1.41,0-.62-.18-1.19-.18-1.76V5.11c0-.13.09-1.32.09-1.41s0-1.32,0-1.5.09-.75.09-.79-.09-.53.18-.48l0-.09s.13-.09.18-.09c.44,0,.7.4,1.14.4h0a1.3,1.3,0,0,1,.4-.09c.18,0,1,.35,1.19.4,0,0,0,0,0,0a9.17,9.17,0,0,0,1,.13h.13l1.37.31.13.09a25.4,25.4,0,0,0,.09,2.64c-.18.26-.09.79-.09,1.06v.7a1.74,1.74,0,0,1,.18.92c0,1.15-.18,2.38-.18,3.52v.31s.09.31.09.35c0,.71-.31,1.23-.31,1.89s.22,1.37.22,2.07c0,.31-.18.7-.18,1,0,0,0,.75,0,.84v.48s.09.09.13.09a28.27,28.27,0,0,0,.31,2.86c0,.75-.22,1.54-.22,2.29,0,1.14.31,1,1.37,1.28,0,.18.4.18.48.18a3.12,3.12,0,0,0,.62,0,8.79,8.79,0,0,1,2.6-.35h.57s.13,0,.13.09h.13s.13-.09.18-.09h.13a.09.09,0,0,1,.09.09,2.06,2.06,0,0,1,1.23.31c0,.92.22,1.67.22,2.55,0,.48-.22,1-.22,1.54v1.89c-.09,1.63-2.33.75-2.47,1.28h-1.63l-.44.09h-.13c-.18,0-.31-.09-.48-.09s-.18.09-.31.09c-.44,0-.92-.18-1.32-.18-.18,0-1.28,0-1.45,0s-.48-.18-.7-.26a4.75,4.75,0,0,0-1.59-.22C208.1,31.18,207.35,31.31,206.55,31.31Zm-.22-29.59c.09,0,.09-.26,0-.26S206.2,1.72,206.33,1.72Z"/><path d="M221.09,27.43c0-1.67-.44-3.35-.44-5,0-.4.31-.92.31-1.28l-.09-.26s0-.18,0-.26c0-.44.18-.75.18-1.19a7,7,0,0,0-.13-1.67s-.18-.44-.22-.53v-.48c0-.53.22-1,.22-1.54,0-.79,0-1.58-.09-2.38l-.13-.4a2.8,2.8,0,0,1-.09-.31l.09,0c-.13,0-.09-.35-.09-.4a11,11,0,0,0,.09-1.76s.13-.13.13-.18c0-.57-.31-1.23-.31-1.81s.18-1.06.18-1.59c0,0,0-.44-.18-.53.13-.66-.44-5.5-.4-5.42h1.72a9.87,9.87,0,0,0,1.06-.31,11.79,11.79,0,0,0,1.76,0L225,0a1.87,1.87,0,0,0,.31.22c.18.09,1.63.13,1.67.31v.92c0,1-.09,2-.09,3,0,.35.09.66.09,1s-.18.75-.18,1.28a6.22,6.22,0,0,0,.09.79,15,15,0,0,0,.35,2.51v0a1.25,1.25,0,0,0,.31-.75h.13c.18-.7.35-1.45.57-2.16,0,0,.09-.13.13-.18.26-.35.57-1.1.79-1.19l.62-1.89c.13-.48.62-.79.62-1.28.09,0,.22-.7.35-.57l.31-.57.22,0a3.46,3.46,0,0,1,1.37.31l1.72.31c.48.09.84.66,1.32.84l1.1.31c.18,0,.53.26.53.48,0,0-.09.26-.13.26s0,.13-.09.13V4a20.31,20.31,0,0,1-2,3c.18.57-.57,1.1-.84,1.58,0,.13,0,.4-.09.62a3.18,3.18,0,0,1-.79,1.06s0,.09,0,.13a10.48,10.48,0,0,1-.92,1.5l-.4.4a3.24,3.24,0,0,0-.18.7,7.35,7.35,0,0,0-.84,2.25c0,.4,1,1.72,1.23,1.54.18.18.35,1,.66,1v.18h.13c.92.7,1.14,2.11,1.81,3.08A.09.09,0,0,0,235,21c.22.18,2.16,2.38,2.11,2.82.13.13.79.75.92.92a2.12,2.12,0,0,0,.18.48c.22.48.88.66.88,1.23a2.45,2.45,0,0,1-1.36,2.2l-.4,0a2.88,2.88,0,0,0-.31.13s-.09.18-.13.18c-.26.31-1.28.44-1.5.7,0,0-.18.4-.18.44H235a2.4,2.4,0,0,1-1.67-1.14c-.13-.26,0-.84-.18-1.06,0,0-.31-.09-.31-.13a7.88,7.88,0,0,1-.62-.57c-.22-.35-.66-1.37-1.1-1.45l-.62-1.19c0,.09-.66-.79-.75-.88a3.42,3.42,0,0,0-1-2.11,2,2,0,0,1-.44-.22s-.13-.62-.18-.7a.64.64,0,0,1-.09-.18.16.16,0,0,0-.13.18v.13a12.55,12.55,0,0,0,.13,1.28v.09c0,.4-.13.84-.13,1.28,0,.92.18,1.85.18,2.77v.26c0,.26,0,1.5,0,1.72s-.09,1.37-.09,1.5-.26,1.15-.53,1.15h-.09c-.31,0-.84,0-1-.31h-.44c-1.28,0-2.2.62-3.43.62-2.2,0-.62-1.06-1.54-2.2A6.63,6.63,0,0,0,221.09,27.43Zm7-5.37c-.09,0-.09-.18,0-.18S228.18,22.06,228.09,22.06Zm3.39-8.32a.09.09,0,1,0,0-.18C231.39,13.56,231.39,13.74,231.48,13.74ZM236.1,5.5c.09,0,.09-.18,0-.18S236,5.5,236.1,5.5Z"/><path d="M241.87,31.35c-.09,0-.26,0-.26,0l-.13.09s-.22,0-.31,0c-.53,0-1,0-1-.66v-.31s.09,0,.13-.26.13-.57.09-.57h-.26c.09,0,.09-.26.09-.35a2.48,2.48,0,0,0,0-.31l0,0c0-.57.35-.79.35-1.28a1.59,1.59,0,0,0-.18-.88V22.63s-.09-.48-.13-.57v0c0-.57.22-1.19.22-1.76,0-.22-.26-.48-.26-.71v-.09c0-.09,0-.44,0-.53s0-1.32,0-1.54c0-1.59-.18-3-.09-4.67,0,0-.13-.18-.13-.18a10.71,10.71,0,0,1-.13-1.1V5.5a2.51,2.51,0,0,1,0-.57V4.76c0-.13,0-1,0-1.15v0c0-.48-.35-1.06-.35-1.54s.26-1.32.84-1.32a5.9,5.9,0,0,1,2.16.22l.09.09s.26-.09.31-.09H244a3.72,3.72,0,0,1,.92.09v.13c.13,0,.84,0,.88.09s.31,1.85.4,2.2l.09.18a1,1,0,0,1,0,.18c0,.35-.22.57-.22,1s.31.7.31,1c0,.48-.22,1.1-.22,1.63a.37.37,0,0,0,.09.31c0,1.54.22,3.13.13,4.67.22,0,.18.18.18.35a6.23,6.23,0,0,1-.18,1.1V14s.09,0,.09.09V15s.09.44.09.48-.09.44-.09.48v3a1,1,0,0,0-.09.48.8.8,0,0,0,.09.44,30.91,30.91,0,0,1,.09,3.48,5.48,5.48,0,0,1,.22,1.94c0,.22,0,1.23.09,1.41a1.08,1.08,0,0,1,.22.75v0a4,4,0,0,1-.13.71v.13c0,.09,0,.13.13.18v.57a4.67,4.67,0,0,1-.22,1.54c0,.18-.44.18-.44.44-1.1,0-2,.66-3.13.66a.63.63,0,0,0-.13-.09A3.72,3.72,0,0,0,241.87,31.35Zm0-30.34a.09.09,0,1,0,0-.18C241.78.84,241.78,1,241.87,1ZM245.7,31.4a.09.09,0,1,1,0-.18C245.79,31.22,245.79,31.4,245.7,31.4Z"/><path d="M249.27,28v-.79c0-.13.09-1.32.09-1.5,0-.71-.22-1.45-.22-2.16s.13-1.23.13-1.89-.13-1.19-.13-1.81a.37.37,0,0,1,.13-.35V17.13l.09-.13s0-.31,0-.44c0-.44-.13-.88-.13-1.32s.13-.75.13-1.1-.13-.44-.13-.75c0-.13.09-.18.09-.31V13s-.09-.22-.09-.26V11.49c0-1.28.13-2.55.13-3.83a23.16,23.16,0,0,0-.26-4.27c0-.48-.26-1.1-.26-1.54v0s.22-.18.22-.22a1.46,1.46,0,0,0-.13-.26c0-.09.13-.22.18-.22h2.16l.09-.13h1l.22,0a1,1,0,0,1,.4-.13h0c.09,0,.7.09.75.18a9.15,9.15,0,0,1,1.89.13s.09.09.13.09A2.38,2.38,0,0,1,256.89,3,.15.15,0,0,1,257,3c.48.48.31,1.23.62,1.81a9.71,9.71,0,0,0,.62.79c.13.26,1.06,2.38,1.19,2.82,0,0,0,.35,0,.4a3.37,3.37,0,0,0,.4.4,10.82,10.82,0,0,1,.4,1.1,15.09,15.09,0,0,0,.7,1.5l.4.53s.09.48.13.57A12.6,12.6,0,0,0,263.09,16c.18.31.26,1,.62,1.19V17c0-.22-.13-.44-.13-.66s.13-.4.13-.71c0-.66-.35-.88-.35-1.85v0s.13-.22.13-.26a3.63,3.63,0,0,0,.09-.4c0-.13-.09-1.1-.09-1.23s.09-.44.09-.48,0-.26,0-.31,0-.4-.13-.4a16.89,16.89,0,0,0-.13-3.3,5.11,5.11,0,0,0-.18-.79V6.3a15,15,0,0,0,.31-1.5c0-.13-.09-1.14-.13-1.32V3.26c0-.44.13-1.06.7-1.06a6.91,6.91,0,0,1,1.45.18s.35.18.48.22a.65.65,0,0,1,.18.09,7.45,7.45,0,0,1,3.21.71v.26c0,.18-.09.31-.09.48s0,.7.31.88a15.25,15.25,0,0,1,.09,2.42V9.12s-.09.13-.09.18v0c0,1.1.18,2.16.18,3.26v1.19a.46.46,0,0,0-.09.22v.92l-.09.09V16.6l-.09.13a7.86,7.86,0,0,0-.13.88,7.84,7.84,0,0,0-.13,1c0,.53.26,1.06.26,1.5s-.13.75-.13,1.1.13.92.13,1.41v.7c-.13.22-.26.22-.26.49s.13.22.13.44a8.75,8.75,0,0,0-.18,1.59c-.13,0-.13.09-.13.18s.13.44.13.62c0,.48-.09.92-.09,1.36v.35s.09.79.09.88c0,2-3.17,1.1-3.3,1.72h-1a3.94,3.94,0,0,0-1.19-.26l-.22,0s-.26.09-.31.09c-.79-.13-.7-.88-.88-1.41l-.35-.26a9.61,9.61,0,0,1,0-1.15c0-.18-.35-.57-.44-.79l-.4-1.15c-.35-.26-.66-2.29-.88-2.73a.59.59,0,0,1-.13-.22,7.8,7.8,0,0,1-.88-2,4,4,0,0,1-.57-1.63s-.22.09-.22,0a16.86,16.86,0,0,1-1.37-3h-.13c0-.13-.31-.84-.66-.84,0-.31-.35-.4-.44-.66a2,2,0,0,0-.13-.48s-.09-.09-.09-.13v2.51a9,9,0,0,1,.62,2.64c0,.4-.13.71-.13,1.1,0,.62.53,1.06.53,1.63,0,.31-.13.57-.13.88,0,.92.35,1.81.35,2.73,0,.18-.13.4-.13.62v.09a3,3,0,0,1,.13.53v1.8a.82.82,0,0,1,.09.31s-.09.09-.09.09a.59.59,0,0,0-.13.22v1.67c0,.53-1,.53-1.41.53h-.62a.44.44,0,0,0,0-.13s-.31.13-.35.13-.13-.13-.18-.13l-.09.13h-.26c-.44,0-.84-.22-1.23-.22s-.88.22-1.32.22a3.88,3.88,0,0,1-1.81-.53C249.4,30.17,249.27,29.11,249.27,28Z"/><path d="M279.25,31.57h-.09v-.13a3.78,3.78,0,0,1-1.72-.57c-.13,0-.22-.22-.35-.26-.31-.18-1.45-.18-1.41-.88-.53,0-.62-.22-1-.57a6.89,6.89,0,0,1-1.19-1.32c-.4-.57-.22-1-.79-1.54l0-1s0-.22-.09-.22-.31-.35-.31-.44a4.56,4.56,0,0,1-.13-.53.44.44,0,0,0-.13,0,13.69,13.69,0,0,1-.44-3v-.31a3.05,3.05,0,0,1,.13-.35s-.09-.44-.09-.48v-.13c0-.13.09-.26.09-.4s-.18-.22-.18-.44a.32.32,0,0,1,.09-.26l.09-2.6s-.22-.26-.26-.26v-.18l.09-.09a5.08,5.08,0,0,1,0-.88v-.26a6.87,6.87,0,0,1,.22-1,1,1,0,0,0,0-.18l.22-.31s-.09-.35-.09-.35V12a4.85,4.85,0,0,1,.4-1.37,13.35,13.35,0,0,0,.22-3c.13,0,.13-.44.18-.62l.22-.26s0-.4,0-.44c.22-.48.48-.22.4-1,.44-.18.35-.66.53-1.06A4.56,4.56,0,0,1,275.2,3h.13c.22,0,.66-.66.84-.75s0,0,.09,0a3.63,3.63,0,0,1,1.41-.84l.88-.09a4.32,4.32,0,0,1,1.28-.4c.26,0,.53.09.84.09s.75-.18,1.15-.18H282c.09,0,.66.18.75.18a6.5,6.5,0,0,0,.92,0l.4.09s.22,0,.26,0,0,.31.09.31,1.1.13,1.19.18.26.18.26.18c.53.31,1.15.26,1.72.53.13.09.31.48.62.35A8.12,8.12,0,0,1,289.12,4c.18.35.13.88.35,1.23a5.19,5.19,0,0,1,.71,2.2c0,1.54-.88,1.45-2,1.76,0,0-.31.22-.35.22a1.88,1.88,0,0,1-.48.09l-.09.18a.65.65,0,0,0-.4-.09c-.22,0-.31.09-.49.09,0,0-.09-.09-.13-.09-.7,0-1.54,1.1-2.07,1.1a.44.44,0,0,1-.13,0l-.09,0s-.22,0-.26,0a.46.46,0,0,0-.09-.22s0-.62,0-.71c0-.31-.31-.57-.4-.84s-.09-.75-.44-.92c-.66-.44-.57-.71-1.54-.71a3.32,3.32,0,0,0-1.89.79h-.13c-.35.53-.75,2.77-1.06,2.91v1.5c-.09.09-.09.26-.13.4s.13.26.13.44-.18.31-.22.53a10.85,10.85,0,0,0-.13,2.07c0,.18,0,1,0,1.1a1.32,1.32,0,0,1,.09.66c0,.35-.22.71-.22,1.15h.09l.22,1.37c.09.26.26.44.26.66.26,1.5.31,2.64,1.41,3.7a5.59,5.59,0,0,0,1.5.18l.44,0c.13-.22.79-.13,1.06-.26a1.86,1.86,0,0,0,.62-.26c0-.18.92-.84,1.14-1.23a4,4,0,0,0,.31-1.94V20.7c-.71,0-1.41.13-2.11.18-.31,0-.7.18-1,.18-.13,0-.18-.09-.26-.26s0-1.19,0-1.37l.18-2.16c0-.35-.18-.71-.18-1a.67.67,0,0,1,.62-.75.64.64,0,0,1,.31.09c.79,0,1.45.09,2.25.09.31,0,.88.09,1-.26,1.54.09,3-.13,4.49-.13.53,0,1.15.09,1.63.13a8.7,8.7,0,0,1,.35,2.33,3.5,3.5,0,0,0-.13.66h.09c0,.44.66.66.62,1.14l-.09,2.64a10.11,10.11,0,0,1,.35,1.89s.09.09.09.13c0,.26-.18.66-.18.92s0,.66.22.79V27c.13,0,.09.57.09.75v1.37a11,11,0,0,1-1.06.66c-.18.09-.66.35-.7.35h-1c-.26,0-.92.44-1.28.44-.66,0-.88-2.55-1.06-3.08-.22.92-1,1.19-1.41,1.85-.18.18-.4.57-.57.71s-.26,0-.26,0c-.35.09-.53.53-.71.62,0,0-.22,0-.26,0-.53.18-.92.66-1.5.66H283l-.26-.09s-.31.09-.35.09h-.13c-.09,0-.18,0-.22-.09-.13.31-.79.35-1,.35-.44,0-.88-.18-1.19-.18A3.51,3.51,0,0,0,279.25,31.57Zm-.44-22.81c.09,0,.09-.18,0-.18S278.77,8.76,278.81,8.76Z"/></svg>