<svg width="43" height="38" viewBox="0 0 43 38" xmlns="http://www.w3.org/2000/svg" xmlns:xlink="http://www.w3.org/1999/xlink"><title>Artboard</title><defs><path id="a" d="M0 38V.667h42.912v37.33z"/></defs><g fill="none" fill-rule="evenodd"><g transform="translate(0 -.668)"><mask id="b" fill="#fff"><use xlink:href="#a"/></mask><path d="M21.42 32.057c5.32.15 9.897-4.426 9.905-9.838.007-5.326-4.377-9.887-9.866-9.903-5.367-.017-9.906 4.423-9.905 9.903 0 5.378 4.553 9.967 9.864 9.837m-.023 5.94c-5.296 0-10.59-.005-15.887.002-2.614.004-4.956-2.155-5.444-4.45-.065-.305-.06-.61-.06-.917-.003-6.94.002-13.88-.006-20.82-.002-1.69.774-2.99 2-4.058C3.116 6.78 4.437 6.352 5.923 6.38c1.407.025 2.815-.006 4.223.01.365.006.555-.123.68-.466.315-.877.605-1.77 1.01-2.606C12.633 1.668 13.947.71 15.82.7c3.722-.02 7.444.048 11.163-.032 1.625-.035 3.708 1.328 4.245 3.034.246.782.57 1.54.847 2.313.11.303.32.375.618.373 1.56-.008 3.122-.008 4.682-.003 2.548.01 5.04 2.12 5.458 4.638.058.354.043.722.043 1.084.002 6.73-.07 13.463.036 20.192.042 2.653-2.19 5.12-4.43 5.57-.444.088-.88.127-1.324.127h-15.76" fill="#F4F4F4" mask="url(#b)"/></g><path d="M21.442 14.996c3.582-.01 6.573 2.88 6.552 6.532-.023 3.72-2.9 6.555-6.538 6.563-3.668.01-6.54-2.832-6.573-6.527-.034-3.727 2.998-6.583 6.56-6.567" fill="#FBBF34"/></g></svg>
