<svg id="Layer_1" data-name="Layer 1" xmlns="http://www.w3.org/2000/svg" viewBox="0 0 57.57 57.57"><defs><style>.cls-1{fill:#391951;}.cls-2{fill:#fff;}</style></defs><title>citizen q</title><circle class="cls-1" cx="28.79" cy="28.79" r="28.79"/><path class="cls-2" d="M46 28.1l-6.51-9.83a3.91 3.91 0 0 0-7.11 2.85l-9.15 1.25a1.15 1.15 0 0 0-.9.67l-7.89 17.71a1.15 1.15 0 0 0 .82 1.6h.25l19.4-.35a1.15 1.15 0 0 0 1-.56l4.72-7.93A3.91 3.91 0 0 0 46 28.1zM34.23 39.74l-14.8.26 7.63-5a3.38 3.38 0 1 0-1.28-2l-7.63 5 6-13.52 9.26-1.26L39 31.71zm-5.76-8.39a1.07 1.07 0 1 1 1.19 1.79 1.1 1.1 0 0 1-1.49-.3 1.07 1.07 0 0 1 .3-1.5zm15.15.25a1.61 1.61 0 0 1-2.23-.45l-6.51-9.83a1.61 1.61 0 1 1 2.68-1.77l6.51 9.83a1.61 1.61 0 0 1-.45 2.23zM17.99 22.72v-4h4v-2.3h-4v-4h-2.3v4h-4v2.3h4v4h2.3z"/></svg>