<svg width="25" height="22" viewBox="0 0 25 22" xmlns="http://www.w3.org/2000/svg" xmlns:xlink="http://www.w3.org/1999/xlink"><title>Page 1</title><defs><path id="a" d="M24.8 2.067V.287H0v3.56h24.8v-1.78z"/></defs><g fill="none" fill-rule="evenodd"><path d="M0 21.714h24.8V0H0v21.714h24.8V18.15H0v3.564"/><path d="M0 19.5c.126-.266.226-.545.437-.764.363-.377.792-.585 1.324-.585 7.094.003 14.186 0 21.28.004.757 0 1.288.376 1.624 1.044.05.1.09.2.136.302v.83c-.206.717-.667 1.178-1.384 1.384H1.33c-.66-.227-1.103-.67-1.33-1.328V19.5zM24.8 11.245c-.213.706-.646 1.192-1.383 1.365-.132.03-.273.037-.41.037-7.073 0-14.146.002-21.218 0-.796 0-1.342-.388-1.678-1.094-.04-.083-.075-.168-.112-.253v-.83c.213-.706.647-1.188 1.382-1.368.173-.043.348-.035.522-.035H22.9c.92 0 1.478.372 1.84 1.223.018.042.04.083.06.125v.83z" fill="#F4F4F4"/><g transform="translate(0 -.286)"><mask id="b" fill="#fff"><use xlink:href="#a"/></mask><path d="M24.8 2.445c-.213.706-.646 1.192-1.382 1.364-.133.03-.274.037-.41.037-7.063 0-14.125.002-21.187 0-.906 0-1.477-.443-1.82-1.402V1.67C.205.953.667.492 1.384.286H23.47c.66.227 1.103.67 1.33 1.33v.83z" fill="#F4F4F4" mask="url(#b)"/></g></g></svg>