<?xml version="1.0" encoding="UTF-8" standalone="no"?>
<svg width="38px" height="38px" viewBox="0 0 38 38" version="1.1" xmlns="http://www.w3.org/2000/svg" xmlns:xlink="http://www.w3.org/1999/xlink">
    <!-- Generator: Sketch 40 (33762) - http://www.bohemiancoding.com/sketch -->
    <title>Instagram-icon-black</title>
    <desc>Created with Sketch.</desc>
    <defs></defs>
    <g id="Page-1" stroke="none" stroke-width="1" fill="none" fill-rule="evenodd">
        <g id="Instagram-icon-black" fill="#FFFFFF">
            <g id="Group-3">
                <path d="M18.9700656,0.0597379913 C13.8181138,0.0597379913 13.1721138,0.0813930131 11.1488009,0.173655022 C9.12956236,0.265668122 7.75058643,0.585598253 6.54406565,1.05346288 C5.29655142,1.53717467 4.23862144,2.18441921 3.18401751,3.23672052 C2.12941357,4.28902183 1.48075274,5.34472489 0.996065646,6.58943231 C0.52692779,7.79348472 0.206297593,9.16944978 0.114249453,11.1841965 C0.021868709,13.2030917 8.31509847e-05,13.8475983 8.31509847e-05,18.9883013 C8.31509847e-05,24.1291703 0.021868709,24.7736769 0.114249453,26.7925721 C0.206297593,28.8073188 0.52692779,30.1832838 0.996065646,31.3873362 C1.48075274,32.6320437 2.12941357,33.6877467 3.18401751,34.740048 C4.23862144,35.7923493 5.29655142,36.4395939 6.54406565,36.9233057 C7.75058643,37.3911703 9.12956236,37.7111004 11.1488009,37.8031135 C13.1721138,37.8952096 13.8181138,37.9170306 18.9700656,37.9170306 C24.1220175,37.9170306 24.7681007,37.8952096 26.7914136,37.8031135 C28.8105689,37.7111004 30.1895449,37.3911703 31.3961488,36.9233057 C32.643663,36.4395939 33.7015098,35.7923493 34.7561138,34.740048 C35.8107177,33.6877467 36.4593786,32.6320437 36.9441488,31.3873362 C37.4132035,30.1832838 37.7338337,28.8073188 37.825965,26.7925721 C37.9183457,24.7736769 37.9400481,24.1291703 37.9400481,18.9883013 C37.9400481,13.8475983 37.9183457,13.2030917 37.825965,11.1841965 C37.7338337,9.16944978 37.4132035,7.79348472 36.9441488,6.58943231 C36.4593786,5.34472489 35.8107177,4.28902183 34.7561138,3.23672052 C33.7015098,2.18441921 32.643663,1.53717467 31.3961488,1.05346288 C30.1895449,0.585598253 28.8105689,0.265668122 26.7914136,0.173655022 C24.7681007,0.0813930131 24.1220175,0.0597379913 18.9700656,0.0597379913 M18.9700656,3.47027948 C24.035291,3.47027948 24.6351422,3.48952838 26.6355886,3.58054585 C28.485116,3.66475983 29.4895799,3.97324017 30.1580306,4.23235371 C31.0435886,4.57576419 31.6755361,4.98596507 32.3392473,5.64831004 C33.0032079,6.31073799 33.4143063,6.94122271 33.758302,7.82476419 C34.0179825,8.49175546 34.3271379,9.49410917 34.4115361,11.3395153 C34.5027527,13.3355939 34.5221269,13.9341354 34.5221269,18.9883013 C34.5221269,24.0426332 34.5027527,24.6411747 34.4115361,26.6370873 C34.3271379,28.4826594 34.0179825,29.4850131 33.758302,30.1520044 C33.4143063,31.0354629 33.0032079,31.6660306 32.3392473,32.3284585 C31.6755361,32.9908035 31.0435886,33.4010044 30.1580306,33.7443319 C29.4895799,34.0035284 28.485116,34.3120087 26.6355886,34.3960568 C24.6354748,34.4872402 24.0357068,34.5064061 18.9700656,34.5064061 C13.9044245,34.5064061 13.3046565,34.4872402 11.3045427,34.3960568 C9.45509847,34.3120087 8.45055142,34.0035284 7.78210066,33.7443319 C6.89662582,33.4010044 6.26467834,32.9908035 5.60088403,32.3284585 C4.93717287,31.6660306 4.5260744,31.0354629 4.18191247,30.1520044 C3.9221488,29.4850131 3.61307659,28.4826594 3.52859519,26.6370873 C3.43746171,24.6411747 3.41808753,24.0426332 3.41808753,18.9883013 C3.41808753,13.9341354 3.43746171,13.3355939 3.52859519,11.3395153 C3.61307659,9.49410917 3.9221488,8.49175546 4.18191247,7.82476419 C4.5260744,6.94122271 4.93717287,6.31073799 5.60088403,5.64831004 C6.26467834,4.98596507 6.89662582,4.57576419 7.78210066,4.23235371 C8.45055142,3.97324017 9.45509847,3.66475983 11.3045427,3.58054585 C13.3049891,3.48952838 13.9048403,3.47027948 18.9700656,3.47027948" id="Fill-1"></path>
            </g>
            <path d="M18.9700656,25.2978777 C15.4778074,25.2978777 12.6466827,22.4730175 12.6466827,18.9883013 C12.6466827,15.5036681 15.4778074,12.6788079 18.9700656,12.6788079 C22.462407,12.6788079 25.2934486,15.5036681 25.2934486,18.9883013 C25.2934486,22.4730175 22.462407,25.2978777 18.9700656,25.2978777 M18.9700656,9.26826638 C13.5901138,9.26826638 9.22876149,13.620179 9.22876149,18.9883013 C9.22876149,24.3566725 13.5901138,28.7084192 18.9700656,28.7084192 C24.3500175,28.7084192 28.7113698,24.3566725 28.7113698,18.9883013 C28.7113698,13.620179 24.3500175,9.26826638 18.9700656,9.26826638" id="Fill-4"></path>
            <path d="M31.3727834,8.88420087 C31.3727834,10.1386157 30.3536018,11.155655 29.0963589,11.155655 C27.8391991,11.155655 26.8199344,10.1386157 26.8199344,8.88420087 C26.8199344,7.62970306 27.8391991,6.61274672 29.0963589,6.61274672 C30.3536018,6.61274672 31.3727834,7.62970306 31.3727834,8.88420087" id="Fill-5"></path>
        </g>
    </g>
</svg>