<svg width="69" height="32" viewBox="0 0 69 32" xmlns="http://www.w3.org/2000/svg" xmlns:xlink="http://www.w3.org/1999/xlink"><title>Page 1</title><defs><path id="a" d="M42.084.03H.43v25.32h41.654z"/></defs><g fill="none" fill-rule="evenodd"><path d="M37.68 12.685c1.42-.843 2.85-.952 4.152.054.617.475.933.326 1.464-.05 1.883-1.338 3.925-1.87 6.176-.987.23.09.475.482.694.183.28-.38.514-.874.405-1.354-.07-.308-.48-.156-.735-.157-3.17-.01-6.337-.006-9.506-.006-2.12 0-2.12 0-2.687 2.108-.008.03.01.066.038.207zm5.33 6.19c.06 1.498.093 2.708 1.402 3.304.783.356 1.995-.19 2.876-1.216.214-.248.297-.528.383-.833.566-1.987 1.15-3.97 1.735-5.952.395-1.342-.094-2.006-1.497-2.063-.735-.03-1.373.196-1.915.66-1.964 1.678-2.635 3.96-2.982 6.1zm-16.047.317c0 .313-.032.63.006.938.166 1.33 1.063 2.34 2.052 2.147 1.22-.237 2.317-.81 2.752-2.093.665-1.96 1.274-3.94 1.88-5.922.437-1.43.023-1.97-1.466-2.004-.712-.017-1.36.15-1.956.556-2.25 1.534-3.085 3.79-3.27 6.378zm41.783-8.535c-.487-.256-.376.22-.436.395-.35 1.01-.698 2.022-.98 3.052-.11.407-.254.575-.684.558-.764-.03-1.53-.023-2.297-.002-.377.01-.483-.136-.612-.496-.638-1.79-2.125-2.184-3.55-.877-2.162 1.983-3.048 4.627-3.558 7.422-.21 1.156-.304 2.367.77 3.148 1.096.795 2.328.475 3.462-.006 1.295-.55 2.433-1.355 3.175-2.582.31-.51.65-.48 1.026-.237.51.33-.013.627-.153.815-1.996 2.695-4.678 3.87-8.01 3.415-1.963-.268-3.684-2.24-3.625-4.22.114-3.818 1.57-6.968 5.072-8.79 1.963-1.02 4.042-1.13 5.905.434.978-2.318.978-2.318-1.4-2.318-2.646 0-5.292.022-7.937-.02-.606-.008-.842.217-1.008.747-1.38 4.42-2.81 8.825-4.14 13.26-.24.8-.565 1.078-1.34.96-.273-.04-.557-.006-.835-.006-1.55 0-1.536.005-1.078-1.51.115-.382.392-.737.257-1.3-1.027.782-2.14 1.31-3.398 1.235-2.1-.124-3.743-2.25-3.407-4.38.194-1.23.45-2.454 1.12-3.59.59.684.396 1.61.733 2.38.603-1.704.304-3.418-.743-4.336-1.447-1.27-3.6-.714-4.178 1.1-1.027 3.226-2.037 6.46-3.036 9.695-.15.488-.34.758-.92.72-.865-.056-1.736-.014-2.743-.014.293-.96.565-1.85.884-2.9-1.17.585-2.13 1.257-3.36 1.25-1.965-.01-3.464-1.258-3.672-3.22-.4-3.745 2.47-8.898 7.585-9.14.94-.043 1.827.256 2.613.77.076-.078.146-.116.16-.17.428-1.53.427-1.53-1.12-1.53-2.298 0-4.596.008-6.893-.014-.243-.003-.69.244-.713-.3-.02-.477.305-.557.696-.538.243.013.488.002.73.002 13.473 0 26.944.002 40.416-.006.407 0 .835.12 1.224-.11v1.253z" fill="#F4F4F4"/><g transform="translate(16 -.03)"><mask id="b" fill="#fff"><use xlink:href="#a"/></mask><path d="M20.358.03c-.28.285.012.346.18.39 3.535.89 6.613 2.817 9.878 4.326 2.2 1.018 4.423 1.946 6.957 1.813 1.574-.084 2.808-.644 3.76-1.877.188-.243.264-.746.746-.388.424.314.078.654-.066.913-1.11 2.006-2.928 3.032-5.11 3.36-3.34.505-6.457-.27-9.376-1.92-2.2-1.248-4.178-2.832-6.308-4.188-3.927-2.5-8.3-1.35-10.503 2.74-1.54 2.86-2.303 6.002-3.31 9.053-1.147 3.48-2.22 6.982-3.31 10.48-.112.355-.19.634-.665.616-.895-.034-1.79-.01-2.803-.01 1.964-5.73 3.123-11.594 5.622-17.013 1.682-3.65 4.165-6.533 8.123-7.862.193-.064.654.038.332-.435h5.851z" fill="#F4F4F4" mask="url(#b)"/></g><path d="M9.107 23.477c1.058-.63 1.923-1.306 2.552-2.237.7-1.035.76-2.068.188-2.455-.666-.45-1.917.103-2.516 1.112-.216.363-.324.765-.348 1.18-.044.754-.08 1.512.123 2.4zM0 18.597c.503.236.422-.25.504-.448C1.98 14.61 4.488 12.3 8.32 11.6c1.35-.248 2.703-.283 3.71.95.952-2.1.952-2.1-1.25-2.1-.592 0-1.185.02-1.776-.01-.215-.013-.638.198-.58-.307.035-.313.164-.612.58-.61.592.005 1.184-.002 1.776-.002h5.734c-.548 1.574-1.062 3.034-1.565 4.498-.105.305-.276.433-.61.41-.415-.032-.838-.043-1.252 0-.848.083-1.44.006-1.755-1.032-.344-1.136-2.313-1.358-3.626-.553-1.007.617-1.684 1.535-2.28 2.515-1.242 2.038-2.074 4.213-2.078 6.638-.004 1.562 1.04 2.532 2.574 2.423.52-.04.767-.24.573-.828-.41-1.25-.312-2.513-.014-3.775.48-2.026 2.267-3.48 4.24-3.428 1.737.045 2.8 1.265 2.63 3.004-.205 2.108-1.53 3.42-3.22 4.422-.655.387-.774.75-.566 1.47.56 1.925.623 3.817-.814 5.47-.28.322-.58.59-.97.76-.19.083-.516.108-.26.454H3.97c.19-.416-.214-.38-.393-.51-1.248-.9-1.73-2.53-1.134-3.768.165-.342.366-.676.765-.493.424.192 0 .462-.063.684-.308 1.094.277 2.3 1.288 2.62 1.125.354 2.137-.15 2.608-1.265.416-.984.16-1.964.106-2.962-.053-.952-.453-1.125-1.3-1.02-2.372.297-4.317-.37-5.485-2.626-.08-.16-.193-.305-.36-.065v-3.97zM54.216.677c.924.003 1.798.905 1.763 1.82-.034.853-.9 1.705-1.757 1.728-.942.026-1.76-.792-1.77-1.766-.007-.973.797-1.786 1.763-1.783" fill="#F4F4F4"/></g></svg>