<svg width="20" height="17" viewBox="0 0 20 17" xmlns="http://www.w3.org/2000/svg" xmlns:xlink="http://www.w3.org/1999/xlink"><title>icons-02</title><defs><path id="a" d="M0 10.93V.167h19.617V10.93z"/></defs><g fill="none" fill-rule="evenodd"><g transform="translate(0 -.167)"><mask id="b" fill="#fff"><use xlink:href="#a"/></mask><path d="M19.614.287c-.176.644-.344 1.265-.516 1.885l-.723 2.61c-.085.303-.112.31-.348.088-.323-.306-.652-.606-.967-.92-.134-.13-.226-.132-.367-.005-1.073.96-2.152 1.91-3.23 2.866C12 8.107 10.536 9.4 9.08 10.7c-.177.158-.28.15-.447-.01-1.048-1.01-2.11-2.002-3.158-3.01-.18-.174-.288-.21-.502-.023C3.74 8.72 2.49 9.765 1.25 10.823c-.157.135-.254.155-.4-.01-.24-.277-.498-.538-.757-.798-.132-.133-.123-.226.023-.35C1.04 8.888 1.96 8.102 2.88 7.32c.732-.623 1.466-1.24 2.192-1.87.16-.14.258-.13.408.012 1.06 1.008 2.13 2.006 3.19 3.014.157.15.26.19.446.024.84-.757 1.694-1.5 2.54-2.248 1.266-1.117 2.528-2.237 3.8-3.35.18-.157.242-.255.015-.437-.308-.246-.573-.538-.863-.806-.137-.127-.127-.2.065-.25L19.42.187c.115-.03.217-.045.194.1" fill="#FBBF34" mask="url(#b)"/></g><path d="M17.436 11.3v5.197c0 .302-.056.347-.37.333-.655-.028-1.31-.015-1.966-.004-.7.012-1.4 0-2.1-.002-.194 0-.164-.14-.165-.25-.002-.86-.002-1.717-.002-2.575 0-1.467.004-2.933-.003-4.4 0-.2.062-.343.217-.48 1.3-1.14 2.596-2.288 3.885-3.44.16-.14.255-.122.38.025.11.128.123.27.123.42V11.3zM5.633 13.253c0 1.09-.004 2.182.003 3.273.003.22-.05.298-.31.294-.962-.012-1.925.016-2.887.008-.377-.002-.753-.022-1.13.003-.21.015-.313-.07-.31-.294.007-1.108.004-2.215 0-3.323-.003-.17.076-.28.2-.384l3.156-2.68c.216-.183.43-.37.65-.545.087-.068.156-.233.295-.148.143.086.293.193.324.375.013.08.01.166.01.25v3.172zm5.858.44c0 .932-.005 1.866.005 2.8.003.23-.064.323-.324.32-.927-.012-1.854-.004-2.78-.004-.412 0-.823-.007-1.235 0-.19.004-.268-.064-.267-.247.003-1.783.003-3.566.004-5.35 0-.055-.022-.127.045-.158.07-.033.11.035.15.073.425.398.847.797 1.27 1.197.11.105.223.21.333.32.135.133.243.132.393-.004.713-.642 1.436-1.273 2.157-1.906.06-.053.113-.165.207-.12.085.038.042.15.043.23.002.95 0 1.9 0 2.85z" fill="#FFF"/></g></svg>