<svg id="Layer_1" data-name="Layer 1" xmlns="http://www.w3.org/2000/svg" viewBox="0 0 199.86 33.74"><defs><style>.cls-1{fill:#f97408;}.cls-2{font-size:17.43px;fill:#2f3c6f;font-family:Georgia-BoldItalic, Georgia;font-weight:700;font-style:italic;}</style></defs><title>go to home</title><path class="cls-1" d="M3.12,23.38a40.32,40.32,0,0,0,9.39,7.57c4,2.4,8.83,2.38,13.34,2.64a120.25,120.25,0,0,0,16-.25c13-1,25.79-3.55,38.72-5.08a245.28,245.28,0,0,1,36.06-1.58c12,.36,24,2.16,36.06,2.16H176c3.14,0,6.45.34,9.51-.54,3.45-1,15.87-3.87,14.17-9.28-.23-.74-.73-1.37-1-2.1-.78-2.12.55-4.44.35-6.68a6.72,6.72,0,0,0-3-4.72c-3.86-2.69-9.48-3.7-14-4.5A59.22,59.22,0,0,0,167,.16c-4,.32-8.07.79-12.1,1.23-3.86.42-7.62.32-11.52.51-8.39.42-16.68,2-25.07,2.44-11.4.58-22.79-1-34.21-1.22-10.5-.21-21,.71-31.5.45A174.33,174.33,0,0,1,35.18,1.74c-3.68-.46-7.32-1.27-11-1.3-4.16,0-7.87,2-11.7,3.44A32.82,32.82,0,0,0,4.76,7.64,11.06,11.06,0,0,0,.1,14.57,11.08,11.08,0,0,0,2.88,23.1Z"/><text class="cls-2" transform="translate(16.51 20.81)">Go To Home Page</text></svg>