<svg xmlns="http://www.w3.org/2000/svg" viewBox="0 0 90.45 122.38"><title>Asset 4</title><g id="Layer_2" data-name="Layer 2"><g id="Layer_1-2" data-name="Layer 1"><path d="M45.22,103.74H37.41a2.51,2.51,0,0,1-2.29-1,2.74,2.74,0,0,1-.49-1.34,10.13,10.13,0,0,0-2.2-5.64,44.53,44.53,0,0,0-5.2-5.87c-2.55-2.51-5.14-5-7.71-7.45a97.45,97.45,0,0,1-10-11,47.2,47.2,0,0,1-7.9-15,39.44,39.44,0,0,1-1.54-14A45.21,45.21,0,0,1,33.35,1.57a45.25,45.25,0,0,1,53.5,25.92A45.09,45.09,0,0,1,90.27,49a40,40,0,0,1-4.52,14.92,63.56,63.56,0,0,1-9.62,13.23c-3.45,3.78-7.23,7.23-10.9,10.79a74.42,74.42,0,0,0-6.42,6.79,13.81,13.81,0,0,0-2.57,4.38,8.74,8.74,0,0,0-.37,2,2.56,2.56,0,0,1-2.8,2.67ZM46.33,2.64l0,.1A9.38,9.38,0,0,1,51.25,7.3,33.83,33.83,0,0,1,53.52,12,69.86,69.86,0,0,1,57.44,28.3c.5,3.65.78,7.32.95,11a95.78,95.78,0,0,1-.85,19.06A71,71,0,0,1,54.2,71.8c-1.62,4.43-3.39,8.8-5.12,13.19a55.13,55.13,0,0,0-3.4,11c-.13.8-.23,1.6-.34,2.42H50.8c0-.14.05-.28.08-.41.21-1,.37-2,.64-2.92a28,28,0,0,1,4.07-8.45c2-2.83,4-5.59,6.1-8.35A87.13,87.13,0,0,0,69.2,66.93a45.14,45.14,0,0,0,5.21-18.85A53.86,53.86,0,0,0,74,38a51.62,51.62,0,0,0-3.09-12.07,43.56,43.56,0,0,0-11.51-17,24.55,24.55,0,0,0-10.15-5.7C48.29,2.95,47.3,2.82,46.33,2.64Zm-2.16.07H44c-.4,0-.8.08-1.19.15a20.83,20.83,0,0,0-7.92,3.27,35.56,35.56,0,0,0-9.3,9.1,50.81,50.81,0,0,0-9.4,25.64,48.75,48.75,0,0,0,.48,12.46A44.21,44.21,0,0,0,20.41,65.2a69.91,69.91,0,0,0,7.16,11.36c2.45,3.3,4.95,6.57,7.29,9.95a27.34,27.34,0,0,1,4.43,9.9c.14.66.25,1.32.36,2h5.44c0-.23,0-.42,0-.61a31.77,31.77,0,0,0-1.55-7.12q-1.68-4.73-3.56-9.38c-1.58-3.93-3.19-7.84-4.45-11.89a78.45,78.45,0,0,1-3.34-17.87,104.51,104.51,0,0,1,.08-14.87c.24-3.39.67-6.78,1.12-10.15a68.35,68.35,0,0,1,2.75-12A30.35,30.35,0,0,1,40,6.19,8.55,8.55,0,0,1,44.17,2.71Z"/><path d="M45.22,106.4h7.85a2.47,2.47,0,0,1,2.53,1.46,3.42,3.42,0,0,1,.25,1.29c0,2.64,0,5.29,0,7.93a4.81,4.81,0,0,1-3,4.82,6.39,6.39,0,0,1-2.3.44c-3.54,0-7.09,0-10.64,0a5,5,0,0,1-4.67-2.56,5.06,5.06,0,0,1-.64-2.47c0-2.77,0-5.54,0-8.31a2.49,2.49,0,0,1,2.74-2.62C40,106.39,42.59,106.4,45.22,106.4Z"/></g></g></svg>